<svg width="1555" height="754" viewBox="0 0 1555 754" fill="none" xmlns="http://www.w3.org/2000/svg">
<path d="M258.921 532.384C257.935 530.457 257.443 529.495 256.455 527.566C251.255 530.214 248.652 531.539 243.445 534.189C241.801 535.025 240.381 535.283 239.182 534.958C237.982 534.633 237.054 533.823 236.401 532.545C236.233 532.216 236.124 531.855 236.074 531.455C236.025 531.056 236.028 530.61 236.081 530.115C236.132 529.62 236.2 529.129 236.283 528.651C236.366 528.174 236.47 527.592 236.596 526.896C238.344 516.738 239.207 511.649 240.917 501.515C241.191 499.849 241.477 498.594 241.773 497.758C242.07 496.919 242.627 496.302 243.433 495.891C246.039 494.561 248.104 495.397 249.644 498.399C253.757 506.414 255.818 510.435 259.941 518.46C260.385 518.234 260.612 518.121 261.055 517.894C262.383 517.219 263.539 516.858 264.526 516.812C265.513 516.766 266.323 517.357 266.956 518.584C267.472 519.586 267.521 520.479 267.102 521.271C266.683 522.063 265.817 522.799 264.507 523.466C263.876 523.787 263.555 523.946 262.924 524.268C263.914 526.195 264.409 527.159 265.4 529.084C266.082 530.412 266.296 531.547 266.041 532.493C265.787 533.439 265.168 534.164 264.181 534.666C263.212 535.16 262.254 535.228 261.319 534.868C260.384 534.507 259.584 533.678 258.921 532.384ZM242.349 527.423C246.807 525.152 249.036 524.024 253.484 521.758C250.399 515.73 248.854 512.712 245.772 506.687C244.42 514.975 243.732 519.123 242.349 527.423Z" fill="#1C2C57"/>
<path d="M292.76 495.765C294.261 498.585 295.38 501.099 296.116 503.302C296.853 505.504 297.207 507.671 297.141 509.781C297.06 512.387 296.356 514.73 295.071 516.777C293.785 518.823 291.994 520.433 289.712 521.597C287.083 522.937 284.337 523.398 281.485 522.981C278.631 522.562 275.947 521.316 273.59 519.226C272.317 518.096 271.106 516.688 269.959 515.079C268.81 513.472 267.712 511.653 266.667 509.634C265.318 507.026 264.244 504.607 263.438 502.379C262.632 500.15 262.117 498.124 261.939 496.338C261.642 493.364 262.142 490.701 263.383 488.424C264.625 486.147 266.575 484.332 269.223 482.978C270.97 482.085 272.706 481.56 274.432 481.406C276.158 481.252 277.85 481.456 279.51 482.011C281.17 482.566 282.809 483.464 284.416 484.713C287.208 486.879 289.995 490.57 292.76 495.765ZM285.456 498.831C283.794 495.68 282.247 493.198 280.815 491.385C279.386 489.573 277.956 488.383 276.536 487.812C275.114 487.243 273.619 487.356 272.054 488.157C269.808 489.304 268.843 491.247 269.158 493.988C269.471 496.73 270.869 500.493 273.357 505.274C275.045 508.518 276.619 511.077 278.076 512.951C279.533 514.829 280.983 516.068 282.432 516.669C283.882 517.27 285.376 517.176 286.911 516.395C288.499 515.587 289.455 514.406 289.772 512.848C290.086 511.292 289.887 509.4 289.167 507.167C288.448 504.938 287.208 502.155 285.456 498.831Z" fill="#1C2C57"/>
<path d="M321.95 500.284C320.903 498.386 320.38 497.435 319.331 495.531C314.154 498.169 311.567 499.488 306.387 502.128C304.751 502.961 303.328 503.22 302.117 502.899C300.904 502.579 299.955 501.778 299.276 500.508C299.101 500.181 298.98 499.817 298.922 499.421C298.864 499.025 298.858 498.581 298.901 498.089C298.942 497.598 299 497.117 299.072 496.643C299.145 496.171 299.239 495.584 299.348 494.893C300.867 484.809 301.585 479.767 302.99 469.781C303.215 468.14 303.462 466.904 303.731 466.082C304.002 465.258 304.532 464.65 305.323 464.245C307.877 462.936 309.964 463.751 311.601 466.708C315.97 474.597 318.184 478.589 322.59 486.517C323.032 486.293 323.247 486.174 323.689 485.95C325.008 485.278 326.167 484.921 327.16 484.873C328.156 484.825 328.997 485.405 329.676 486.614C330.231 487.603 330.306 488.485 329.906 489.268C329.506 490.052 328.651 490.782 327.346 491.447C326.716 491.767 326.405 491.928 325.776 492.248C326.833 494.148 327.36 495.098 328.415 496.991C329.144 498.298 329.39 499.408 329.156 500.342C328.923 501.275 328.313 501.999 327.326 502.501C326.357 502.994 325.394 503.07 324.439 502.722C323.484 502.373 322.653 501.558 321.95 500.284ZM305.128 495.425C309.548 493.171 311.76 492.043 316.175 489.79C312.897 483.828 311.251 480.835 307.987 474.882C306.884 483.07 306.316 487.191 305.128 495.425Z" fill="#1C2C57"/>
<path d="M360.278 444.189C353.539 447.642 350.171 449.372 343.426 452.828C345.553 456.461 346.625 458.29 348.767 461.943C355.028 458.739 358.154 457.137 364.411 453.935C365.562 453.346 366.579 453.161 367.458 453.383C368.337 453.606 369.033 454.137 369.546 454.978C370.059 455.82 370.197 456.651 369.956 457.468C369.718 458.285 369.009 458.99 367.835 459.589C361.544 462.804 358.4 464.407 352.106 467.622C354.593 471.854 355.842 473.976 358.324 478.183C365.463 474.544 369.031 472.723 376.169 469.086C377.373 468.472 378.443 468.283 379.387 468.513C380.33 468.744 381.076 469.303 381.629 470.2C382.161 471.062 382.29 471.92 382.011 472.77C381.728 473.621 380.984 474.356 379.773 474.974C371.403 479.236 367.219 481.367 358.849 485.63C357.173 486.484 355.757 486.737 354.602 486.39C353.446 486.043 352.396 485.068 351.455 483.451C344.973 472.319 341.686 466.619 335.252 455.479C334.63 454.4 334.276 453.431 334.2 452.59C334.124 451.746 334.34 451 334.839 450.342C335.335 449.685 336.112 449.087 337.166 448.546C345.032 444.513 348.962 442.499 356.816 438.471C358.001 437.863 359.038 437.672 359.933 437.899C360.828 438.125 361.533 438.663 362.05 439.511C362.576 440.376 362.711 441.216 362.451 442.038C362.191 442.86 361.469 443.579 360.278 444.189Z" fill="#1C2C57"/>
<path d="M389.996 449.128C388.934 449.671 388.404 449.945 387.341 450.488C390.308 455.21 391.796 457.573 394.753 462.242C395.725 463.779 396.089 465.087 395.838 466.171C395.587 467.256 394.889 468.087 393.748 468.669C392.52 469.295 391.33 469.399 390.182 468.984C389.035 468.568 387.998 467.626 387.079 466.149C380.081 454.927 376.511 449.13 369.573 437.885C368.589 436.29 368.235 434.952 368.514 433.873C368.794 432.795 369.738 431.849 371.341 431.026C376.179 428.546 378.598 427.301 383.437 424.819C385.108 423.963 386.577 423.3 387.854 422.83C389.129 422.361 390.4 422.112 391.609 422.032C393.048 421.937 394.53 422.07 395.992 422.497C397.456 422.927 398.802 423.613 400.032 424.554C401.263 425.494 402.31 426.622 403.172 427.945C404.944 430.655 405.584 433.228 405.075 435.655C404.564 438.085 400.167 442.776 400.167 442.776C400.204 442.88 403.915 443.161 406.028 443.895C408.143 444.628 410.185 445.513 412.153 446.545C414.12 447.578 415.784 448.566 417.133 449.512C418.482 450.458 419.308 451.156 419.61 451.612C419.925 452.086 420.072 452.631 420.059 453.257C420.047 453.884 419.854 454.473 419.479 455.023C419.105 455.573 418.553 456.034 417.826 456.404C416.96 456.846 416.104 457.023 415.266 456.94C414.428 456.856 413.606 456.63 412.798 456.259C411.99 455.888 410.853 455.311 409.38 454.53C406.88 453.205 405.634 452.535 403.141 451.192C400.879 449.945 399.014 449.061 397.546 448.552C396.077 448.044 394.785 447.843 393.678 447.945C392.567 448.048 391.344 448.441 389.996 449.128ZM384.579 431.534C381.821 432.949 380.437 433.659 377.678 435.074C380.189 439.084 381.457 441.103 383.992 445.145C386.696 443.762 388.048 443.073 390.753 441.69C392.567 440.762 393.989 439.827 395.028 438.886C396.068 437.945 396.678 436.938 396.853 435.866C397.028 434.795 396.696 433.612 395.863 432.319C395.211 431.308 394.374 430.548 393.36 430.045C392.343 429.543 391.25 429.345 390.085 429.435C388.98 429.522 387.148 430.217 384.579 431.534Z" fill="#1C2C57"/>
<path d="M427.646 429.902C426.582 430.445 426.055 430.721 424.991 431.263C428.123 435.926 429.697 438.254 432.816 442.851C433.841 444.365 434.239 445.652 434.015 446.723C433.788 447.795 433.106 448.622 431.966 449.204C430.737 449.83 429.534 449.941 428.359 449.54C427.183 449.138 426.111 448.216 425.139 446.764C417.745 435.721 413.954 429.955 406.634 418.883C405.596 417.313 405.206 415.996 405.464 414.928C405.722 413.86 406.652 412.919 408.259 412.095C413.111 409.609 415.537 408.365 420.397 405.875C422.075 405.016 423.558 404.348 424.844 403.872C426.129 403.4 427.416 403.143 428.643 403.055C430.104 402.951 431.61 403.071 433.104 403.485C434.6 403.898 435.979 404.563 437.249 405.486C438.518 406.409 439.611 407.523 440.516 408.828C442.373 411.505 443.076 414.058 442.615 416.468C442.153 418.881 437.806 423.549 437.806 423.549C437.844 423.653 441.618 423.917 443.778 424.631C445.941 425.347 448.032 426.208 450.051 427.219C452.072 428.231 453.78 429.2 455.17 430.126C456.56 431.053 457.41 431.744 457.726 432.193C458.055 432.66 458.223 433.197 458.227 433.816C458.229 434.437 458.047 435.02 457.68 435.565C457.315 436.109 456.765 436.569 456.038 436.938C455.172 437.381 454.312 437.559 453.46 437.483C452.608 437.407 451.775 437.19 450.948 436.827C450.12 436.465 448.951 435.901 447.44 435.137C444.874 433.843 443.591 433.187 441.029 431.871C438.704 430.65 436.796 429.79 435.293 429.293C433.788 428.798 432.475 428.602 431.354 428.71C430.231 428.818 428.995 429.214 427.646 429.902ZM421.711 412.506C418.942 413.924 417.558 414.631 414.792 416.049C417.437 420.001 418.774 422 421.449 425.989C424.158 424.605 425.514 423.91 428.224 422.524C430.042 421.594 431.465 420.664 432.498 419.727C433.53 418.788 434.123 417.78 434.275 416.717C434.427 415.655 434.063 414.486 433.187 413.209C432.501 412.21 431.638 411.463 430.595 410.973C429.552 410.481 428.435 410.294 427.254 410.391C426.134 410.483 424.287 411.185 421.711 412.506Z" fill="#1C2C57"/>
<path d="M456.727 386.462C460.585 384.488 464.43 383.525 468.271 383.574C472.111 383.625 475.737 384.642 479.164 386.658C482.59 388.673 485.672 391.555 488.393 395.291C490.405 398.053 491.843 400.764 492.695 403.412C493.547 406.061 493.779 408.605 493.39 411.04C492.999 413.478 491.963 415.709 490.275 417.742C488.588 419.776 486.243 421.553 483.252 423.077C480.278 424.592 477.295 425.508 474.307 425.823C471.319 426.135 468.463 425.888 465.735 425.061C463.007 424.233 460.426 422.87 457.998 420.964C455.569 419.06 453.41 416.749 451.516 414.047C449.579 411.282 448.221 408.534 447.436 405.815C446.649 403.097 446.474 400.548 446.907 398.156C447.34 395.763 448.376 393.582 450.012 391.603C451.649 389.626 453.885 387.915 456.727 386.462ZM480.617 399.192C478.722 396.575 476.641 394.534 474.374 393.076C472.109 391.617 469.805 390.827 467.464 390.691C465.124 390.554 462.897 391.03 460.776 392.116C459.266 392.888 458.056 393.87 457.162 395.065C456.264 396.262 455.726 397.607 455.535 399.117C455.344 400.629 455.549 402.332 456.161 404.225C456.771 406.121 457.791 408.087 459.223 410.111C460.67 412.153 462.247 413.863 463.956 415.233C465.664 416.604 467.403 417.574 469.16 418.147C470.919 418.722 472.629 418.943 474.294 418.819C475.96 418.695 477.558 418.246 479.093 417.465C481.059 416.464 482.537 415.087 483.515 413.333C484.495 411.577 484.765 409.493 484.335 407.07C483.906 404.65 482.666 402.022 480.617 399.192Z" fill="#1C2C57"/>
<path d="M507.157 389.338C506.082 389.887 505.548 390.161 504.474 390.707C507.846 395.286 509.54 397.576 512.891 402.065C513.994 403.542 514.446 404.802 514.257 405.854C514.066 406.908 513.402 407.72 512.261 408.301C511.032 408.927 509.807 409.049 508.592 408.669C507.378 408.289 506.251 407.4 505.199 405.983C497.202 395.221 493.068 389.492 485.176 378.689C484.057 377.156 483.616 375.868 483.853 374.814C484.09 373.76 485.033 372.811 486.673 371.972C491.627 369.442 494.106 368.18 499.087 365.639C500.806 364.762 502.326 364.081 503.647 363.592C504.968 363.104 506.287 362.826 507.554 362.718C509.061 362.591 510.62 362.685 512.167 363.074C513.715 363.463 515.145 364.106 516.464 365.008C517.783 365.91 518.92 367.006 519.869 368.295C521.817 370.938 522.581 373.467 522.157 375.868C521.731 378.27 517.392 382.951 517.392 382.951C517.431 383.055 521.31 383.276 523.536 383.969C525.764 384.662 527.918 385.507 530.002 386.494C532.087 387.48 533.846 388.423 535.28 389.33C536.714 390.237 537.596 390.909 537.928 391.349C538.275 391.807 538.455 392.337 538.475 392.947C538.491 393.557 538.323 394.134 537.965 394.673C537.608 395.212 537.064 395.667 536.337 396.036C535.471 396.478 534.602 396.664 533.736 396.597C532.87 396.529 532.014 396.317 531.164 395.967C530.313 395.617 529.112 395.076 527.551 394.335C524.901 393.08 523.568 392.442 520.914 391.163C518.504 389.975 516.526 389.139 514.973 388.661C513.419 388.184 512.068 388.006 510.923 388.122C509.775 388.239 508.518 388.644 507.157 389.338ZM500.572 372.174C497.747 373.615 496.336 374.335 493.519 375.774C496.354 379.639 497.793 381.603 500.67 385.523C503.412 384.124 504.782 383.424 507.53 382.024C509.372 381.083 510.811 380.141 511.847 379.2C512.885 378.258 513.47 377.261 513.603 376.203C513.736 375.146 513.343 373.983 512.417 372.726C511.692 371.741 510.781 371.016 509.697 370.542C508.614 370.068 507.461 369.886 506.246 369.999C505.093 370.105 503.201 370.832 500.572 372.174Z" fill="#1C2C57"/>
<path d="M554.009 473.379C551.055 474.961 548.251 475.349 545.599 474.544C542.947 473.738 540.827 471.855 539.244 468.899C537.036 464.772 537.365 460.789 540.232 456.943L541.619 457.87C540.31 459.383 539.577 461.059 539.417 462.898C539.258 464.739 539.658 466.556 540.62 468.353C541.972 470.879 543.754 472.451 545.963 473.066C548.171 473.68 550.588 473.285 553.212 471.88C555.404 470.708 556.84 469.125 557.526 467.133C558.074 465.598 558.316 463.179 558.256 459.875C558.244 455.942 558.477 453.145 558.953 451.48C559.612 449.199 561.037 447.473 563.23 446.301C565.489 445.092 567.767 444.878 570.064 445.659C572.362 446.441 574.18 448.078 575.514 450.573C577.134 453.598 577.198 456.475 575.702 459.199L574.39 458.427C575.628 456.18 575.536 453.725 574.111 451.066C573.025 449.037 571.588 447.753 569.803 447.212C568.018 446.669 566.112 446.941 564.085 448.025C561.695 449.305 560.36 451.517 560.077 454.664C560.068 454.967 560.028 457.043 559.952 460.893C559.962 464.267 559.605 466.79 558.877 468.464C558.025 470.46 556.403 472.099 554.009 473.379Z" fill="#1C2C57"/>
<path d="M584.794 511.068C579.818 513.73 574.641 514.202 569.263 512.482C563.884 510.762 559.841 507.376 557.134 502.319C555.817 499.858 555.012 497.282 554.726 494.593C554.437 491.902 554.676 489.237 555.442 486.603C557.019 481.18 560.278 477.147 565.221 474.502C570.26 471.804 575.441 471.3 580.759 472.987C586.079 474.675 590.112 478.079 592.853 483.199C595.613 488.355 596.216 493.592 594.67 498.914C593.922 501.58 592.704 503.946 591.012 506.007C589.32 508.067 587.248 509.754 584.794 511.068ZM583.83 509.209C588.478 506.722 591.56 503.017 593.072 498.1C594.582 493.183 594.111 488.429 591.656 483.841C589.216 479.284 585.531 476.273 580.6 474.804C575.67 473.335 570.881 473.846 566.232 476.333C561.618 478.804 558.541 482.483 557.013 487.366C555.484 492.25 555.956 497.002 558.431 501.626C560.887 506.214 564.581 509.243 569.51 510.712C574.44 512.181 579.215 511.679 583.83 509.209Z" fill="#1C2C57"/>
<path d="M581.91 546.562L580.862 544.65L591.237 522.984L589.568 519.869L572.508 529.001L571.627 527.355L605.749 509.091L608.819 514.827C612.666 522.01 611.61 527.196 605.657 530.382C603.03 531.789 600.572 532.034 598.286 531.119C596 530.203 593.938 528.034 592.107 524.609L581.91 546.562ZM604.766 528.42C607.57 526.92 609.172 525.184 609.577 523.214C609.982 521.243 609.321 518.646 607.593 515.417L605.431 511.379L590.616 519.309L592.778 523.349C594.488 526.542 596.173 528.529 597.835 529.307C599.72 530.181 602.029 529.885 604.766 528.42Z" fill="#1C2C57"/>
<path d="M595.154 571.304L594.107 569.393L604.481 547.727L602.814 544.611L585.752 553.743L584.871 552.097L618.992 533.833L622.065 539.569C625.908 546.752 624.855 551.938 618.901 555.124C616.276 556.532 613.818 556.776 611.53 555.862C609.242 554.946 607.184 552.776 605.349 549.351L595.154 571.304ZM618.012 553.162C620.815 551.662 622.414 549.926 622.821 547.956C623.226 545.985 622.565 543.388 620.837 540.159L618.675 536.121L603.86 544.051L606.023 548.091C607.732 551.284 609.419 553.271 611.081 554.049C612.962 554.923 615.275 554.628 618.012 553.162Z" fill="#1C2C57"/>
<path d="M642.625 577.981L618.49 576.655L602.576 585.173L601.693 583.527L617.61 575.007L629.834 554.087L630.899 556.08L619.19 575.217L641.664 576.17L642.625 577.981Z" fill="#1C2C57"/>
<path d="M614.425 605.269C613.958 605.519 613.47 605.566 612.959 605.412C612.45 605.257 612.07 604.947 611.821 604.482C611.571 604.016 611.524 603.528 611.679 603.018C611.833 602.508 612.142 602.127 612.609 601.878C613.076 601.629 613.564 601.581 614.073 601.735C614.583 601.891 614.964 602.2 615.212 602.665C615.481 603.164 615.541 603.657 615.392 604.141C615.248 604.627 614.924 605.002 614.425 605.269ZM620.525 600.72L619.777 599.323L647.165 584.662L647.914 586.059L620.525 600.72Z" fill="#1C2C57"/>
<path d="M515.538 495.577C512.345 497.285 509.551 497.604 507.16 496.532C504.767 495.459 502.574 493.06 500.581 489.334L498.15 484.796L482.087 493.394L481.205 491.75L515.329 473.483L518.612 479.619C519.7 481.649 520.448 483.268 520.863 484.481C521.274 485.692 521.39 487.009 521.212 488.432C520.821 491.38 518.929 493.762 515.538 495.577ZM514.3 493.866C515.737 493.097 516.876 492.184 517.716 491.138C518.554 490.091 519.088 488.96 519.321 487.745C519.553 486.53 519.452 485.276 519.023 483.989C518.591 482.7 517.788 480.96 516.613 478.763L515.011 475.771L499.349 484.155L500.951 487.147C502.998 490.973 504.857 493.401 506.527 494.432C508.594 495.721 511.185 495.533 514.3 493.866Z" fill="#1C2C57"/>
<path d="M504.947 536.097L503.914 534.242L513.642 523.208L505.307 507.636L490.636 509.383L489.805 507.811L531.782 503.953L504.947 536.097ZM514.639 522.191L529.284 505.092L506.746 507.447L514.639 522.191Z" fill="#1C2C57"/>
<path d="M540.155 563.265L540.454 563.106C535.082 565.98 530.079 566.755 525.443 565.427C520.809 564.099 517.101 560.843 514.325 555.655C511.547 550.467 510.946 545.4 512.52 540.447C514.093 535.499 517.554 531.593 522.891 528.736C528.065 525.965 533.194 525.284 538.276 526.692C543.361 528.101 547.257 531.331 549.963 536.386C551.743 539.71 552.719 542.868 552.894 545.856C553.069 548.843 552.397 551.618 550.882 554.186L549.225 553.595C551.826 548.224 551.702 542.877 548.856 537.557C546.363 532.9 542.759 529.952 538.042 528.713C533.327 527.471 528.496 528.173 523.556 530.817C518.949 533.285 515.906 536.828 514.433 541.445C512.96 546.065 513.443 550.651 515.881 555.207C518.16 559.465 521.316 562.235 525.351 563.519C529.386 564.803 533.574 564.286 537.918 561.96L531.322 549.638L532.519 548.998L540.155 563.265Z" fill="#1C2C57"/>
<path d="M536.348 594.76L527.748 578.697L561.872 560.431L570.469 576.494L569.022 577.27L561.303 562.853L548.484 569.715L556.202 584.132L554.756 584.906L547.038 570.489L530.077 579.568L537.794 593.985L536.348 594.76Z" fill="#1C2C57"/>
<path d="M440.378 547.939L456.851 506.904L426.621 523.085L425.74 521.439L460.031 503.083L443.635 544.078L473.266 528.215L474.147 529.863L440.378 547.939Z" fill="#1C2C57"/>
<path d="M480.456 582.77C475.482 585.433 470.303 585.905 464.925 584.185C459.546 582.464 455.503 579.077 452.796 574.022C451.479 571.56 450.676 568.984 450.388 566.295C450.1 563.604 450.338 560.938 451.104 558.305C452.681 552.882 455.94 548.849 460.883 546.204C465.922 543.506 471.103 543.002 476.421 544.687C481.741 546.376 485.772 549.779 488.515 554.901C491.273 560.057 491.878 565.294 490.332 570.616C489.584 573.283 488.366 575.648 486.676 577.708C484.982 579.77 482.91 581.456 480.456 582.77ZM479.492 580.91C484.14 578.422 487.222 574.72 488.734 569.803C490.244 564.886 489.774 560.132 487.318 555.543C484.878 550.987 481.193 547.976 476.264 546.507C471.333 545.037 466.543 545.548 461.894 548.036C457.28 550.506 454.203 554.184 452.676 559.069C451.146 563.953 451.618 568.705 454.094 573.329C456.549 577.917 460.243 580.946 465.172 582.415C470.102 583.884 474.878 583.382 479.492 580.91Z" fill="#1C2C57"/>
<path d="M508 596.583L502.74 586.756L470.066 604.246L469.186 602.601L501.86 585.112L496.598 575.283L498.046 574.507L509.448 595.809L508 596.583Z" fill="#1C2C57"/>
<path d="M411.546 549.703L403.828 535.286L391.008 542.148L398.432 556.015L396.985 556.79L389.561 542.923L371.154 552.776L370.271 551.13L404.396 532.864L412.994 548.927L411.546 549.703Z" fill="#1C2C57"/>
<path d="M418.473 600.29C413.499 602.953 408.32 603.425 402.942 601.705C397.563 599.984 393.52 596.597 390.813 591.542C389.496 589.081 388.693 586.505 388.406 583.814C388.116 581.123 388.355 578.46 389.121 575.825C390.698 570.403 393.958 566.37 398.9 563.725C403.939 561.027 409.119 560.521 414.438 562.208C419.758 563.896 423.789 567.3 426.532 572.422C429.291 577.578 429.895 582.816 428.349 588.136C427.601 590.804 426.383 593.168 424.693 595.228C422.999 597.29 420.927 598.977 418.473 600.29ZM417.511 598.432C422.157 595.943 425.239 592.24 426.751 587.321C428.263 582.406 427.791 577.652 425.335 573.064C422.897 568.506 419.21 565.496 414.281 564.025C409.351 562.558 404.561 563.069 399.911 565.556C395.297 568.028 392.22 571.704 390.693 576.588C389.163 581.471 389.635 586.223 392.111 590.847C394.567 595.437 398.26 598.466 403.19 599.933C408.119 601.404 412.894 600.902 417.511 598.432Z" fill="#1C2C57"/>
<path d="M430.959 633.972C426.408 636.407 422.476 637.22 419.155 636.407C415.838 635.595 413.084 633.145 410.895 629.055C406.549 620.939 408.893 614.465 417.926 609.629L439.348 598.163L440.229 599.809L417.764 611.834C413.978 613.86 411.62 616.224 410.695 618.922C409.77 621.622 410.269 624.767 412.191 628.36C415.946 635.376 421.562 636.884 429.032 632.885L451.497 620.86L452.38 622.506L430.959 633.972Z" fill="#1C2C57"/>
<path d="M437.567 676L454.039 634.964L423.81 651.148L422.928 649.502L457.221 631.146L440.824 672.138L470.456 656.277L471.338 657.923L437.567 676Z" fill="#1C2C57"/>
<path d="M472.891 701.888C466.526 705.295 460.875 705.859 455.931 703.587C453.622 702.554 451.582 700.908 449.817 698.645C448.608 697.11 447.105 694.662 445.307 691.304L441.967 685.068L476.091 666.802L478.626 671.54C480.709 675.434 482.049 678.137 482.65 679.657C483.701 682.345 484.157 684.797 484.015 687.013C483.856 689.921 482.813 692.671 480.883 695.266C478.952 697.862 476.285 700.07 472.891 701.888ZM471.952 700.015C474.484 698.661 476.579 697.112 478.237 695.367C479.896 693.622 481.096 691.762 481.837 689.783C482.732 687.292 482.813 684.725 482.085 682.078C481.556 680.135 480.313 677.334 478.358 673.678L475.872 669.037L444.046 686.072L447.038 691.661C448.604 694.587 449.824 696.628 450.703 697.786C452.017 699.52 453.513 700.793 455.19 701.608C457.448 702.708 460.035 703.132 462.944 702.881C465.85 702.63 468.856 701.674 471.952 700.015Z" fill="#1C2C57"/>
<path d="M570.664 426.073L575.628 380.169L594.998 401.895L618.497 388.882L617.266 400.268L570.664 426.073ZM576.379 382.515L571.865 424.265L616.327 399.645L617.295 390.69L594.783 403.156L576.379 382.515Z" fill="#1C2C57"/>
<path d="M521.213 296.281C521.199 296.309 521.189 296.339 521.175 296.368C521.172 296.374 521.168 296.38 521.166 296.386L554.21 333.446L560.609 274.247C560.609 274.247 523.242 295.084 521.213 296.281ZM553.458 331.1L522.569 296.457L559.408 276.056L553.458 331.1Z" fill="#1C2C57"/>
<path d="M596.756 380.624L620.826 367.294L618.36 390.098L594.742 403.178L596.756 380.624ZM597.695 381.247L595.489 401.621L617.422 389.475L619.625 369.103L597.695 381.247Z" fill="#1C2C57"/>
<path d="M597.119 381.566L577.801 359.901L624.469 333.633L620.695 368.509L597.119 381.566ZM579.126 359.884L597.334 380.304L619.757 367.886L623.268 335.441L579.126 359.884Z" fill="#1C2C57"/>
<path d="M521.172 296.398C521.344 296.577 521.503 296.766 521.643 296.969L560.478 275.462L567.644 209.194L521.172 296.398ZM559.539 274.839L523.015 295.066L566.093 214.23L559.539 274.839Z" fill="#1C2C57"/>
<path d="M820.062 68.7852L596.093 192.812L595.866 192.938L577.812 359.938L578.219 360.386L624.337 334.849L628.675 294.69C630.74 275.596 635.12 264.085 641.706 260.43V260.43L641.738 260.413C642.118 260.203 642.516 260.015 642.921 259.854L642.89 259.774L809.681 167.41L809.907 167.284L820.5 69.3023C820.341 69.1399 820.194 68.9682 820.062 68.7852ZM808.97 166.661L641.446 259.431C634.343 263.139 629.835 274.665 627.681 294.583L623.398 334.226L578.936 358.846L596.804 193.561L819.387 70.3028L808.97 166.661Z" fill="#1C2C57"/>
<path d="M596.228 193.881L567.783 161.983L792.336 37.6357L820.095 68.7677L820.488 69.2087L820.508 69.2314L820.456 69.7109L820.229 69.8365L596.228 193.881ZM569.362 162.252L596.442 192.619L819.197 69.2646L792.121 38.8974L569.362 162.252Z" fill="#1C2C57"/>
<path d="M571.187 425.833L546.241 397.86L550.98 354.031L496.773 293.239L498.934 273.719L568.5 161.284L596.856 193.082L596.832 193.303L578.857 359.583L597.747 380.768L595.36 402.824L594.782 403.156L594.367 402.691L576.378 382.514L571.733 425.48L571.187 425.833ZM547.283 397.526L570.888 423.996L575.627 380.168L594.513 401.352L596.705 381.102L577.815 359.917L577.839 359.696L595.814 193.416L568.646 162.95L499.844 274.148L497.815 292.905L552.022 353.697L547.283 397.526ZM554.21 333.445L521.174 296.394L521.337 296.086L567.644 209.194L554.21 333.445ZM522.384 296.249L553.458 331.099L566.094 214.229L522.384 296.249Z" fill="#1C2C57"/>
<path d="M689.856 548.644C681.933 548.644 670.45 540.104 654.982 522.755C636.729 502.288 624.907 482.776 619.844 464.761C614.786 446.75 613.397 426.736 615.716 405.277L627.682 294.583C629.946 273.649 634.81 261.985 642.554 258.925C650.315 255.828 662.971 264.287 681.241 284.774C699.139 304.847 710.963 323.84 716.385 341.225C721.809 358.617 723.432 377.874 721.207 398.461L709.241 509.154C706.928 530.547 701.891 543.473 694.27 547.577C692.945 548.288 691.474 548.644 689.856 548.644ZM645.896 259.313C644.819 259.313 643.829 259.493 642.923 259.854C635.658 262.725 630.865 274.446 628.676 294.691L616.71 405.384C614.405 426.716 615.783 446.602 620.807 464.491C625.829 482.358 637.578 501.737 655.728 522.089C673.749 542.301 686.558 550.578 693.797 546.696C701.11 542.758 705.971 530.091 708.247 509.046L720.213 398.353C722.423 377.904 720.814 358.783 715.43 341.523C710.051 324.275 698.297 305.406 680.495 285.439C665.009 268.076 653.398 259.313 645.896 259.313ZM670.737 509.334C670.189 509.334 669.627 509.243 669.051 509.06C666.907 508.481 664.936 507.307 663.212 505.577C661.636 504.201 658.95 501.388 655.254 497.242C651.555 493.095 648.464 488.425 646.066 483.36C641.365 473.552 640.126 457.987 642.382 437.099C642.421 436.758 642.46 436.407 642.495 436.057L654.705 323.114C656.01 311.049 658.002 303.773 660.794 300.873C663.663 297.89 666.585 297.376 669.476 299.342C672.177 301.187 674.963 303.71 677.758 306.841C680.582 310.01 682.666 312.49 684.128 314.425C693.448 326.76 696.941 344.415 694.509 366.901L682.217 480.625C680.481 496.673 677.625 505.787 673.485 508.488C672.622 509.051 671.702 509.334 670.737 509.334ZM666.03 299.184C664.54 299.184 663.045 299.976 661.514 301.566C658.918 304.263 656.962 311.549 655.699 323.222L643.489 436.162C643.454 436.512 643.415 436.867 643.376 437.21C641.14 457.907 642.349 473.291 646.968 482.93C649.327 487.911 652.365 492.502 656 496.576C659.67 500.692 662.326 503.475 663.895 504.848C665.518 506.475 667.339 507.562 669.333 508.101C670.659 508.519 671.833 508.372 672.939 507.65C676.757 505.159 679.545 496.03 681.223 480.516L681.322 479.597L693.515 366.793C695.918 344.569 692.491 327.153 683.33 315.027C681.904 313.141 679.779 310.611 677.012 307.507C674.271 304.436 671.545 301.967 668.913 300.168C667.948 299.512 666.99 299.184 666.03 299.184Z" fill="#1C2C57"/>
<path d="M694.271 547.577L693.792 546.699L693.797 546.696L694.009 546.579C694.355 546.383 694.707 546.158 695.076 545.898C695.154 545.844 695.228 545.783 695.303 545.722L695.536 545.541C695.773 545.355 696.042 545.148 696.305 544.915C696.412 544.819 696.517 544.715 696.621 544.61L696.92 544.316C697.116 544.126 697.303 543.94 697.487 543.743C698.058 543.115 698.619 542.396 699.21 541.541C699.398 541.272 699.548 541.056 699.696 540.826L699.799 540.667C700.357 539.777 700.92 538.749 701.474 537.609L701.713 537.116C701.834 536.855 701.956 536.588 702.077 536.316L702.12 536.217C702.326 535.749 702.525 535.272 702.721 534.777L702.936 534.241C703.195 533.564 703.446 532.863 703.693 532.134L703.723 532.044L703.847 531.657C704.059 531.004 704.249 530.38 704.439 529.742L704.464 529.656C704.535 529.419 704.603 529.18 704.669 528.941L704.691 528.859L704.799 528.457C705.164 527.115 705.493 525.777 705.799 524.407C705.846 524.216 705.888 524.034 705.93 523.849L705.94 523.793C706.239 522.419 706.529 520.925 706.827 519.225L706.89 518.853C707.273 516.61 707.609 514.307 707.902 511.939C708.022 510.991 708.138 510.033 708.248 509.046L720.214 398.354C720.403 396.578 720.539 394.795 720.67 393.07L720.693 392.769C722.073 374.381 720.303 357.14 715.431 341.523C710.052 324.275 698.298 305.406 680.496 285.44C679.176 283.962 677.821 282.483 676.232 280.788C675.755 280.28 675.283 279.776 674.816 279.286C672.955 277.339 671.163 275.54 669.451 273.894L668.79 273.256C668.087 272.591 667.435 271.989 666.79 271.398L666.341 270.99C666.115 270.783 665.89 270.577 665.668 270.38L665.181 269.942C664.524 269.366 663.898 268.842 663.272 268.322C662.014 267.271 660.892 266.379 659.838 265.594C659.137 265.076 658.468 264.597 657.808 264.147C657.122 263.679 656.453 263.257 655.796 262.857L655.643 262.758C655.608 262.735 655.572 262.712 655.537 262.69L655.473 262.651C655.469 262.649 655.464 262.646 655.46 262.644L655.234 262.512C655.124 262.449 655.014 262.389 654.904 262.328L654.519 262.113C654.13 261.894 653.739 261.674 653.365 261.481L652.963 261.282C652.957 261.279 652.95 261.275 652.943 261.272L652.929 261.265C652.328 260.97 651.744 260.709 651.194 260.487C650.502 260.212 649.834 259.985 649.198 259.807H649.148L649.035 259.753C648.923 259.733 648.725 259.696 648.528 259.658L648.288 259.612C647.904 259.531 647.526 259.454 647.164 259.409C646.811 259.368 646.469 259.347 646.134 259.339L646.019 259.336C645.875 259.333 645.73 259.33 645.589 259.335C645.399 259.342 645.218 259.364 645.035 259.386L644.807 259.409C644.576 259.44 644.29 259.479 644.018 259.542L643.956 259.554C643.612 259.635 643.253 259.725 642.922 259.856C642.517 260.016 642.118 260.205 641.736 260.415C641.727 260.42 641.717 260.426 641.708 260.431L641.223 259.556C641.232 259.551 641.241 259.546 641.25 259.541C715.794 218.26 790.331 176.983 864.878 135.703C865.316 135.46 865.765 135.248 866.212 135.074C866.506 134.954 866.82 134.852 867.14 134.765C867.213 134.746 867.29 134.735 867.369 134.725C867.758 134.645 868.068 134.601 868.382 134.564C868.435 134.558 868.491 134.546 868.546 134.535C868.664 134.512 868.78 134.49 868.903 134.482C868.968 134.477 869.044 134.48 869.117 134.481L869.222 134.483C869.389 134.477 869.559 134.481 869.724 134.485L869.974 134.486C870.096 134.484 870.219 134.482 870.346 134.491C870.481 134.502 870.617 134.521 870.753 134.54L870.96 134.568C871.162 134.591 871.277 134.604 871.391 134.622L871.496 134.635C871.558 134.641 871.62 134.648 871.682 134.66C872.085 134.732 872.501 134.825 872.927 134.936L872.926 135.457L873.051 134.973L873.179 135.012C873.554 135.122 873.848 135.206 874.153 135.309C874.349 135.375 874.551 135.453 874.753 135.531L875.297 135.738C875.79 135.937 876.203 136.118 876.624 136.316C876.714 136.358 876.809 136.407 876.904 136.455L877.07 136.539C877.188 136.596 877.305 136.655 877.422 136.715L877.571 136.788C877.679 136.842 877.787 136.895 877.899 136.954C878.333 137.182 878.775 137.428 879.224 137.69L879.653 137.951C880.011 138.163 880.309 138.341 880.615 138.534C880.901 138.715 881.195 138.912 881.488 139.109L882.081 139.501C882.6 139.854 883.123 140.227 883.658 140.617L885.378 141.919C885.635 142.119 885.898 142.331 886.16 142.543L887.253 143.424C887.937 143.991 888.625 144.577 889.329 145.192L890.246 146.015C890.706 146.423 891.167 146.832 891.636 147.268L892.018 147.627C892.386 147.97 892.759 148.326 893.129 148.679L893.555 149.08C893.768 149.278 893.98 149.477 894.196 149.687L894.805 150.292C895.234 150.711 895.668 151.143 896.102 151.577L896.437 151.909C896.624 152.094 896.811 152.278 897.004 152.473L897.735 153.23C898.214 153.724 898.699 154.229 899.189 154.741L900.828 156.475C901.299 156.978 901.768 157.487 902.245 158.006L903.139 158.972C903.718 159.61 904.302 160.26 904.894 160.922C905.325 161.406 905.756 161.89 906.177 162.372C906.488 162.725 906.794 163.079 907.101 163.434L908.742 165.328C909.457 166.165 910.157 166.996 910.849 167.827L911.977 169.194C912.2 169.465 912.424 169.735 912.643 170.005C913.131 170.603 913.612 171.2 914.088 171.798L915.396 173.449C915.774 173.935 916.15 174.42 916.523 174.904L922.973 183.754L923.641 184.735C923.867 185.066 924.091 185.4 924.314 185.733L927.345 190.445C927.847 191.259 928.309 192.018 928.759 192.773L929.224 193.556C929.333 193.743 929.406 193.874 929.481 194.007L929.584 194.192C930.072 195.032 930.558 195.874 931.023 196.712L931.766 198.068C931.942 198.394 932.116 198.722 932.29 199.051C932.432 199.319 932.57 199.586 932.709 199.855C932.825 200.075 932.94 200.299 933.054 200.524L936.215 207.184C936.226 207.201 936.246 207.251 936.267 207.299L936.321 207.424C936.405 207.614 936.467 207.756 936.524 207.897C936.624 208.125 936.725 208.364 936.824 208.602C936.924 208.837 937.023 209.074 937.12 209.312L937.47 210.172C937.54 210.352 937.609 210.524 937.679 210.697L937.823 211.069C937.936 211.352 938.05 211.649 938.161 211.945C938.3 212.308 938.436 212.672 938.566 213.035C938.689 213.365 938.808 213.699 938.925 214.033L938.972 214.171C939.1 214.523 939.225 214.888 939.349 215.25L939.404 215.412C939.561 215.881 939.714 216.343 939.86 216.806L940.428 218.638C940.649 219.382 940.864 220.126 941.074 220.874C941.298 221.681 941.519 222.491 941.728 223.303L941.942 224.182C942.093 224.786 942.235 225.352 942.367 225.917C942.587 226.844 942.792 227.776 942.988 228.713C943.087 229.177 943.178 229.647 943.269 230.117L943.583 231.707C943.783 232.788 943.968 233.868 944.142 234.952C944.24 235.579 944.327 236.209 944.416 236.838L944.654 238.495C944.826 239.788 944.976 241.096 945.111 242.411C945.148 242.774 945.177 243.139 945.206 243.504L945.256 244.11C945.295 244.549 945.334 244.991 945.369 245.432C945.386 245.645 945.405 245.854 945.425 246.063C945.448 246.323 945.473 246.582 945.49 246.843C945.605 248.482 945.693 250.194 945.75 251.93C945.754 252.074 945.754 252.182 945.755 252.291L945.757 252.505C945.818 254.408 945.842 256.182 945.831 257.924C945.831 258.066 945.826 258.213 945.82 258.361L945.81 258.674C945.799 259.56 945.767 260.456 945.735 261.353L945.707 262.15C945.696 262.511 945.689 262.873 945.681 263.234C945.666 263.888 945.653 264.541 945.618 265.203C945.606 265.428 945.59 265.653 945.574 265.877L945.54 266.357C945.522 266.713 945.495 267.075 945.47 267.437L945.449 267.738C945.285 270.191 945.096 272.403 944.87 274.499L944.86 274.611L936.331 353.527L936.104 353.653L804.408 426.579L747.907 517.874L747.792 517.938L694.501 547.449C694.425 547.493 694.348 547.535 694.271 547.577ZM700.435 541.523C700.313 541.706 700.19 541.883 700.068 542.059C699.524 542.846 699.024 543.501 698.528 544.077L747.194 517.126L803.695 425.831L803.809 425.768L935.393 352.904L943.876 274.399C944.1 272.309 944.289 270.11 944.451 267.669L944.472 267.366C944.498 267.009 944.523 266.653 944.543 266.298L944.577 265.805C944.592 265.585 944.608 265.367 944.621 265.149C944.654 264.5 944.668 263.856 944.681 263.213C944.689 262.848 944.697 262.484 944.708 262.118L944.736 261.316C944.768 260.428 944.799 259.539 944.81 258.66L944.821 258.321C944.826 258.186 944.831 258.053 944.831 257.921C944.841 256.189 944.818 254.427 944.757 252.531L944.755 252.294C944.754 252.198 944.754 252.101 944.75 252.005C944.694 250.239 944.607 248.539 944.493 246.911C944.476 246.657 944.453 246.406 944.429 246.156C944.41 245.941 944.389 245.725 944.372 245.509C944.338 245.073 944.299 244.634 944.26 244.197L944.209 243.583C944.181 243.225 944.152 242.867 944.117 242.513C943.982 241.208 943.834 239.91 943.662 238.621L943.426 236.977C943.338 236.353 943.25 235.727 943.154 235.108C942.982 234.034 942.799 232.961 942.602 231.893L942.553 231.651C942.522 231.497 942.491 231.345 942.463 231.191L942.287 230.306C942.198 229.843 942.108 229.379 942.01 228.919C941.816 227.99 941.613 227.066 941.394 226.145C941.263 225.584 941.122 225.025 940.982 224.468L940.758 223.548C940.552 222.745 940.333 221.942 940.112 221.143C939.904 220.4 939.688 219.661 939.47 218.925L938.908 217.106C938.763 216.65 938.612 216.193 938.457 215.733L938.403 215.573C938.28 215.214 938.157 214.854 938.029 214.493L937.982 214.364C937.867 214.037 937.75 213.708 937.627 213.379C937.496 213.016 937.363 212.658 937.226 212.298C937.117 212.006 937.004 211.715 936.889 211.424L936.745 211.054C936.68 210.895 936.609 210.717 936.54 210.539L936.194 209.688C936.1 209.456 936.002 209.223 935.904 208.99C935.805 208.755 935.706 208.52 935.605 208.287C935.545 208.143 935.488 208.009 935.428 207.875L932.165 200.981C932.051 200.756 931.939 200.537 931.823 200.316C931.684 200.047 931.547 199.784 931.407 199.518C931.234 199.192 931.061 198.866 930.885 198.541L930.184 197.262C929.687 196.364 929.203 195.528 928.717 194.689L928.608 194.495C928.538 194.37 928.469 194.246 928.395 194.121L927.901 193.285C927.452 192.533 926.993 191.779 926.528 191.022L923.48 186.285C923.261 185.958 923.039 185.627 922.814 185.296L918.573 179.29L915.731 175.514C915.36 175.031 914.986 174.548 914.608 174.064L913.299 172.412C912.833 171.826 912.354 171.231 911.867 170.636C911.649 170.366 911.428 170.099 911.206 169.831L910.078 168.463C909.392 167.639 908.694 166.811 907.985 165.98L906.344 164.087C906.04 163.736 905.737 163.384 905.425 163.031C905.004 162.55 904.577 162.069 904.148 161.587C903.558 160.927 902.976 160.279 902.4 159.644L901.51 158.682C901.034 158.165 900.567 157.659 900.099 157.158L898.465 155.43C897.979 154.921 897.496 154.418 897.019 153.927L895.395 152.284C894.963 151.851 894.534 151.423 894.107 151.007L893.5 150.403C893.289 150.198 893.081 150.004 892.873 149.81L892.467 149.429C892.072 149.052 891.701 148.698 891.339 148.361L890.96 148.004C890.493 147.569 890.037 147.165 889.583 146.762L888.738 146.003C887.974 145.335 887.293 144.755 886.62 144.197L885.531 143.32C885.274 143.111 885.017 142.904 884.765 142.707L883.069 141.424C882.543 141.04 882.028 140.674 881.52 140.327L880.933 139.94C880.645 139.747 880.358 139.554 880.08 139.377C879.783 139.19 879.492 139.017 879.201 138.844L878.785 138.592C878.285 138.298 877.857 138.06 877.431 137.837C877.328 137.782 877.23 137.734 877.131 137.686L876.969 137.606C876.854 137.547 876.747 137.492 876.634 137.438L876.447 137.344C876.366 137.302 876.284 137.26 876.203 137.222C875.793 137.029 875.393 136.855 875.002 136.693L874.394 136.463C874.205 136.39 874.015 136.317 873.833 136.255C873.544 136.157 873.265 136.078 872.987 135.999L872.715 135.915C872.274 135.799 871.884 135.711 871.501 135.642L871.395 135.629C871.34 135.623 871.286 135.617 871.23 135.608C871.138 135.593 871.037 135.582 870.934 135.57L870.61 135.529C870.499 135.513 870.386 135.496 870.276 135.488C870.181 135.482 870.086 135.484 869.991 135.485L869.764 135.486C869.552 135.48 869.4 135.477 869.256 135.482C869.198 135.484 869.14 135.482 869.083 135.48C869.046 135.479 869.007 135.476 868.97 135.479C868.887 135.485 868.815 135.5 868.743 135.515C868.665 135.53 868.586 135.546 868.505 135.556C868.22 135.59 867.944 135.628 867.673 135.688C867.614 135.701 867.551 135.71 867.49 135.717C867.121 135.806 866.846 135.895 866.583 136.002C866.171 136.163 865.762 136.355 865.364 136.577C792.067 177.164 718.779 217.749 645.486 258.337C645.509 258.336 645.531 258.335 645.554 258.335C645.713 258.329 645.877 258.333 646.041 258.336L646.153 258.338C646.526 258.348 646.898 258.37 647.281 258.416C647.676 258.464 648.083 258.546 648.49 258.632L648.714 258.675C648.917 258.713 649.12 258.753 649.331 258.807L649.399 258.825C650.09 259.015 650.814 259.26 651.552 259.553C652.118 259.781 652.701 260.041 653.3 260.333H653.352L653.46 260.413L653.759 260.559C654.173 260.769 654.592 261.006 655.01 261.241L655.389 261.453C655.547 261.541 655.706 261.629 655.867 261.722H656.23L656.232 261.948L656.318 262.003C656.987 262.411 657.671 262.842 658.371 263.321C659.041 263.777 659.721 264.264 660.42 264.78C661.504 265.588 662.641 266.491 663.912 267.553C664.544 268.078 665.176 268.608 665.83 269.18L666.298 269.601C666.557 269.831 666.786 270.041 667.016 270.252L667.463 270.658C668.115 271.255 668.771 271.861 669.441 272.496L670.143 273.172C671.866 274.828 673.668 276.637 675.498 278.55C676.009 279.089 676.484 279.594 676.962 280.104C678.556 281.805 679.916 283.289 681.242 284.773C699.14 304.847 710.964 323.84 716.386 341.225C721.296 356.962 723.08 374.33 721.691 392.843L721.668 393.146C721.536 394.878 721.4 396.669 721.208 398.46V398.461L709.242 509.154C709.132 510.148 709.015 511.112 708.894 512.062C708.6 514.445 708.261 516.763 707.886 518.953L707.813 519.393C707.515 521.089 707.226 522.58 706.928 523.953L706.917 524.018C706.87 524.229 706.823 524.433 706.772 524.636C706.467 526.009 706.133 527.363 705.783 528.648L705.651 529.143C705.583 529.387 705.514 529.631 705.443 529.873L705.418 529.962C705.219 530.631 705.02 531.283 704.814 531.916L704.667 532.376C704.407 533.146 704.143 533.885 703.868 534.601L703.64 535.169C703.463 535.62 703.274 536.076 703.077 536.524V536.537L703.018 536.662C702.907 536.913 702.787 537.176 702.667 537.436L702.617 537.547L702.376 538.042C701.772 539.286 701.157 540.4 700.545 541.358L700.435 541.523Z" fill="#1C2C57"/>
<path d="M806.129 690.152L811.092 644.247L830.476 665.984L1032.08 554.343L1030.85 565.707L806.129 690.152ZM811.844 646.593L807.33 688.344L1029.92 565.084L1030.88 556.151L830.261 667.246L811.844 646.593Z" fill="#1C2C57"/>
<path d="M756.801 560.077C756.76 560.216 756.71 560.352 756.652 560.486L789.678 597.524L796.077 538.326L756.801 560.077ZM788.926 595.179L758.037 560.535L794.876 540.135L788.926 595.179Z" fill="#1C2C57"/>
<path d="M832.459 644.588L832.233 644.714C832.233 644.714 830.123 667.131 830.256 667.249L1054.26 543.203L1054.49 543.077L1056.88 521.005C1056.84 520.968 1056.82 520.927 1056.79 520.888C1056.68 520.775 832.459 644.588 832.459 644.588ZM1053.55 542.453L830.968 665.711L833.17 645.337L1055.75 522.077L1053.55 542.453Z" fill="#1C2C57"/>
<path d="M1056.78 520.905L1056.46 520.544L1037.56 499.346L813.559 623.39L832.594 645.656L1056.6 521.61L1056.82 521.485L1056.78 520.905ZM832.809 644.395L814.591 623.962L1037.35 500.607L1055.56 521.038L832.809 644.395Z" fill="#1C2C57"/>
<path d="M756.645 560.47C756.77 560.6 756.881 560.741 756.989 560.885C757.037 560.935 757.088 560.983 757.133 561.036L795.719 539.668L795.945 539.542L803.109 473.272L756.645 560.47ZM795.008 538.919L758.483 559.146L801.559 478.308L795.008 538.919Z" fill="#1C2C57"/>
<path d="M831.558 456.892L831.331 457.018L813.322 623.605C813.477 623.873 813.607 624.155 813.712 624.448L1037.7 500.414L1037.92 500.288L1056.06 332.572L831.558 456.892ZM1036.99 499.665L814.402 622.923L832.269 457.641L1054.85 334.381L1036.99 499.665Z" fill="#1C2C57"/>
<path d="M1027.81 301.724L803.807 425.768L831.693 457.96L1055.7 333.914L1056.25 333.611L1027.81 301.724ZM831.908 456.698L804.839 426.34L1027.6 302.985L1054.67 333.342L831.908 456.698Z" fill="#1C2C57"/>
<path d="M756.643 560.474L789.679 597.524L803.109 473.272L756.806 560.166L756.643 560.474ZM801.559 478.308L788.927 595.179L757.853 560.329L801.559 478.308Z" fill="#1C2C57"/>
<path d="M814.322 623.661L832.298 457.383L832.321 457.163L804.156 425.574L803.693 425.832L803.427 426.26L734.399 537.797L732.242 557.317L786.445 618.109L781.733 661.717L781.71 661.938L806.14 689.339C806.48 689.106 806.859 688.912 807.283 688.775L811.844 646.593L829.847 666.783L830.261 667.246L830.837 666.927L833.223 644.859L814.322 623.661ZM829.992 665.443L811.092 644.248L806.354 688.076L782.751 661.604L787.463 617.996L787.486 617.775L733.284 556.983L735.31 538.227L804.121 427.039L831.28 457.497L813.305 623.774L813.281 623.995L832.182 645.193L829.992 665.443Z" fill="#1C2C57"/>
<path d="M670.737 509.334C670.189 509.334 669.627 509.243 669.052 509.061C666.908 508.482 664.936 507.308 663.212 505.577C661.637 504.2 658.951 501.389 655.254 497.242C651.556 493.096 648.464 488.426 646.066 483.36C641.366 473.553 640.126 457.987 642.382 437.1C642.421 436.758 642.46 436.407 642.495 436.058L654.706 323.115C656.01 311.049 658.002 303.774 660.794 300.873C663.664 297.891 666.585 297.377 669.477 299.342C672.177 301.187 674.963 303.71 677.758 306.841C680.583 310.01 682.666 312.49 684.128 314.425C693.448 326.76 696.941 344.416 694.509 366.901L682.218 480.625C680.481 496.673 677.625 505.788 673.486 508.488C672.622 509.052 671.702 509.334 670.737 509.334ZM666.031 299.185C664.54 299.185 663.045 299.977 661.515 301.566C658.919 304.263 656.962 311.549 655.7 323.222L643.49 436.162C643.454 436.513 643.416 436.867 643.376 437.21C641.141 457.907 642.349 473.291 646.969 482.931C649.327 487.911 652.365 492.502 656 496.576C659.67 500.692 662.326 503.476 663.895 504.849C665.518 506.476 667.34 507.563 669.333 508.102C670.66 508.52 671.833 508.372 672.939 507.65C676.758 505.159 679.545 496.03 681.224 480.517L681.322 479.598L693.515 366.794C695.918 344.569 692.492 327.153 683.33 315.027C681.905 313.141 679.779 310.611 677.012 307.507C674.271 304.436 671.546 301.967 668.913 300.169C667.949 299.513 666.991 299.185 666.031 299.185Z" fill="#1C2C57"/>
<path d="M240.055 558.403L239.827 557.951L6.55469 97.6738L7.44629 97.2217L240.49 557.048L546.531 397.25L546.994 398.137L240.055 558.403Z" fill="#1C2C57"/>
<path d="M570.982 424.653L6.79883 723.601L7.26663 724.483L571.45 425.535L570.982 424.653Z" fill="#1C2C57"/>
<path d="M781.986 661.298L631.031 748.175L631.53 749.042L782.485 662.165L781.986 661.298Z" fill="#1C2C57"/>
<path d="M788.99 749.092L757.584 717.685L806.478 688.816L806.985 689.678L759.203 717.891L789.697 748.385L788.99 749.092Z" fill="#1C2C57"/>
<path d="M1546.36 5.34931L1027.38 301.9L1027.87 302.769L1546.85 6.21743L1546.36 5.34931Z" fill="#1C2C57"/>
<path d="M1433.91 752.27L1240.47 558.827L1240.49 558.591L1276.5 207.583L1051.36 336.294L1050.86 335.426L1277.69 205.749L1277.59 206.717L1241.51 558.456L1434.62 751.563L1433.91 752.27Z" fill="#1C2C57"/>
</svg>
