<svg width="15" height="16" viewBox="0 0 15 16" fill="none" xmlns="http://www.w3.org/2000/svg">
<path d="M8.32867 7.9018L14.8284 1.05387C15.0572 0.812778 15.0572 0.421888 14.8284 0.180822C14.5995 -0.0602432 14.2285 -0.0602741 13.9997 0.180822L7.49998 7.02875L1.00029 0.180822C0.77145 -0.0602741 0.400436 -0.0602741 0.171628 0.180822C-0.05718 0.421919 -0.0572093 0.812809 0.171628 1.05387L6.67133 7.90177L0.171628 14.7497C-0.0572093 14.9908 -0.0572093 15.3817 0.171628 15.6227C0.286032 15.7433 0.436002 15.8035 0.585972 15.8035C0.735943 15.8035 0.885884 15.7433 1.00032 15.6227L7.49998 8.77485L13.9997 15.6227C14.1141 15.7433 14.2641 15.8035 14.414 15.8035C14.564 15.8035 14.7139 15.7433 14.8284 15.6227C15.0572 15.3817 15.0572 14.9908 14.8284 14.7497L8.32867 7.9018Z" fill="#9A9A9A"/>
</svg>
