<svg width="847" height="799" viewBox="0 0 847 799" fill="none" xmlns="http://www.w3.org/2000/svg">
<circle cx="423.5" cy="404.569" r="28.5" stroke="white" stroke-width="10"/>
<line x1="451.738" y1="391.643" x2="653.738" y2="267.643" stroke="white"/>
<line x1="653.845" y1="267.594" x2="819.845" y2="213.594" stroke="white"/>
<line x1="443.47" y1="143.898" x2="518.47" y2="349.898" stroke="white"/>
<line x1="443.501" y1="144.035" x2="453.501" y2="0.0346425" stroke="white"/>
<line x1="331.452" y1="204.855" x2="412.452" y2="375.855" stroke="white"/>
<line x1="343.499" y1="45.1066" x2="331.499" y2="205.107" stroke="white"/>
<line x1="173.431" y1="177.816" x2="301.431" y2="395.816" stroke="white"/>
<line x1="212.486" y1="14.1849" x2="173.486" y2="178.185" stroke="white"/>
<line x1="605.489" y1="118.965" x2="627.489" y2="221.965" stroke="white"/>
<line x1="627.443" y1="221.838" x2="651.443" y2="267.838" stroke="white"/>
<line x1="794.262" y1="119.495" x2="627.262" y2="222.495" stroke="white"/>
<line x1="489.841" y1="267.595" x2="626.841" y2="221.595" stroke="white"/>
<line x1="604.989" y1="118.569" x2="742.987" y2="115.503" stroke="white"/>
<line x1="449.04" y1="65.5709" x2="523.04" y2="71.5709" stroke="white"/>
<line x1="523.249" y1="71.6354" x2="605.249" y2="118.635" stroke="white"/>
<line x1="453.92" y1="170.576" x2="552.92" y2="154.576" stroke="white"/>
<line x1="480.836" y1="240.597" x2="558.836" y2="213.597" stroke="white"/>
<line x1="466.893" y1="204.581" x2="585.893" y2="178.581" stroke="white"/>
<line x1="553.497" y1="155.019" x2="559.497" y2="214.019" stroke="white"/>
<line x1="573.469" y1="143.895" x2="586.469" y2="178.895" stroke="white"/>
<line x1="572.866" y1="143.588" x2="590.866" y2="138.588" stroke="white"/>
<line x1="590.553" y1="138.846" x2="600.553" y2="118.846" stroke="white"/>
<line x1="350.071" y1="240.574" x2="378.071" y2="244.574" stroke="white"/>
<line x1="378.5" y1="247.069" x2="378.5" y2="259.069" stroke="white"/>
<line x1="378" y1="258.569" x2="402" y2="258.569" stroke="white"/>
<line x1="401.593" y1="258.779" x2="411.593" y2="244.779" stroke="white"/>
<line x1="411.911" y1="245.561" x2="389.911" y2="241.561" stroke="white"/>
<line x1="389.503" y1="241.014" x2="393.503" y2="205.014" stroke="white"/>
<line x1="394" y1="204.569" x2="449" y2="204.569" stroke="white"/>
<line x1="449.484" y1="205.195" x2="443.484" y2="228.195" stroke="white"/>
<line x1="443.495" y1="228" x2="449.495" y2="271" stroke="white"/>
<line x1="371.943" y1="280.572" x2="485.943" y2="267.573" stroke="white"/>
<line x1="438.466" y1="270.887" x2="467.466" y2="344.887" stroke="white"/>
<line x1="252.987" y1="195.569" x2="330.987" y2="193.569" stroke="white"/>
<line x1="253.482" y1="196.203" x2="248.482" y2="214.203" stroke="white"/>
<line x1="251.456" y1="216.865" x2="277.456" y2="274.865" stroke="white"/>
<line x1="277.121" y1="275.554" x2="253.121" y2="281.554" stroke="white"/>
<line x1="252.524" y1="281.222" x2="243.524" y2="253.222" stroke="white"/>
<line x1="244.126" y1="253.553" x2="221.126" y2="259.553" stroke="white"/>
<line x1="324.772" y1="290.624" x2="363.772" y2="270.624" stroke="white"/>
<line x1="325.449" y1="290.848" x2="390.449" y2="422.848" stroke="white"/>
<line x1="271.868" y1="344.587" x2="304.868" y2="335.587" stroke="white"/>
<line x1="305.427" y1="335.809" x2="364.427" y2="432.809" stroke="white"/>
<line x1="179.785" y1="521.618" x2="393.785" y2="419.618" stroke="white"/>
<line x1="22.3203" y1="234.685" x2="215.32" y2="395.685" stroke="white"/>
<line x1="214.667" y1="395.697" x2="271.667" y2="344.697" stroke="white"/>
<line x1="39.6967" y1="344.672" x2="77.6967" y2="315.672" stroke="white"/>
<line x1="78.3666" y1="315.729" x2="206.367" y2="453.729" stroke="white"/>
<line x1="205.832" y1="453.599" x2="300.832" y2="419.599" stroke="white"/>
<line x1="301.5" y1="396.069" x2="301.5" y2="420.069" stroke="white"/>
<line x1="301.293" y1="419.664" x2="337.293" y2="445.664" stroke="white"/>
<line x1="31.3467" y1="335.709" x2="163.347" y2="462.709" stroke="white"/>
<line x1="163.208" y1="462.615" x2="233.208" y2="494.615" stroke="white"/>
<line x1="46.1326" y1="445.587" x2="86.1326" y2="456.587" stroke="white"/>
<line x1="86.4341" y1="459.317" x2="82.4341" y2="466.317" stroke="white"/>
<line x1="82.2859" y1="465.659" x2="115.286" y2="488.659" stroke="white"/>
<line x1="114.61" y1="488.757" x2="122.61" y2="478.757" stroke="white"/>
<line x1="123.301" y1="478.67" x2="180.301" y2="521.67" stroke="white"/>
<line x1="237.483" y1="494.939" x2="269.483" y2="613.939" stroke="white"/>
<line x1="269.498" y1="614.027" x2="272.498" y2="649.027" stroke="white"/>
<line x1="272.027" y1="649.569" x2="180.027" y2="654.569" stroke="white"/>
<line x1="179.5" y1="654.069" x2="179.5" y2="632.069" stroke="white"/>
<line x1="179.601" y1="632.371" x2="129.601" y2="566.371" stroke="white"/>
<line x1="129.963" y1="566.568" x2="21.9631" y2="558.568" stroke="white"/>
<line x1="270.977" y1="613.57" x2="334.977" y2="610.57" stroke="white"/>
<line x1="319.491" y1="500.976" x2="323.491" y2="521.976" stroke="white"/>
<line x1="322.918" y1="521.576" x2="352.918" y2="516.576" stroke="white"/>
<line x1="335.436" y1="445.824" x2="353.436" y2="477.824" stroke="white"/>
<line x1="353.5" y1="479.047" x2="361.5" y2="660.047" stroke="white"/>
<line x1="361.11" y1="660.557" x2="272.11" y2="680.557" stroke="white"/>
<line x1="272.5" y1="680.077" x2="271.469" y2="746.077" stroke="white"/>
<line x1="271.324" y1="745.689" x2="332.324" y2="797.689" stroke="white"/>
<line x1="352.836" y1="477.597" x2="444.836" y2="445.597" stroke="white"/>
<line x1="439.453" y1="432.857" x2="548.453" y2="665.857" stroke="white"/>
<line x1="548.487" y1="665.955" x2="579.487" y2="797.955" stroke="white"/>
<line x1="399.451" y1="470.854" x2="409.451" y2="491.854" stroke="white"/>
<line x1="408.786" y1="491.617" x2="522.786" y2="437.617" stroke="white"/>
<line x1="429.822" y1="519.602" x2="471.822" y2="503.602" stroke="white"/>
<line x1="430.456" y1="519.864" x2="439.456" y2="539.864" stroke="white"/>
<line x1="439.489" y1="539.965" x2="457.489" y2="623.965" stroke="white"/>
<line x1="456.894" y1="623.581" x2="493.894" y2="615.581" stroke="white"/>
<line x1="389.785" y1="564.618" x2="456.785" y2="532.618" stroke="white"/>
<line x1="457.457" y1="532.866" x2="494.457" y2="615.866" stroke="white"/>
<line x1="390.5" y1="565.069" x2="390.5" y2="613.069" stroke="white"/>
<line x1="389.898" y1="612.58" x2="475.898" y2="594.58" stroke="white"/>
<line x1="481.473" y1="375.908" x2="498.473" y2="425.908" stroke="white"/>
<line x1="498.051" y1="425.572" x2="818.051" y2="458.572" stroke="white"/>
<line x1="592.5" y1="437.06" x2="595.5" y2="607.06" stroke="white"/>
<line x1="552.906" y1="569.578" x2="594.906" y2="561.578" stroke="white"/>
<line x1="531.878" y1="631.584" x2="630.878" y2="606.584" stroke="white"/>
<line x1="630.968" y1="606.57" x2="817.968" y2="594.57" stroke="white"/>
<line x1="582.44" y1="307.832" x2="610.44" y2="359.832" stroke="white"/>
<line x1="609.851" y1="359.592" x2="657.851" y2="344.592" stroke="white"/>
<line x1="644.491" y1="270.976" x2="658.491" y2="344.976" stroke="white"/>
<line x1="610.486" y1="359.951" x2="621.486" y2="404.951" stroke="white"/>
<line x1="620.946" y1="404.572" x2="657.946" y2="400.572" stroke="white"/>
<line x1="658.498" y1="403.02" x2="662.497" y2="443.02" stroke="white"/>
<line x1="711" y1="300.569" x2="744" y2="300.569" stroke="white"/>
<line x1="744.499" y1="301.037" x2="754.499" y2="455.037" stroke="white"/>
<line x1="711.5" y1="301.069" x2="711.5" y2="446.069" stroke="white"/>
<line x1="768.5" y1="295.056" x2="772.602" y2="455.054" stroke="white"/>
<line x1="767.931" y1="294.574" x2="817.931" y2="287.574" stroke="white"/>
<line x1="749" y1="375.569" x2="770" y2="375.569" stroke="white"/>
<line x1="639.977" y1="532.57" x2="748.977" y2="527.57" stroke="white"/>
<line x1="728.5" y1="446.069" x2="728.5" y2="530.069" stroke="white"/>
<line x1="754.499" y1="455.103" x2="749.499" y2="528.103" stroke="white"/>
<line x1="695.499" y1="446.033" x2="701.499" y2="528.033" stroke="white"/>
<line x1="651.496" y1="446.132" x2="640.496" y2="533.132" stroke="white"/>
<line x1="640.438" y1="533.311" x2="624.438" y2="562.311" stroke="white"/>
<line x1="624.5" y1="565.069" x2="624.5" y2="575.069" stroke="white"/>
<line x1="623.968" y1="574.57" x2="700.968" y2="569.57" stroke="white"/>
<line x1="698.5" y1="531.069" x2="698.5" y2="570.069" stroke="white"/>
<circle cx="134.5" cy="282.569" r="4.5" fill="#008767"/>
<circle cx="449" cy="671.069" r="4" fill="white"/>
<circle cx="708.5" cy="66.5693" r="6.5" fill="white"/>
<circle cx="840.5" cy="389.569" r="6.5" fill="#008767"/>
<circle cx="180.5" cy="686.569" r="6.5" fill="white"/>
<circle cx="213.5" cy="601.569" r="2.5" fill="#008767"/>
<circle cx="109.5" cy="519.569" r="6.5" fill="#008767"/>
<circle cx="3" cy="3" r="3" transform="matrix(1 0 0 -1 654 84.0693)" fill="#008767"/>
<circle cx="817" cy="520.069" r="3" fill="white"/>
<circle cx="292.5" cy="112.569" r="6.5" fill="white"/>
<circle cx="6.5" cy="138.569" r="6.5" fill="white"/>
<circle cx="657.5" cy="676.569" r="6.5" fill="#008767"/>
</svg>
