<svg width="98" height="98" viewBox="0 0 98 98" fill="none" xmlns="http://www.w3.org/2000/svg">
<g clip-path="url(#clip0_277_130)">
<path d="M33.8406 0.555096L33.209 1.11017V6.08674C33.209 11.0633 33.209 11.0633 33.6684 11.561C34.2426 12.1543 35.0656 12.3649 35.8121 12.0586C36.8648 11.6184 36.9414 11.2164 36.9414 6.02931C36.9414 3.15822 36.8648 1.1676 36.75 0.937908C36.5012 0.478533 35.5824 1.71661e-05 34.9508 1.71661e-05C34.6828 1.71661e-05 34.1852 0.248845 33.8406 0.555096Z" fill="#00AF89"/>
<path d="M42.9516 0.650837L42.3008 1.30162V9.26412C42.3008 17.7817 42.3391 18.0688 43.2387 18.5665C43.9852 18.9493 44.9805 18.7961 45.5739 18.2028L46.1289 17.6477V9.58951C46.1289 0.957087 46.1098 0.765682 45.1528 0.268024C44.2914 -0.172209 43.6598 -0.0573654 42.9516 0.650837Z" fill="#00AF89"/>
<path d="M60.1207 4.59381C54.3403 6.10592 50.7992 11.9821 52.1582 17.7817C52.6176 19.6958 53.6703 21.5333 55.2016 23.0645C57.3645 25.2083 59.8336 26.2227 62.877 26.2227C65.9969 26.2227 68.4277 25.2083 70.6481 22.9688C72.8684 20.7294 73.8828 18.3176 73.8828 15.2551C73.8828 8.03912 67.0879 2.77545 60.1207 4.59381ZM65.0973 8.42193C66.7051 8.93873 67.9875 9.89576 68.9063 11.3122C71.2988 15.0063 69.8824 19.9255 65.882 21.7821C64.925 22.2415 64.5422 22.2989 62.877 22.2989C61.1926 22.2989 60.8289 22.2415 59.8719 21.7821C58.4555 21.1313 57.0774 19.734 56.35 18.2794C55.8524 17.2458 55.7949 16.9395 55.7949 15.3126C55.7949 13.6665 55.8524 13.3794 56.3883 12.2501C57.9961 8.88131 61.5754 7.31178 65.0973 8.42193Z" fill="#00AF89"/>
<path d="M32.7305 21.1505C28.6919 22.0501 25.3422 25.3805 24.3852 29.4001C24.1747 30.338 24.0981 31.2376 24.1747 32.5391C24.2895 34.6829 24.768 36.2333 25.859 37.8985C26.261 38.5302 26.6055 39.1044 26.6055 39.1427C26.6055 39.2001 24.3278 39.2384 21.5524 39.2384C17.0544 39.2384 16.3653 39.2766 15.2743 39.6212C11.7524 40.693 9.09185 43.8512 8.61334 47.4688C8.42193 49.0575 8.34537 59.3169 8.53677 60.2739C8.82388 61.7286 10.5083 62.3219 11.6184 61.3649L12.1544 60.9055L12.2692 54.2255C12.3458 48.5216 12.4223 47.4305 12.7094 46.6841C13.1879 45.3825 14.2024 44.3106 15.5614 43.6407L16.7481 43.0665L44.9805 43.1048L73.213 43.1622L74.1317 43.6407C75.2419 44.1958 76.2755 45.2868 76.8305 46.4927C77.2133 47.3157 77.2325 47.7177 77.2899 53.1536L77.3473 58.9341L66.5712 58.9915C56.0247 59.068 55.7758 59.068 54.5317 59.4891C49.0192 61.3266 46.3204 67.5665 48.8278 72.6962C49.5934 74.2657 51.3544 76.1415 52.7899 76.9071C54.9911 78.0938 55.1059 78.0938 66.7626 78.0938H77.3473L77.2899 83.8934L77.2325 89.6739L76.6008 90.9755C76.1415 91.8751 75.7012 92.4493 75.0887 92.9278C73.3469 94.2485 75.2227 94.1911 44.3872 94.1337L16.5567 94.0762L15.6762 93.636C14.4512 93.0427 13.4368 92.0091 12.8434 90.7458L12.3458 89.6739L12.2501 82.9173L12.1544 76.1415L11.695 75.7778C10.9676 75.1844 10.3551 75.127 9.58951 75.529C8.44107 76.1415 8.38365 76.5434 8.47935 83.7403C8.53677 89.5782 8.57506 90.1524 8.95787 91.32C9.76177 93.7509 11.5227 95.7989 13.8196 96.9665C15.9251 98.0384 14.4321 98.0001 48.9235 98.0001C69.7676 98.0001 81.0797 97.9235 81.7497 97.8087C85.061 97.177 87.9321 94.6313 89.0422 91.32L89.4825 90.0567L89.5399 69.6719C89.5782 56.8286 89.5208 48.713 89.4059 47.7177C88.9274 43.7938 86.286 40.6739 82.5153 39.5446C81.5774 39.2766 79.3762 39.2384 62.4368 39.2384H43.411L43.8895 38.5876C47.1626 34.3001 46.7223 27.9645 42.8942 24.1364C40.3102 21.5524 36.2524 20.3466 32.7305 21.1505ZM37.9942 25.3423C39.4872 26.0122 40.9801 27.5051 41.6501 28.9598C42.1477 29.9934 42.2051 30.3571 42.2051 31.9649C42.2051 33.5344 42.1286 33.9364 41.7075 34.836C41.0184 36.2907 39.8508 37.5348 38.5301 38.243C34.8934 40.1762 30.4911 38.7598 28.6727 35.0657C28.0794 33.879 28.0411 33.6493 28.0411 31.8692C28.0411 30.1657 28.0985 29.8403 28.577 28.8641C29.5149 26.9692 31.429 25.3997 33.4387 24.8829C34.6637 24.5766 36.8075 24.7872 37.9942 25.3423ZM82.4579 43.6598C83.7786 44.3106 84.793 45.4016 85.3098 46.7223C85.5778 47.4305 85.6544 48.4641 85.7118 53.2493L85.7883 58.9532H83.4723H81.1563V53.7278C81.1563 47.6219 81.0223 46.5501 80.0462 44.5403L79.3188 43.0665H80.295C81.0223 43.0665 81.6157 43.2196 82.4579 43.6598ZM85.7118 68.5618L85.7501 74.2657H71.0501C54.5891 74.2657 55.3165 74.3231 53.6895 72.8876C53.211 72.4665 52.5794 71.6626 52.2922 71.1266C51.6032 69.7868 51.5649 67.5282 52.2157 66.2075C53.0196 64.5614 54.6083 63.3173 56.3309 62.9727C56.7712 62.8962 63.5469 62.8387 71.3946 62.8579L85.6544 62.877L85.7118 68.5618ZM85.6544 83.9317V89.6739L85.1567 90.7458C84.2188 92.7173 82.5153 93.9231 80.3715 94.1145L79.1848 94.2294L79.7016 93.368C79.9696 92.9087 80.3907 92.0091 80.6204 91.3774C81.0032 90.3247 81.0415 89.8462 81.118 84.1614L81.1946 78.0747L83.4149 78.1321L85.6544 78.1895V83.9317Z" fill="#00AF89"/>
<path d="M56.0821 66.9541C55.1442 67.4135 54.7805 68.428 55.2207 69.3467C55.795 70.5526 57.2688 70.8205 58.2067 69.8826C59.1828 68.9065 58.8383 67.2604 57.575 66.8201C56.8285 66.5522 56.8668 66.5522 56.0821 66.9541Z" fill="#00AF89"/>
<path d="M9.62784 66.8966C8.40284 67.4134 8.17315 69.0021 9.16846 69.9017C9.99151 70.6482 10.9294 70.629 11.695 69.8826C12.6712 68.9064 12.3267 67.2603 11.0634 66.8201C10.336 66.5712 10.3743 66.5712 9.62784 66.8966Z" fill="#00AF89"/>
</g>
<defs>
<clipPath id="clip0_277_130">
<rect width="98" height="98" fill="white"/>
</clipPath>
</defs>
</svg>
