<svg width="92" height="92" viewBox="0 0 92 92" fill="none" xmlns="http://www.w3.org/2000/svg">
<g clip-path="url(#clip0_277_114)">
<path d="M38.1836 1.06004C36.6203 1.47331 35.3266 2.56941 34.6437 4.04285C34.2844 4.86941 34.2305 5.26472 34.1766 8.62488L34.1047 12.3085L33.2062 12.8475C31.9664 13.5843 30.2414 15.3452 29.4148 16.7288C28.2828 18.6335 27.9414 20.035 27.9414 22.6405C27.9594 24.635 28.0133 25.0303 28.4445 26.2343C28.732 26.971 29.0016 27.7616 29.0555 27.9772L29.1453 28.3905H21.4906H13.8359V24.8327C13.8359 19.3702 13.8359 19.3522 8.17578 19.4421C4.47422 19.496 4.38438 19.5139 3.39609 19.9991C2.21016 20.5741 1.02422 21.778 0.485156 22.9639L0.0898438 23.8085V55.2538V86.6991L0.592969 87.7233C1.31172 89.1788 2.60547 90.2928 4.11484 90.7421C5.28281 91.1014 5.69609 91.1014 45.9461 91.0655L86.5914 91.0116L87.1305 90.4905C87.9031 89.7358 88.0469 89.071 88.0469 85.9264V83.1952L88.9992 83.1772C90.3109 83.1772 91.1016 82.8538 91.5867 82.135L92 81.5241V63.4835V45.4428L91.5508 45.0116C90.9938 44.4366 90.3109 44.4366 89.7539 45.0116L89.3047 45.4428V62.9803V80.4999H86.268H83.2312L83.1594 78.8647C83.1055 77.4092 83.0516 77.1936 82.6742 76.8882C82.1172 76.421 81.3625 76.4569 80.8953 76.96C80.5898 77.2835 80.5 77.6249 80.4641 78.8827L80.4102 80.41H77.3555H74.3008L74.2109 78.7389C74.1211 76.9241 73.9055 76.5467 72.9891 76.5467C71.9289 76.5467 71.5156 77.3014 71.5156 79.278V80.4999L68.5148 80.4639L65.4961 80.41L65.4422 78.8827C65.4062 77.6249 65.3164 77.2835 65.0109 76.96C64.4898 76.403 63.7172 76.421 63.1602 76.996C62.7469 77.3913 62.7109 77.571 62.7109 78.9725V80.4999H59.6562H56.6016V78.9725C56.6016 77.571 56.5656 77.3913 56.1523 76.996C55.5594 76.385 54.7687 76.403 54.2836 77.0139C53.9781 77.4092 53.9062 77.7507 53.9062 78.9905V80.4999H50.8695H47.8328L47.7609 78.8647C47.707 77.4092 47.6531 77.1936 47.2758 76.8882C46.7188 76.421 45.9641 76.4569 45.4969 76.96C45.1914 77.2835 45.1016 77.6249 45.0656 78.8827L45.0117 80.41H41.957H38.9023L38.8125 78.7389C38.7227 76.9241 38.507 76.5467 37.5906 76.5467C36.5305 76.5467 36.1172 77.3014 36.1172 79.26V80.4999H32.7211C30.4031 80.4999 29.2711 80.428 29.1812 80.3022C29.0375 80.0686 88.9273 20.0889 89.1609 20.2327C89.2328 20.2866 89.3047 24.7788 89.3047 30.2053V40.0882L89.7539 40.5194C90.3109 41.0944 90.9938 41.0944 91.5687 40.5194L92 40.0702L91.9641 29.7561C91.9102 19.6397 91.9102 19.4241 91.5328 18.9389C91.0117 18.2202 90.3648 17.7889 89.5922 17.6093C88.1727 17.2858 87.993 17.4296 82.2969 23.1077L76.9961 28.3905H63.268H49.5578L49.6477 27.8874C49.7016 27.6178 49.9711 26.7913 50.2406 26.0546C50.6719 24.8866 50.7437 24.4374 50.7437 22.6405C50.7437 21.1491 50.6539 20.2686 50.4203 19.496C49.6477 16.8905 47.7609 14.3569 45.5328 12.9194L44.3828 12.1647V8.53503V4.90535L43.8258 3.80925C43.2328 2.58738 42.532 1.92253 41.3641 1.40144C40.4836 1.00613 38.9922 0.844406 38.1836 1.06004ZM40.4117 3.953C41.5258 4.51003 41.6875 5.06706 41.6875 8.39128V11.2303H39.2437H36.8L36.8719 8.2655C36.9258 5.48035 36.9437 5.26472 37.357 4.68972C38.1117 3.62956 39.2437 3.34206 40.4117 3.953ZM41.7055 14.1233C46.0719 15.4171 48.7492 19.6218 47.9945 24.0061C46.7547 31.0499 38.2016 33.7991 33.1344 28.7858C28.5344 24.2218 30.3133 16.4233 36.4586 14.2671C37.9141 13.746 40.232 13.6921 41.7055 14.1233ZM11.1047 50.7077L11.0508 79.3319L7.63672 79.4217C4.92344 79.4936 4.07891 79.5835 3.52187 79.835C3.14453 79.9967 2.80312 80.1405 2.76719 80.1405C2.73125 80.1405 2.69531 67.6882 2.69531 52.4686C2.69531 27.9593 2.73125 24.7069 2.96484 24.1319C3.68359 22.4069 4.45625 22.1194 8.22969 22.1014H11.1406L11.1047 50.7077ZM49.7914 40.7171C51.0672 46.1436 52.2352 51.0671 52.3789 51.66L52.6125 52.7382L51.0312 54.3553C50.1508 55.2358 49.3781 55.9186 49.3242 55.8467C49.2344 55.7569 45.2633 43.3764 42.2984 33.9069C42.2266 33.6913 42.2984 33.6014 42.55 33.6014C43.125 33.6014 45.7125 32.2178 46.557 31.4632C46.9883 31.0858 47.3656 30.7803 47.4016 30.8163C47.4375 30.8343 48.4977 35.2905 49.7914 40.7171ZM32.3438 31.6968C33.4758 32.5233 34.9492 33.296 35.8297 33.5296C36.2609 33.6374 36.3148 33.7272 36.243 34.1225C36.0812 34.8593 23.3594 74.9475 23.1617 75.3249C22.982 75.6663 22.3352 75.8999 21.8141 75.7921C21.6523 75.7741 21.3469 75.5225 21.1492 75.253L20.7898 74.7678L21.293 72.6116C21.7422 70.7249 21.7781 70.3835 21.5625 69.9882C20.9875 68.91 19.3883 69.1616 19.0648 70.3835C17.9688 74.4444 17.9688 75.4327 18.957 76.9061L19.568 77.8225L18.9211 79.8889C18.3102 81.8116 18.2742 82.0092 18.5258 82.4405C18.6695 82.71 19.0469 82.9796 19.3523 83.0874C20.3586 83.3749 20.718 82.9436 21.4906 80.6077L22.1734 78.5592L22.8742 78.4694C23.7727 78.3436 24.8687 77.6249 25.4078 76.7624C25.6594 76.3671 28.5703 67.4725 32.4516 55.11C37.2313 40.0163 39.1539 34.1405 39.3336 34.1764C39.4773 34.2124 40.9508 38.6147 43.3227 46.0897C45.3891 52.6124 47.0781 58.021 47.0781 58.1288C47.0781 58.2186 42.4781 62.9085 36.8539 68.5507C25.7672 79.6374 26.1805 79.1522 26.4859 80.7874C26.6656 81.7038 27.6898 82.746 28.6602 82.9975C29.2172 83.1413 37.4289 83.1952 57.4102 83.1952H85.3695L85.3156 85.7467L85.2617 88.3163L45.4609 88.3702C18.2742 88.4061 5.4625 88.3702 5.01328 88.2264C3.68359 87.8491 2.71328 86.5553 2.69531 85.1897C2.69531 84.2733 3.34219 83.0874 4.09687 82.6202C4.72578 82.2249 4.99531 82.2069 8.44531 82.1171C12.5242 82.0092 12.7937 81.9553 13.4766 80.8053C13.8359 80.2483 13.8359 79.6913 13.8359 55.6491V31.0858H21.0234C27.7437 31.0858 28.2109 31.1038 28.2109 31.3913C28.2109 31.571 26.468 39.0999 24.3297 48.1382C20.7359 63.3218 20.4484 64.6155 20.682 65.0288C21.257 66.053 22.6227 65.9272 23.0719 64.8132C23.1977 64.5077 25.0664 56.7452 27.2406 47.5632C29.3969 38.3991 31.1937 30.9061 31.2117 30.9061C31.2477 30.9061 31.7508 31.2655 32.3438 31.6968ZM74.0312 31.2296C74.0312 31.4452 55.0023 50.4022 54.8945 50.2944C54.8227 50.2046 50.3125 31.4272 50.3125 31.1757C50.3125 31.1218 55.6492 31.0858 62.1719 31.0858C68.6945 31.0858 74.0312 31.1397 74.0312 31.2296Z" fill="#00AF89"/>
<path d="M38.1836 17.5912C37.1234 17.8787 36.6562 18.1482 35.8656 18.867C34.8054 19.8553 34.2484 21.131 34.2664 22.6404C34.2844 24.0959 34.6437 24.9404 35.7039 26.0725C37.6625 28.1748 40.807 28.2107 42.8554 26.1803C45.3172 23.7006 44.7422 19.6576 41.6695 18.0943C40.6093 17.5553 39.1179 17.3396 38.1836 17.5912ZM40.3578 20.4123C41.1304 20.7896 41.6875 21.6881 41.6875 22.5685C41.6875 24.4014 39.6929 25.5693 38.1476 24.617C37.339 24.1318 36.9617 23.467 36.9617 22.5326C36.9617 21.5803 37.3929 20.8975 38.2914 20.4482C39.0461 20.0529 39.5672 20.035 40.3578 20.4123Z" fill="#00AF89"/>
<path d="M75.0015 49.3959C74.6242 49.6834 70.5992 53.6185 66.0891 58.1466C57.0508 67.2388 57.2664 66.9513 57.9672 68.4068C58.632 69.7544 58.4164 69.7365 68.5148 69.6826L77.4812 69.6287L78.0023 69.0357L78.5234 68.4607V59.4584C78.5234 49.5935 78.5414 49.7013 77.4453 49.1443C76.6367 48.713 75.7922 48.8029 75.0015 49.3959ZM75.8281 59.7459V67.0232H68.5148H61.1836L68.4609 59.7459C72.468 55.7388 75.7562 52.4685 75.7742 52.4685C75.8101 52.4685 75.8281 55.7388 75.8281 59.7459Z" fill="#00AF89"/>
</g>
<defs>
<clipPath id="clip0_277_114">
<rect width="92" height="92" fill="white"/>
</clipPath>
</defs>
</svg>
