<svg width="83" height="83" viewBox="0 0 83 83" fill="none" xmlns="http://www.w3.org/2000/svg">
<g clip-path="url(#clip0_277_119)">
<path d="M9.56439 0.226952C7.16518 0.875389 5.51166 3.19355 5.51166 5.9332V6.9707H4.32826C2.9017 6.9707 1.73451 7.47324 0.972597 8.39726C-0.0649031 9.66172 -5.93271e-05 7.61914 0.0323625 38.9873C0.0809954 66.8377 0.0809954 67.5348 0.389003 68.1508C0.761855 68.8965 1.58861 69.7557 2.3181 70.1447C2.80443 70.4203 3.74467 70.4365 15.3679 70.4852C22.2413 70.5014 27.8828 70.5824 27.8828 70.6473C27.8665 70.7121 27.3478 71.6361 26.6994 72.7061L25.516 74.6514L22.5169 74.7324C19.1613 74.8297 18.7074 74.9594 17.6699 76.1266C16.9242 76.9695 16.6486 77.7314 16.6486 78.8662C16.6648 80.4711 17.3456 81.6383 18.7884 82.4812L19.5341 82.9189H41.4999H63.4658L64.2115 82.4812C65.6542 81.6383 66.3351 80.4549 66.3351 78.8662C66.3351 77.7314 66.0595 76.9695 65.33 76.1266C64.2925 74.9594 63.8386 74.8297 60.4829 74.7324L57.4839 74.6514L56.3005 72.7061C55.6521 71.6361 55.1333 70.7121 55.1171 70.6311C55.1171 70.5662 60.6126 70.5176 67.324 70.5176C80.9412 70.5176 80.471 70.55 81.6706 69.399C82.0111 69.0748 82.4326 68.5074 82.5947 68.167C82.9189 67.5348 82.9189 66.9674 82.9675 38.9873C82.9999 7.61914 83.0648 9.66172 82.0273 8.39726C81.2654 7.47324 80.0982 6.9707 78.6716 6.9707H77.4882V5.9332C77.4882 5.34961 77.3423 4.42558 77.164 3.84199C76.7425 2.48027 75.6077 1.1834 74.2785 0.534958L73.3544 0.0810547L41.8242 0.0486298C17.2484 0.0324173 10.1318 0.0648422 9.56439 0.226952ZM73.5003 3.30703C74.5865 4.11758 74.7324 4.68496 74.7324 8.05683V11.0234H41.4999H8.26752V8.10547C8.26752 4.99297 8.381 4.39317 9.1267 3.58262C9.92103 2.72343 8.07299 2.77207 41.6783 2.80449L72.9005 2.83691L73.5003 3.30703ZM5.54408 31.8059L5.59271 53.9014L6.03041 54.8254C6.54916 55.9439 7.58666 57.0139 8.67279 57.5488L9.48334 57.9541H41.4999H73.5165L74.3271 57.5488C75.4132 57.0139 76.4507 55.9439 76.9695 54.8254L77.4072 53.9014L77.4558 31.8059L77.4882 9.72656H78.3636C79.4822 9.72656 79.7091 9.82383 80.0009 10.3912C80.2117 10.7803 80.2441 14.217 80.2441 35.8262V60.791H41.4999H2.7558V35.8262C2.7558 14.0873 2.78822 10.7803 2.99896 10.375C3.29076 9.80762 3.42045 9.75898 4.57143 9.74277L5.51166 9.72656L5.54408 31.8059ZM26.2617 34.5293V55.2793H18.3021C10.3912 55.2793 10.3263 55.2793 9.69408 54.9227C9.35365 54.7281 8.89975 54.3066 8.70521 53.9824L8.34857 53.415L8.29994 33.5891L8.26752 13.7793H17.2646H26.2617V34.5293ZM74.6999 33.5891L74.6513 53.415L74.2947 53.9824C74.1001 54.3066 73.6462 54.7281 73.3058 54.9227L72.6574 55.2793H50.8374H29.0175V34.5293V13.7793H51.8749H74.7324L74.6999 33.5891ZM80.2441 65.1842C80.2441 66.6432 80.0982 67.1781 79.6119 67.551C79.239 67.8428 3.76088 67.8428 3.38803 67.551C2.9017 67.1781 2.7558 66.6432 2.7558 65.1842V63.709H41.4999H80.2441V65.1842ZM52.9773 72.5115C53.6095 73.6139 54.1445 74.5541 54.1445 74.6189C54.1445 74.6838 48.4544 74.7324 41.4999 74.7324C34.5454 74.7324 28.8554 74.6838 28.8554 74.6189C28.8554 74.5541 29.3904 73.6139 30.0388 72.5115L31.206 70.5176H41.4999H51.7939L52.9773 72.5115ZM63.1253 77.8449C63.7413 78.4123 63.7576 79.2391 63.1415 79.8389L62.7525 80.2441H41.4999H20.2474L19.8583 79.8389C19.2423 79.2391 19.2585 78.4123 19.8745 77.8449L20.2798 77.4883H41.4999H62.7201L63.1253 77.8449Z" fill="#00AF89"/>
<path d="M11.607 5.86839C10.9586 6.43578 10.9099 7.13285 11.4287 7.74886C12.4824 8.9971 14.2656 7.79749 13.682 6.24125C13.5523 5.93324 12.7904 5.51175 12.3365 5.51175C12.1582 5.51175 11.834 5.67386 11.607 5.86839Z" fill="#00AF89"/>
<path d="M17.3781 5.67372C16.8756 5.88447 16.4865 6.8247 16.6811 7.35966C17.216 8.73759 19.291 8.44579 19.291 6.9706C19.291 6.63017 19.1613 6.20869 19.0154 6.01415C18.675 5.60888 17.9131 5.44677 17.3781 5.67372Z" fill="#00AF89"/>
<path d="M22.9059 5.67382C22.0954 5.99804 21.9333 7.37597 22.6303 7.92714C23.7813 8.83495 25.2889 7.73261 24.7216 6.3871C24.4135 5.6414 23.7003 5.3496 22.9059 5.67382Z" fill="#00AF89"/>
<path d="M11.8988 16.7621C11.2179 17.0701 10.9099 17.8158 11.1855 18.4805C11.299 18.7561 11.5259 19.0479 11.688 19.1289C11.8502 19.2262 13.7144 19.291 15.9677 19.291H19.9556L20.3447 18.8857C20.8634 18.3832 20.8634 17.6699 20.3609 17.0701L19.9718 16.6162L16.1785 16.5838C13.2605 16.5514 12.2878 16.5838 11.8988 16.7621Z" fill="#00AF89"/>
<path d="M12.4986 22.4846C12.2068 22.6305 11.7691 23.0358 11.5421 23.3925C11.1531 23.9923 11.1044 24.2192 11.0558 25.8403C10.9747 27.9964 11.1855 28.888 11.8988 29.6012C12.6121 30.3145 13.5037 30.5253 15.6597 30.4442C17.2808 30.3956 17.5078 30.3469 18.1076 29.9579C19.1288 29.2932 19.291 28.7583 19.291 26.2132C19.291 24.2192 19.2585 23.9923 18.9181 23.4897C18.7236 23.1979 18.3021 22.7764 18.0103 22.5819C17.5078 22.2415 17.2808 22.2091 15.2544 22.2091C13.5361 22.2091 12.9363 22.2739 12.4986 22.4846ZM16.5351 26.3428V27.737L15.2058 27.6884L13.8603 27.6397L13.8117 26.2942L13.763 24.9649H15.1572H16.5351V26.3428Z" fill="#00AF89"/>
<path d="M12.7255 33.4594C12.077 33.7512 11.4286 34.4807 11.2017 35.1615C10.8936 36.0855 10.9747 39.0359 11.3313 39.7979C11.9798 41.2082 12.6606 41.5 15.222 41.5C16.8593 41.5 17.2159 41.4514 17.8319 41.1271C18.2372 40.9326 18.7235 40.5273 18.9181 40.2193C19.2585 39.7168 19.2909 39.4898 19.2909 37.3662C19.2909 35.2426 19.2585 35.0156 18.9343 34.5293C18.1724 33.4269 17.8806 33.3135 15.4327 33.281C13.8116 33.2486 13.0821 33.2973 12.7255 33.4594ZM16.5351 37.3662V38.7441H15.1571H13.7792V37.3662V35.9883H15.1571H16.5351V37.3662Z" fill="#00AF89"/>
<path d="M13.0498 44.3691C12.4662 44.515 11.6395 45.2607 11.3314 45.9416C11.1045 46.4604 11.0234 46.9953 11.0234 48.3084C11.0234 49.2486 11.1045 50.2699 11.1855 50.6104C11.3639 51.2588 12.4014 52.2963 13.0336 52.4584C13.2443 52.507 14.3791 52.5232 15.5301 52.4908C17.8807 52.4422 18.1887 52.3287 18.9344 51.2102C19.291 50.6914 19.3072 50.5455 19.2586 48.3084C19.21 46.1361 19.1775 45.9254 18.8209 45.4066C18.1725 44.515 17.3943 44.2557 15.2383 44.2719C14.217 44.2881 13.2281 44.3367 13.0498 44.3691ZM16.5352 48.3895V49.7674H15.1572H13.7793V48.3895V47.0115H15.1572H16.5352V48.3895Z" fill="#00AF89"/>
<path d="M57.5488 16.7133C57.2246 16.7782 53.9662 17.7508 50.2863 18.8694L43.5912 20.8958L39.1008 24.7378C33.2811 29.7145 33.2324 29.7631 33.2324 30.444C33.2324 31.0114 33.816 31.7733 34.2699 31.7733C34.4807 31.7733 34.5131 32.519 34.5617 37.0743C34.6104 42.0672 34.6266 42.4401 34.9508 43.121C35.1291 43.5262 35.5344 44.0936 35.8262 44.4016C36.199 44.7583 38.8252 46.1686 43.9965 48.7462L51.6318 52.5557L52.7666 52.4909C53.8365 52.426 54.2742 52.2477 60.5154 49.3946C64.1629 47.7411 67.3889 46.1848 67.6807 45.9741C67.9725 45.7471 68.4264 45.1311 68.6857 44.6286L69.1396 43.6883L69.1883 39.3114C69.2369 35.3073 69.2693 34.902 69.5449 34.6102C70.4203 33.6862 70.7607 31.8544 70.2744 30.7196C70.0799 30.2171 62.785 19.6962 61.5691 18.1237C60.7586 17.07 58.8457 16.4053 57.5488 16.7133ZM63.5145 25.678C65.8488 29.0012 67.7617 31.8706 67.7617 32.0489C67.7617 32.211 67.6645 32.4866 67.5672 32.6325C67.2754 33.0053 56.6896 36.8311 56.1223 36.7663C55.7494 36.7176 55.0848 35.826 51.0969 29.8604C48.568 26.0833 46.5254 22.9708 46.5578 22.9383C46.6227 22.8735 57.6623 19.5178 58.1162 19.4206C58.9592 19.2422 59.2023 19.534 63.5145 25.678ZM47.6277 29.7145L51.2266 35.0965V42.1159C51.2266 46.5901 51.1617 49.119 51.0645 49.119C50.9834 49.119 50.3674 48.8434 49.7027 48.5192L48.4869 47.9194L48.4383 43.7046C48.3734 39.052 48.341 38.8575 47.3359 37.7065C46.5416 36.8149 43.8668 35.5018 42.8293 35.5018C41.5648 35.5018 40.4949 36.3934 40.2031 37.7065C40.1221 38.0469 40.041 39.5221 40.041 40.9649C40.041 42.4239 40.0086 43.6073 39.96 43.6073C39.9113 43.6073 39.4574 43.3965 38.9387 43.1372C37.2527 42.278 37.3662 42.813 37.3338 35.9233L37.2852 29.909L40.576 27.1208C42.3754 25.5807 43.8992 24.3163 43.9479 24.3163C43.9965 24.3163 45.6662 26.7479 47.6277 29.7145ZM66.4324 39.7977C66.3838 43.2669 66.3838 43.2831 65.9785 43.6721C65.6867 43.9639 56.8193 48.1463 54.1932 49.2325C54.0311 49.2973 53.9824 48.2112 53.9824 44.126V38.9223L54.7443 39.2628C56.0412 39.8301 57.0139 39.6356 61.7637 37.8686C64.0332 37.0256 66.0271 36.3286 66.1893 36.3286C66.4648 36.3124 66.4811 36.5231 66.4324 39.7977ZM45.5041 39.8788C45.7635 40.3813 45.7959 46.3631 45.5527 46.3631C45.4717 46.3631 44.8557 46.0876 44.1748 45.7633L42.959 45.1635V41.6944V38.2415L44.1262 38.8575C44.8395 39.2303 45.3906 39.6356 45.5041 39.8788Z" fill="#00AF89"/>
</g>
<defs>
<clipPath id="clip0_277_119">
<rect width="83" height="83" fill="white"/>
</clipPath>
</defs>
</svg>
