<svg width="91" height="91" viewBox="0 0 91 91" fill="none" xmlns="http://www.w3.org/2000/svg">
<g clip-path="url(#clip0_933_2)">
<path d="M73.8842 8.05136L81.9355 16.085L81.9 47.3662L81.8467 78.6475L81.4557 79.3762C80.9047 80.4248 79.8027 81.3312 78.7186 81.6512C78.0609 81.8467 77.0301 81.9355 75.3238 81.9355H72.8711V84.3883C72.8711 86.0945 72.7822 87.1254 72.5867 87.783C72.2668 88.8672 71.3604 89.9691 70.3117 90.5201L69.583 90.9111H40.95H12.317L11.4639 90.3779C10.3086 89.667 9.49101 88.565 9.25996 87.4098C9.11777 86.7344 9.06445 75.6615 9.1 49.499L9.15332 12.5303L9.6332 11.6238C10.6996 9.59766 11.9793 9.06445 15.765 9.06445H18.3066V6.25625C18.3066 3.59023 18.3244 3.39472 18.7687 2.52383C19.0176 2.00839 19.5152 1.36855 19.8707 1.06641C21.2393 -0.0533218 19.9418 0 43.9715 0H65.8506L73.8842 8.05136ZM21.6658 3.53691C21.3281 3.9457 21.3281 4.78105 21.3281 40.95C21.3281 77.8832 21.3281 77.9543 21.6836 78.3453C21.8791 78.5586 22.2346 78.7719 22.4478 78.8252C22.6611 78.8785 35.2625 78.8963 50.441 78.8785L78.0609 78.8252L78.4875 78.3275L78.9141 77.8299V47.9705V18.1289H73.2088C69.3342 18.1289 67.2725 18.0578 66.7926 17.9156C65.8861 17.649 64.642 16.5471 64.1799 15.5873C63.8244 14.8586 63.8066 14.5387 63.8066 8.92226V3.02148L42.9051 3.05703L22.0035 3.11035L21.6658 3.53691ZM66.8281 9.77539V14.2365L67.2725 14.6631L67.699 15.1074H72.1957H76.6924L71.8047 10.2197C69.1209 7.53593 66.8992 5.33203 66.8814 5.33203C66.8459 5.33203 66.8281 7.34042 66.8281 9.77539ZM12.9924 12.3525C12.708 12.4947 12.3881 12.8502 12.2814 13.1701C12.1393 13.5789 12.0859 23.9408 12.0859 50.0678C12.0859 89.0627 12.0504 87.3031 12.9391 87.783C13.2057 87.9252 21.5059 87.9785 41.0389 87.9785H68.7654L69.2631 87.552C69.7607 87.1254 69.7607 87.1254 69.8141 84.5305L69.8674 81.9355H46.0865C30.4459 81.9355 22.0746 81.8645 21.648 81.7578C20.4928 81.4379 19.3375 80.5137 18.8043 79.465L18.3066 78.523V45.4289C18.3066 27.2111 18.2533 12.2637 18.1822 12.2104C18.1289 12.1393 17.0447 12.0859 15.7828 12.0859C14.1121 12.0859 13.3478 12.157 12.9924 12.3525Z" fill="#00AF89"/>
<rect x="21" y="9" width="45" height="3" fill="#00AF89"/>
<path d="M40.1797 62.6925C40.1797 65.6189 38.2218 68.1481 34.2239 68.1481H30V57.2439H34.2239C38.2355 57.2439 40.1797 59.7661 40.1797 62.6925ZM37.4551 62.6925C37.4551 61.0691 36.4761 59.7661 34.0253 59.7661H32.9232V65.6259H34.0253C36.4761 65.6259 37.4551 64.302 37.4551 62.6925Z" fill="#00AF89"/>
<path d="M58.8687 57.2439L54.7544 68.1481H51.5574L49.7501 62.4765L47.9565 68.1481H44.739L40.6384 57.2439H44.0818L46.2246 63.9606L48.1208 57.2439H51.3794L53.2757 63.9606L55.4185 57.2439H58.8687Z" fill="#00AF89"/>
<path d="M70 61.4314V67.0263C68.9252 67.8694 67.1042 68.385 65.7145 68.385C62.2369 68.385 59.6355 65.9882 59.6355 62.6995C59.6355 59.3968 62.408 57 65.8788 57C67.2549 57 68.4323 57.5156 69.5071 58.3726L68.0695 60.442C67.426 59.9752 66.6798 59.6477 65.8788 59.6477C64.0442 59.6477 62.4833 61.0064 62.4833 62.6995C62.4833 64.3787 63.873 65.7513 65.7145 65.7513C66.2348 65.7513 66.7072 65.6746 67.2617 65.5353V63.9606H64.8588V61.4314H70Z" fill="#00AF89"/>
<rect x="34.7889" y="25.7889" width="9.28889" height="9.28889" rx="1.5" stroke="#00AF89" stroke-width="3"/>
<rect x="21" y="29" width="15" height="3" fill="#00AF89"/>
<rect x="38" y="27" width="15" height="3" transform="rotate(-90 38 27)" fill="#00AF89"/>
<rect x="38" y="49" width="15" height="3" transform="rotate(-90 38 49)" fill="#00AF89"/>
<rect x="43" y="29" width="36" height="3" fill="#00AF89"/>
</g>
<defs>
<clipPath id="clip0_933_2">
<rect width="91" height="91" fill="white" transform="matrix(-1 0 0 1 91 0)"/>
</clipPath>
</defs>
</svg>
