<svg width="74" height="74" viewBox="0 0 74 74" fill="none" xmlns="http://www.w3.org/2000/svg">
<path d="M33.8781 1.27191C33.4012 1.57543 33.3867 1.98012 33.3867 11.736V21.4774L26.8539 34.225C23.2551 41.2348 20.2777 46.9727 20.2344 46.9727C20.191 46.9727 19.425 45.2239 18.5145 43.0993C17.6039 40.9746 16.7945 39.1535 16.7078 39.0379C16.4477 38.7055 15.884 38.561 15.4648 38.7344C15.118 38.8789 14.323 40.6711 8.1082 55.1965C4.29258 64.1575 1.15625 71.6442 1.15625 71.8465C1.15625 72.0489 1.30078 72.3524 1.48867 72.5258L1.82109 72.8438H37.0145C75.9656 72.8438 72.8438 72.916 72.8438 71.9332C72.8438 71.384 57.4945 30.4094 57.1766 30.0914C56.8586 29.759 55.9914 29.8024 55.659 30.1348C55.5145 30.2938 53.9824 34.1672 52.248 38.7344C50.5137 43.3016 49.0539 47.0883 49.0105 47.1461C48.9672 47.2039 45.9176 41.4227 42.232 34.3118L35.5547 21.3762L35.5836 18.9625L35.627 16.5489L42.8824 16.5055L50.1234 16.4766L53.5055 12.9934C55.3555 11.0856 56.9309 9.36566 57.0031 9.16332C57.0898 8.94652 57.0898 8.68636 57.0031 8.45512C56.9309 8.26723 55.3555 6.5473 53.5055 4.62504L50.1234 1.15629H42.0875C37.6504 1.15629 33.9648 1.2141 33.8781 1.27191ZM51.8434 5.95473C53.3031 7.41449 54.4883 8.68636 54.4883 8.78754C54.4883 8.90316 53.332 10.175 51.9301 11.6493L49.3574 14.3086H42.4633H35.5547V8.81644V3.32426H42.3766H49.2129L51.8434 5.95473ZM46.5535 47.4496L58.4773 70.6035L44.3855 70.6469C33.3723 70.6758 30.2793 70.6325 30.1926 70.5024C29.8602 69.9676 21.3762 49.8055 21.4195 49.6465C21.5063 49.2418 34.4562 24.1512 34.5285 24.2235C34.5719 24.2668 39.9918 34.7164 46.5535 47.4496ZM63.377 52.2481C67.0914 62.1774 70.1699 70.4012 70.1988 70.5024C70.2566 70.6469 69.3316 70.6758 65.6316 70.6469L60.9777 70.6035L56.4973 61.8594C54.0258 57.0465 51.641 52.3926 51.193 51.511L50.398 49.9067L53.4188 41.943C55.0664 37.5637 56.4684 34.0227 56.5262 34.0805C56.584 34.1383 59.6625 42.3043 63.377 52.2481ZM21.9543 56.6996C25.2207 64.3164 27.8945 70.5891 27.8945 70.618C27.8945 70.6469 22.4891 70.6758 15.884 70.6758C4.50938 70.6758 3.87344 70.6614 3.96016 70.4301C4.53828 68.8692 15.8551 42.6801 15.9273 42.7524C15.9852 42.8102 18.7023 49.0828 21.9543 56.6996Z" fill="#1C2C57"/>
<path d="M45.2376 7.37122C43.7056 8.64309 42.4192 9.68372 42.347 9.68372C42.2891 9.68372 41.87 9.23567 41.422 8.68645C40.5548 7.61692 40.3958 7.51575 39.7309 7.51575C39.413 7.51575 39.2395 7.63138 39.0227 7.97825C38.8493 8.26731 38.777 8.57083 38.8204 8.74427C38.9649 9.20677 41.4364 12.213 41.7977 12.372C41.9856 12.4443 42.2747 12.4876 42.4481 12.4587C42.8095 12.4009 49.1977 6.95208 49.3423 6.5763C49.6169 5.85364 49.0966 5.05872 48.3306 5.05872C48.1138 5.05872 47.0587 5.83919 45.2376 7.37122Z" fill="#1C2C57"/>
<path d="M39.2842 42.1453C38.865 42.3621 38.6482 42.8824 38.7783 43.3594C38.9084 43.8652 51.4826 66.5566 51.7717 66.8023C52.1619 67.1492 52.7689 67.1348 53.1447 66.7734C53.6072 66.3398 53.6795 65.9641 53.376 65.357C53.2314 65.068 50.3119 59.7637 46.901 53.5777C40.0791 41.2059 40.3248 41.5816 39.2842 42.1453Z" fill="#1C2C57"/>
</svg>
