<svg width="82" height="86" viewBox="0 0 82 86" fill="none" xmlns="http://www.w3.org/2000/svg">
<path d="M38.3096 7.39062C34.7702 8.39843 32.3358 11.1699 31.8393 14.7812C31.2467 19.0309 33.8413 24.2211 37.4768 26.0855C40.6639 27.7148 43.8991 27.043 46.6218 24.2043C47.6307 23.1293 47.9831 22.6086 48.6557 21.1473C50.0651 18.1574 50.3054 15.5539 49.4245 13.0176C48.5116 10.3973 46.7819 8.65038 44.0593 7.59218C42.5538 7.02109 39.9432 6.92031 38.3096 7.39062ZM41.9612 9.92695C44.1553 10.2797 45.9171 11.573 46.7339 13.4207C47.5186 15.1844 47.3905 17.8719 46.4136 19.9043C45.2604 22.2894 42.81 24.1539 40.8081 24.1875C38.3737 24.2043 35.7632 21.7351 34.8182 18.5269C33.4249 13.8574 35.9233 10.1285 40.68 9.75898C40.8081 9.75898 41.3846 9.82616 41.9612 9.92695Z" fill="#1C2C57"/>
<path d="M37.0762 27.3116C34.5938 27.53 31.9992 27.9163 31.2305 28.1851C28.1555 29.2937 25.9453 31.3093 24.648 34.1815C23.6711 36.3147 23.543 36.9698 22.9824 43.1679C22.8383 44.6964 22.502 47.787 22.2457 50.0546C21.9895 52.3222 21.7812 54.3042 21.7812 54.4722C21.7812 54.6401 21.9574 54.9593 22.1816 55.1776C22.7102 55.7487 23.5109 55.7487 24.0234 55.1776C24.3438 54.8081 24.4398 54.3378 24.9203 50.105C25.2086 47.5351 25.5609 44.0749 25.7051 42.412C26.0254 38.5655 26.2977 37.205 27.0664 35.5253C28.1074 33.2745 29.677 31.746 31.807 30.923C34.5137 29.8479 45.148 29.6968 48.9277 30.671C51.7945 31.4101 54.0367 33.4929 55.0297 36.3651C55.4301 37.5241 55.5742 38.4647 56.0707 43.4198C56.407 46.9136 57.3039 54.153 57.432 54.6401C57.5762 55.1272 58.1688 55.5976 58.6332 55.5976C58.8734 55.5976 59.2738 55.4128 59.5301 55.1944C60.0906 54.6905 60.0906 54.8921 59.2738 48.2069C58.9215 45.3011 58.5531 41.9753 58.457 40.8163C58.2328 38.1288 57.8164 36.2476 57.0316 34.5343C55.8625 31.914 54.1008 29.9991 51.8105 28.8233C49.6324 27.698 47.5184 27.3788 41.8008 27.2948C39.6387 27.278 37.5246 27.278 37.0762 27.3116Z" fill="#1C2C57"/>
<path d="M30.798 39.1367C30.6059 39.2207 30.3656 39.4559 30.2695 39.6406C30.1094 39.9598 29.1645 52.3894 29.1484 54.2203C29.1484 55.3961 30.4457 56.0008 31.3105 55.2113L31.727 54.8418L32.2234 47.4848C32.752 39.5398 32.752 39.5566 31.9191 39.1535C31.4707 38.9352 31.2785 38.9352 30.798 39.1367Z" fill="#1C2C57"/>
<path d="M49.4074 39.3887C48.8949 39.9094 48.8949 40.0942 49.4554 48.3247C49.8879 54.5563 49.9199 54.7579 50.2882 55.1778C50.9129 55.8832 52.066 55.6817 52.3703 54.825C52.5625 54.2875 51.6496 40.2286 51.3933 39.7079C51.0089 38.9184 50 38.7672 49.4074 39.3887Z" fill="#1C2C57"/>
<path d="M40.312 49.0637C40.1518 49.1645 39.0948 51.1969 37.9577 53.582C36.6284 56.3871 35.7796 57.9492 35.6034 57.9996C35.4432 58.05 33.4092 58.3691 31.071 58.7219C27.051 59.3266 26.8108 59.3938 26.3944 59.8137C25.5135 60.7375 25.5936 60.8719 29.3413 64.6848L32.7366 68.1617L31.9839 72.7641C31.5674 75.3004 31.2311 77.5344 31.2311 77.7527C31.2311 78.2566 31.9198 78.9453 32.4483 78.9453C32.7046 78.9453 34.6104 78.0047 36.8526 76.7617C39.0307 75.5523 40.9046 74.5781 41.0007 74.5781C41.1128 74.5781 42.9706 75.5523 45.1487 76.7617C47.4069 78.0047 49.2967 78.9453 49.553 78.9453C50.0815 78.9453 50.7702 78.2734 50.7702 77.7527C50.7702 77.5344 50.4339 75.3004 50.0174 72.7641L49.2647 68.1449L52.5799 64.7688C54.8061 62.5012 55.9272 61.2414 55.9913 60.9223C56.1034 60.4184 55.7831 59.7465 55.2866 59.4777C55.1424 59.3938 53.1725 59.0578 50.9303 58.7219C48.6882 58.3859 46.6862 58.0668 46.478 58.0164C46.1897 57.966 45.7092 57.0758 44.0436 53.582C42.8424 51.0625 41.8335 49.1645 41.6573 49.0469C41.2569 48.8285 40.6803 48.8453 40.312 49.0637ZM42.6342 56.8574C43.5792 58.8227 44.3479 60.2168 44.5561 60.368C44.7643 60.5023 46.2538 60.8047 47.8874 61.0566C49.521 61.2918 51.0585 61.527 51.3147 61.5773C51.7631 61.6781 51.7151 61.7453 49.1686 64.416C46.1096 67.6242 46.3339 66.8012 47.1507 71.6891C47.503 73.8055 47.6311 74.9141 47.503 74.8805C47.4069 74.8469 45.9815 74.091 44.3479 73.184C42.7143 72.2938 41.2089 71.5547 41.0007 71.5547C40.8085 71.5547 39.303 72.2938 37.6534 73.184C36.0198 74.091 34.5784 74.8469 34.4663 74.8805C34.3221 74.9309 34.2901 74.8133 34.3542 74.5445C34.5944 73.4695 35.3952 68.1953 35.3952 67.6914C35.3952 67.1539 35.1549 66.8684 32.8167 64.3992C30.2862 61.7453 30.2382 61.6781 30.6866 61.5773C30.9428 61.527 32.4803 61.2918 34.1139 61.0398C35.7475 60.8047 37.237 60.5023 37.4452 60.368C37.6694 60.2168 38.4221 58.8395 39.3671 56.8574C40.2159 55.0602 40.9526 53.582 41.0007 53.582C41.0487 53.582 41.7854 55.0602 42.6342 56.8574Z" fill="#1C2C57"/>
<path d="M14.6864 55.816C14.302 55.9504 13.9978 56.4879 12.6685 59.2762L11.0829 62.5852L7.76768 63.0555C3.95596 63.6098 3.61963 63.7777 3.61963 64.9367C3.61963 65.5414 3.74775 65.7094 6.11807 68.1113L8.6165 70.6309L8.07197 73.9902C7.78369 75.8379 7.52744 77.5176 7.52744 77.7359C7.52744 78.2566 8.21611 78.9453 8.74463 78.9453C8.98486 78.9453 10.4903 78.223 12.0919 77.3496C13.7095 76.4762 15.1028 75.7539 15.2149 75.7539C15.327 75.7539 16.6403 76.4426 18.1618 77.2656C21.1247 78.9285 21.6052 79.0965 22.1657 78.7773C22.9505 78.3406 22.9665 78.0047 22.3259 74.175L21.7493 70.6309L24.2478 68.0777C26.4899 65.7934 26.7462 65.4742 26.7462 64.9703C26.7462 64.2313 26.3778 63.7105 25.7372 63.5594C25.4649 63.4922 23.8954 63.257 22.2618 63.0051L19.2989 62.5684L17.7774 59.4441C16.9446 57.7141 16.1599 56.2023 16.0478 56.0512C15.7755 55.7152 15.231 55.6145 14.6864 55.816ZM16.2399 62.434C16.8005 63.6266 17.3931 64.7016 17.5532 64.8695C17.7614 65.0543 18.6263 65.2559 20.1638 65.491C21.445 65.6926 22.502 65.8773 22.5341 65.8941C22.5661 65.9277 21.7813 66.7676 20.8204 67.7586C18.7864 69.8246 18.8825 69.4887 19.395 72.6801C19.5872 73.8223 19.6993 74.7965 19.6513 74.8469C19.6192 74.8973 18.6743 74.4438 17.5853 73.8391C16.4802 73.2176 15.4071 72.7305 15.1989 72.7305C14.9907 72.7305 13.9177 73.2176 12.8126 73.8223C11.7075 74.427 10.7626 74.9141 10.6825 74.9141C10.6185 74.9141 10.6024 74.7461 10.6505 74.5277C10.8267 73.6879 11.3712 70.2949 11.3712 69.9926C11.3712 69.791 10.6505 68.884 9.57744 67.7418C8.58447 66.7004 7.83174 65.8438 7.8958 65.8438C8.55244 65.8438 12.4763 65.1047 12.7325 64.9367C12.9087 64.8191 13.5173 63.7105 14.0938 62.5012C14.6544 61.2918 15.1509 60.3008 15.1669 60.3008C15.1989 60.3008 15.6794 61.2582 16.2399 62.434Z" fill="#1C2C57"/>
<path d="M66.5129 55.732C66.0164 55.816 65.8883 56.0008 64.2227 59.4441L62.7012 62.5684L59.2578 63.0891C55.4781 63.6937 55.2539 63.7777 55.2539 64.9199C55.2539 65.3902 55.5422 65.7598 57.7523 68.0609L60.2508 70.6645L59.6742 74.2086C59.0496 77.9375 59.0656 78.1895 59.7223 78.727C60.2348 79.1469 60.8914 78.9285 63.7102 77.3496C65.2957 76.4762 66.641 75.7539 66.7211 75.7203C66.8012 75.6867 68.2105 76.409 69.8441 77.2992C71.4777 78.2062 73.0152 78.9453 73.2555 78.9453C73.832 78.9453 74.4727 78.2566 74.4727 77.652C74.4727 77.4 74.2164 75.7035 73.9281 73.9062L73.3836 70.6309L75.834 68.1617C77.1953 66.7676 78.3164 65.5078 78.3805 65.2727C78.5086 64.7184 78.2523 64.0801 77.8039 63.7777C77.5957 63.6266 75.9781 63.3074 74.1684 63.0387L70.9172 62.5684L69.3316 59.2762C67.9863 56.4543 67.698 55.9504 67.3137 55.816C67.0734 55.732 66.7051 55.6984 66.5129 55.732ZM69.3316 65.0039C69.5719 65.1383 73.5918 65.8437 74.1043 65.8437C74.1684 65.8437 73.4156 66.7004 72.4227 67.7418C71.3977 68.8336 70.6289 69.791 70.6289 69.9758C70.6289 70.1437 70.8051 71.3195 71.0133 72.5625C71.2215 73.8055 71.3816 74.8637 71.3496 74.8973C71.3176 74.9309 70.3727 74.4605 69.2676 73.8391C68.1625 73.2344 67.0734 72.7305 66.8332 72.7305C66.609 72.7305 65.5199 73.2176 64.4148 73.8391C63.3258 74.4437 62.3809 74.8973 62.3488 74.8469C62.3008 74.7965 62.4129 73.8223 62.6051 72.6801C63.1176 69.4887 63.2137 69.8078 61.1797 67.7418C60.2027 66.7676 59.434 65.9277 59.466 65.9109C59.498 65.8773 60.5551 65.6926 61.8363 65.491C63.3738 65.2559 64.2387 65.0543 64.4469 64.8695C64.607 64.7016 65.2156 63.6098 65.7762 62.4004L66.8332 60.2168L67.9223 62.518C68.5309 63.7945 69.1555 64.9031 69.3316 65.0039Z" fill="#1C2C57"/>
</svg>
