<svg width="105" height="105" viewBox="0 0 105 105" fill="none" xmlns="http://www.w3.org/2000/svg">
<path d="M6.54159 20.6924C5.90585 21.3486 5.84432 21.6357 6.15194 22.4355C6.39804 23.1123 31.315 39.7852 32.0738 39.7852C32.3404 39.7852 33.6119 39.293 34.8834 38.6777C37.3648 37.4883 39.5182 36.8115 41.5279 36.5859L42.7584 36.4424L40.7691 38.5752C36.9547 42.6768 36.5035 43.4766 36.9547 45.1172C37.2828 46.3271 38.6158 47.6191 40.1539 48.2139C41.6715 48.8086 44.1119 48.8496 45.732 48.3164C47.8648 47.5986 50.3258 46.2041 51.4742 45.0762C51.8844 44.666 52.274 44.543 53.3609 44.4404L54.7349 44.3174L55.2271 45.4043C56.191 47.4756 57.8521 49.793 59.4722 51.3311C60.7437 52.5205 61.5435 53.0742 63.4303 54.0176C67.0601 55.8018 70.0133 58.0166 74.3609 62.2002C78.2164 65.9121 78.6881 67.4912 76.2681 68.7217C75.5709 69.0703 75.3863 69.0908 75.0992 68.8652C74.9146 68.7217 72.5562 66.5479 69.8492 64.0254C65.2555 59.7598 64.9068 59.4727 64.1685 59.4727C63.2457 59.4727 62.5484 60.1904 62.5484 61.1543C62.5484 61.8721 62.6715 61.9951 68.4547 67.3682C70.8336 69.583 72.8023 71.5723 72.8023 71.7568C72.8023 72.4336 71.8795 73.9307 71.3053 74.1973C70.0953 74.7715 69.6851 74.5049 64.1685 69.5215C61.2974 66.9375 58.7545 64.7637 58.4879 64.7021C57.442 64.4355 56.2115 65.6865 56.4781 66.7529C56.5601 67.0605 58.6109 69.0498 61.6256 71.7979C64.3941 74.2998 66.65 76.4736 66.65 76.6377C66.65 77.499 64.4351 78.9551 63.1021 78.9551C62.8971 78.9551 60.7027 77.0068 58.2008 74.6279L53.6685 70.3008L52.8277 70.3828C52.1099 70.4648 51.8844 70.3828 51.2896 69.7881C50.3463 68.8857 49.0748 68.3115 47.8443 68.2295C47.065 68.1885 46.6344 68.0244 46.0191 67.5322C44.8502 66.6299 43.2096 65.8506 42.1226 65.6865C41.3433 65.584 40.9947 65.3789 40.1334 64.5176C38.6158 63 37.3853 62.4668 35.6012 62.4873C34.2271 62.5078 34.1041 62.4668 33.3863 61.8311C31.3355 59.9648 28.9156 59.8008 26.8238 61.4004L25.901 62.0977L17.1031 57.1758C7.56698 51.8232 7.34139 51.7207 6.43905 52.7871C5.82382 53.4844 5.82382 54.1816 6.41854 54.8379C6.66464 55.125 10.7457 57.5244 15.483 60.1699C23.44 64.6201 24.0963 65.0098 23.9937 65.4609C23.7476 66.5889 23.9117 69.0088 24.2808 69.7266C24.9166 70.916 25.983 72.1055 27.0699 72.8027C27.6236 73.1719 28.0953 73.6025 28.0953 73.8076C28.0953 74.3613 29.2437 76.1865 29.982 76.8018C30.7408 77.458 33.3453 78.75 33.858 78.75C34.0426 78.75 34.8014 79.3447 35.5191 80.0625C36.6471 81.1699 37.0572 81.4365 38.2467 81.8057C39.0055 82.0518 39.9488 82.2363 40.318 82.2363C40.9127 82.2363 41.2203 82.4209 42.1021 83.3232C43.2301 84.4717 44.2349 84.9023 45.8756 84.9023C47.3521 84.9023 49.3619 83.5898 50.2027 82.1133C50.3873 81.7646 50.5103 81.8057 51.5152 82.4824C55.9039 85.374 59.4312 85.5381 62.3023 82.9746C62.8971 82.4414 63.3072 82.2773 64.189 82.1748C66.4654 81.9082 68.6187 80.4111 69.4596 78.4834C69.7672 77.7861 69.8697 77.7246 70.608 77.7246C72.0435 77.7246 73.0484 77.2939 74.1558 76.1865C75.1197 75.2227 75.4068 74.71 76.1861 72.4336C76.2271 72.3105 76.4117 72.1875 76.5963 72.1875C77.7447 72.1875 80.1236 70.2188 80.7183 68.7832C81.067 67.9629 81.0875 65.9326 80.7799 65.0303C80.6568 64.6611 80.5953 64.3125 80.6773 64.251C80.7388 64.1689 84.6969 63.123 89.4752 61.8926C97.0426 59.9648 98.191 59.6162 98.6012 59.165C98.8473 58.8574 99.0523 58.4062 99.0523 58.1191C99.0523 57.5449 98.0474 56.3965 97.5553 56.3965C97.3912 56.3965 93.1666 57.4424 88.1627 58.7344C83.1588 60.0264 78.9137 61.1133 78.7291 61.1543C78.524 61.1953 77.4371 60.3545 76.0631 59.083C71.5103 54.9199 68.5162 52.7256 65.1119 51.0439C63.9019 50.4697 62.5484 49.6084 61.8717 48.9932C60.4771 47.7422 58.898 45.4043 58.0162 43.292C57.1138 41.0771 56.8883 40.9131 55.2066 40.9541C54.4478 40.9746 53.0533 41.0566 52.1099 41.1387L50.3668 41.2617L49.3414 42.3486C47.1265 44.6045 43.066 45.9375 41.2203 44.9736C40.8306 44.7686 40.482 44.4609 40.441 44.2969C40.4205 44.1328 41.1588 43.1484 42.1226 42.123C47.0445 36.75 51.2896 33.7969 53.5045 34.166C55.8834 34.5557 60.0875 36.2783 66.2603 39.3955C68.7008 40.626 70.9156 41.6309 71.2027 41.6309C71.4898 41.6309 77.6627 39.2725 84.9224 36.4014C98.6217 30.9873 99.0523 30.7822 99.0523 29.6543C99.0523 29.0186 98.3756 28.1777 97.7398 28.0137C97.3707 27.9316 93.8023 29.2441 84.2867 33.0176L71.3463 38.1445L67.4088 36.1758C62.774 33.8379 59.6568 32.4844 56.8678 31.5615C55.2271 31.0283 54.5094 30.8848 53.0123 30.8848C51.2896 30.8643 51.064 30.9258 49.5875 31.623C48.7262 32.0332 47.6803 32.5869 47.2906 32.8535C46.6138 33.3252 46.4703 33.3457 45.0758 33.1611C42.0406 32.7715 37.6519 33.6123 34.0015 35.3145L32.1969 36.1553L20.1998 28.1162C12.0377 22.6406 8.05917 20.0977 7.69003 20.0977C7.3619 20.0977 6.91073 20.3438 6.54159 20.6924ZM31.151 64.2715C31.315 64.4561 31.1305 64.8252 30.5357 65.6455C30.064 66.2607 29.4078 67.3066 29.0797 67.9834C28.3004 69.5215 28.3824 69.46 27.8902 69.0088C27.1724 68.3525 26.9879 67.3682 27.3775 66.3018C27.7877 65.2559 28.7721 64.0254 29.4078 63.7793C29.8795 63.6152 30.8228 63.8818 31.151 64.2715ZM37.0367 66.2607C37.4264 66.4863 37.734 66.7324 37.734 66.7939C37.734 66.835 37.4264 67.2656 37.0367 67.7373C35.8472 69.2139 34.5142 72.29 34.1451 74.4844C34.0221 75.0791 33.94 75.2021 33.6529 75.0996C32.6685 74.6895 31.9303 74.0537 31.5611 73.2949C31.2125 72.5566 31.192 72.3105 31.3765 71.4697C31.7252 69.8906 32.6275 68.2705 33.8375 66.999C35.15 65.666 35.8267 65.502 37.0367 66.2607ZM42.6148 69.4189L43.7222 69.9316L43.2916 70.5879C41.8971 72.7002 40.9537 75.2637 40.7076 77.5811C40.564 78.9346 40.5435 78.9551 40.0103 78.832C38.3287 78.4219 37.6109 77.7861 37.4058 76.4531C37.1187 74.792 39.026 70.0547 40.2564 69.2959C41.0972 68.8037 41.3023 68.8037 42.6148 69.4189ZM48.7877 72.1055C49.1568 72.3926 49.526 72.8027 49.6285 72.9873C50.0797 73.8486 47.4957 80.6982 46.5318 81.2109C46.3062 81.334 45.7935 81.416 45.3629 81.375C44.3785 81.293 44.0914 80.7393 44.0914 78.8525C44.0914 77.0889 44.481 75.4688 45.3424 73.8076C46.4703 71.5723 47.5367 71.0391 48.7877 72.1055ZM56.7037 77.8477L59.7388 80.7598L59.0621 81.1084C57.6676 81.8262 54.776 80.9238 52.6431 79.0986L51.8638 78.4424L52.4176 76.4531C52.9303 74.6895 53.0123 74.5049 53.3199 74.71C53.5045 74.8535 55.0221 76.2686 56.7037 77.8477Z" fill="#1C2C57"/>
</svg>
