<svg width="76" height="76" viewBox="0 0 76 76" fill="none" xmlns="http://www.w3.org/2000/svg">
<g clip-path="url(#clip0_332_672)">
<path d="M68.6079 1.21719L68.6524 2.44922L69.8696 2.52344L71.0868 2.59766L66.8415 5.99688L62.5962 9.38125L60.7259 7.51094L58.8556 5.64062L55.9759 8.52031C53.2446 11.2516 53.0813 11.4 52.7103 11.2516C51.5821 10.8211 49.8157 11.2219 48.9251 12.1125C47.9454 13.107 47.5743 14.7992 48.079 15.9867L48.272 16.4617L45.0509 20.0242C42.0228 23.3789 41.8149 23.5719 41.4735 23.4383C41.2657 23.3641 40.9392 23.3047 40.7462 23.3047C40.4642 23.3047 40.3454 23.1562 40.1079 22.518C35.1649 9.38125 35.447 10.2125 35.7438 9.88594C36.9759 8.49063 37.0798 6.63516 35.9962 5.18047C34.2446 2.77578 30.4446 3.45859 29.5985 6.33828C29.4798 6.75391 29.3907 7.33281 29.4204 7.62969L29.4649 8.14922L24.5071 11.207L19.5345 14.2648L18.6884 13.8789C17.6196 13.4039 16.6548 13.3891 15.6603 13.8641C14.9032 14.2055 14.0571 15.0219 13.879 15.5711C13.7899 15.868 13.686 15.8828 10.4798 15.8828H7.16963L6.73916 15.2148C5.2251 12.825 1.75166 12.9883 0.400879 15.5117C-0.0444336 16.343 -0.0444336 17.9461 0.400879 18.7922C0.831348 19.5938 1.82588 20.4398 2.58291 20.6477C4.18603 21.0781 5.89307 20.4547 6.72432 19.1336L7.16963 18.4062H10.4649H13.7751L13.9532 18.8516C14.1759 19.4008 15.1556 20.2914 15.8235 20.5734C16.5212 20.8703 17.9165 20.8258 18.629 20.4992C19.9353 19.9055 20.7665 18.6289 20.7813 17.2039V16.3727L25.7837 13.3L30.786 10.2125L31.3501 10.5391C31.647 10.7023 32.1962 10.8953 32.5376 10.9547L33.1759 11.0586L35.5806 17.4414C36.9017 20.9594 37.9853 23.9281 38.0001 24.0617C38.0001 24.1953 37.8665 24.418 37.7181 24.5516C37.5548 24.7 37.2876 25.1602 37.1095 25.5758C36.7235 26.4516 36.7532 27.8172 37.154 28.6039C37.7923 29.8211 39.0392 30.5781 40.4493 30.5781C41.9337 30.5781 43.1954 29.7617 43.804 28.4258C44.1306 27.7133 44.1603 26.4516 43.8634 25.7539L43.6556 25.2344L46.8618 21.6719C49.8454 18.3617 50.0829 18.1242 50.454 18.2281C51.1813 18.4359 52.4431 18.3172 53.0665 18.0055C53.8384 17.5898 54.5509 16.8477 54.8478 16.1055C55.1446 15.4227 55.1743 13.9828 54.922 13.5078C54.7587 13.1961 54.8774 13.0328 56.7923 11.118L58.8556 9.05469L60.6517 10.8508L62.4478 12.6469L67.9251 8.26797L73.4024 3.88906L73.4767 5.61094L73.5509 7.34766L74.7829 7.39219L76.0001 7.43672V3.71094V0H72.2892H68.5634L68.6079 1.21719ZM33.9626 6.57578C34.7642 7.31797 33.9329 8.81719 32.8642 8.55C31.7212 8.25313 31.5876 6.67969 32.6712 6.24922C33.1165 6.07109 33.5173 6.175 33.9626 6.57578ZM52.3243 13.8789C53.4079 14.9625 51.7751 16.6102 50.6618 15.5563C50.172 15.0961 50.1868 14.2203 50.7063 13.8195C51.2407 13.4039 51.879 13.4188 52.3243 13.8789ZM4.57197 16.4172C5.01728 16.9219 4.9876 17.4563 4.46807 17.9758C3.97822 18.4656 3.72588 18.4953 3.13213 18.1836C2.67197 17.9609 2.52354 17.6938 2.52354 17.1445C2.52354 16.5805 2.68682 16.3133 3.17666 16.0906C3.74072 15.8531 4.12666 15.9422 4.57197 16.4172ZM18.0501 16.3578C18.4212 16.7586 18.3915 17.5898 17.9907 17.9906C17.3673 18.6141 16.1353 18.2875 16.0017 17.4563C15.8087 16.2539 17.2634 15.4672 18.0501 16.3578ZM41.5032 26.4367C41.7704 26.9711 41.6517 27.5203 41.1618 27.9062C40.4938 28.4258 39.6329 28.1586 39.3212 27.3422C38.8165 26.0211 40.8501 25.175 41.5032 26.4367Z" fill="#1C2C57"/>
<path d="M68.5781 34.3632V56.4062H67.3906H66.2031V39.2617V22.1171H62.4922H58.7812V33.5468V44.9765L57.5938 43.982L56.4211 42.9726L56.4062 35.5804V28.2031H52.6953H48.9844V33.9031V39.5882L48.3609 39.4695C48.0047 39.4101 47.4703 39.3507 47.1734 39.3359H46.6094V36.8124V34.289H42.8984H39.1875V37.3171C39.1875 40.3452 39.1875 40.3601 38.8609 40.4492C38.668 40.5085 37.8961 40.8648 37.1539 41.2359C36.3969 41.607 35.7586 41.889 35.7289 41.8445C35.6992 41.8148 35.4914 41.3843 35.2687 40.9093L34.8828 40.0335L35.2391 39.4992C35.432 39.2023 35.8625 38.5937 36.1891 38.1335L36.7977 37.3023L33.5023 34.0218C31.6914 32.2109 30.1477 30.7265 30.0734 30.7265C30.0141 30.7265 29.3906 31.1273 28.693 31.632L27.4461 32.5374L26.6 32.1812C26.1398 31.9734 25.5461 31.721 25.2937 31.632C24.893 31.4687 24.8188 31.3499 24.7297 30.7562C24.6852 30.3702 24.5664 29.6429 24.4773 29.1234L24.3141 28.2031H19.6086H14.8883L14.6062 29.8507L14.3242 31.4835L13.0328 32.0031L11.7414 32.5226L10.4203 31.5577L9.09922 30.6077L5.80391 33.9031C4.00781 35.6992 2.52344 37.2429 2.52344 37.3171C2.52344 37.3765 2.92422 37.9999 3.42891 38.6827L4.31953 39.9296L3.8 41.221L3.28047 42.5273L1.64766 42.8093L0 43.0913V47.8117V52.5171L1.08359 52.6952C1.6625 52.7992 2.40469 52.9179 2.73125 52.9773C3.26562 53.0663 3.325 53.1257 3.63672 53.957C3.81484 54.4468 4.05234 55.0257 4.15625 55.2484C4.33437 55.6195 4.28984 55.7085 3.42891 56.896C2.93906 57.5937 2.52344 58.2171 2.52344 58.2913C2.52344 58.3507 4.00781 59.8945 5.83359 61.7054L9.12891 65.0007L10.45 64.0359C11.1922 63.5015 11.8602 63.1156 11.9344 63.1452C12.0234 63.1898 12.6023 63.4273 13.2258 63.6796L14.3687 64.1546L14.6211 65.7726L14.8883 67.3906H19.5938H24.3141L24.3883 67.064C24.4328 66.871 24.5516 66.1882 24.6555 65.5351C24.7445 64.882 24.9078 64.2734 24.9969 64.1843C25.0859 64.0952 25.6945 63.8132 26.3328 63.546C27.7281 62.9671 27.7133 62.9671 28.4109 64.6593C29.6875 67.7913 32.0922 70.7601 34.8977 72.6898C45.5703 80.0226 60.1172 74.471 63.1602 61.8984C63.3531 61.1265 63.5609 60.1023 63.6055 59.6273L63.6945 58.7812H69.8547H76V35.5507V12.3202H72.2891H68.5781V34.3632ZM73.4766 35.5507V56.4062H72.2891H71.1016V35.5507V14.6952H72.2891H73.4766V35.5507ZM63.65 40.182C63.65 48.821 63.6055 55.6492 63.5758 55.3671C63.3531 53.5413 62.6406 51.196 61.7648 49.4742L61.3047 48.5538V36.5156V24.4921H62.4922H63.6797L63.65 40.182ZM22.4141 31.6468C22.6961 33.4429 22.6367 33.3835 24.0617 33.8288C24.7445 34.0515 25.8281 34.5117 26.4664 34.8382L27.6094 35.432L28.7375 34.6156L29.8656 33.7992L31.7359 35.6695L33.6063 37.5398L33.3094 37.9554C33.1461 38.1781 32.7898 38.6827 32.5078 39.0835L32.018 39.7812L32.7008 41.2359C33.7398 43.4179 33.7398 43.314 32.6117 44.4124L31.632 45.3476L31.3945 44.457C31.0828 43.2992 30.118 41.3992 29.3609 40.4046C25.7094 35.6843 19.2227 34.2445 13.9383 36.9757C11.0437 38.4749 8.86172 41.132 7.85234 44.3827C7.54063 45.3476 7.49609 45.8077 7.49609 47.7968C7.49609 50.3351 7.71875 51.3593 8.63906 53.2148C10.2867 56.4952 13.3742 58.9445 16.9219 59.746C18.4359 60.0874 20.8406 60.1023 22.2656 59.7609C23.3641 59.4937 25.5906 58.514 26.5406 57.8906L27.0156 57.564V58.3062C27.0156 58.707 27.0602 59.3452 27.1047 59.7163L27.2086 60.3843L26.1844 60.9038C25.6203 61.1859 24.6109 61.5866 23.943 61.8093C22.5922 62.2546 22.7258 62.0765 22.3992 64.021L22.2359 65.0156L19.6086 64.9859L16.9961 64.9413L16.8031 63.9023C16.6992 63.3234 16.5805 62.7148 16.5508 62.5366C16.4914 62.2991 16.2391 62.1507 15.482 61.8984C14.918 61.7202 13.8195 61.2749 13.018 60.889L11.5781 60.2062L11.1625 60.5031C10.9398 60.6663 10.4352 61.0226 10.0492 61.3046L9.33672 61.8093L7.46641 59.939L5.59609 58.0687L6.4125 56.9406L7.22891 55.8124L6.63516 54.6695C6.30859 54.0312 5.84844 52.9624 5.64062 52.2945C5.41797 51.6117 5.21016 51.0327 5.16563 50.9882C5.10625 50.9288 2.79062 50.4687 2.56797 50.4687C2.53828 50.4687 2.52344 49.2663 2.52344 47.8117V45.1546L3.60703 44.9765C4.18594 44.8874 4.79453 44.7687 4.94297 44.7093C5.10625 44.6499 5.38828 44.071 5.71484 43.1507C5.98203 42.3492 6.44219 41.2804 6.73906 40.7609L7.24375 39.8109L6.42734 38.6679L5.59609 37.5249L7.46641 35.6695L9.32187 33.7992L10.4797 34.6156L11.6523 35.432L12.6914 34.8679C13.2703 34.5413 14.2945 34.1109 14.9922 33.8882C15.6898 33.6656 16.3281 33.4132 16.4172 33.339C16.5063 33.2499 16.6695 32.6413 16.7734 31.9882C16.8773 31.3351 16.9812 30.7562 17.0258 30.682C17.0555 30.6226 18.243 30.5781 19.668 30.5781H22.2359L22.4141 31.6468ZM53.8828 35.9367C53.8828 40.1671 53.8383 41.2804 53.7047 41.221C53.6008 41.1617 53.0664 40.9538 52.5172 40.7312L51.5078 40.3156V35.4468V30.5781H52.6953H53.8828V35.9367ZM44.0859 38.0445V39.2765L42.8984 39.4249L41.7109 39.5585V38.1929V36.8124H42.8984H44.0859V38.0445ZM22.7406 38.5492C26.5258 39.8554 29.0938 43.1656 29.3461 47.0992L29.4352 48.3906L28.7523 49.8452C28.3813 50.632 27.9062 51.8491 27.7133 52.5468C27.4312 53.5265 27.2086 53.957 26.7336 54.5062C25.8727 55.4859 24.2398 56.5249 22.7258 57.0593C21.5531 57.4749 21.3008 57.5195 19.5938 57.5046C17.9609 57.5046 17.5898 57.4601 16.5508 57.089C13.3742 55.9906 11.1328 53.6452 10.1531 50.3796C9.78203 49.1624 9.78203 46.4312 10.1531 45.1992C11.0141 42.3788 12.8695 40.2117 15.5266 38.9351C17.7531 37.8663 20.3508 37.7327 22.7406 38.5492ZM49.3555 42.2156C54.7734 43.6406 59.0781 47.8265 60.6219 53.1999C62.5961 59.9984 59.8797 67.1382 53.8531 71.057C52.6359 71.8437 50.8398 72.6304 49.2367 73.0609C48.1828 73.3429 47.6484 73.3874 45.3477 73.3874C43.2547 73.3874 42.468 73.3429 41.7109 73.1351C38.6531 72.3038 36.2039 70.9234 34.1555 68.8601C28.5148 63.2195 27.8617 54.5062 32.6117 48.0937C33.4875 46.9062 35.2242 45.2734 36.4562 44.4421C39.4398 42.4531 42.1414 41.6812 45.793 41.7702C47.4406 41.8148 48.1828 41.9038 49.3555 42.2156Z" fill="#1C2C57"/>
<path d="M17.4415 40.8052C16.1204 41.2802 15.3931 41.7404 14.4579 42.6607C12.2017 44.917 11.6673 48.2865 13.0923 51.1365C13.2556 51.4631 13.4189 51.7599 13.4486 51.7896C13.4782 51.8193 13.9384 51.567 14.4728 51.2107C15.3782 50.617 15.6157 50.3052 15.304 50.1123C15.2298 50.0677 15.0517 49.5927 14.9181 49.0732C14.5915 47.856 14.7103 46.7873 15.304 45.5849C15.8236 44.5459 16.5212 43.8927 17.6642 43.3584C18.7775 42.8537 20.529 42.824 21.5087 43.3138C21.8798 43.492 22.2212 43.6404 22.2806 43.6404C22.3993 43.6404 23.6611 41.7256 23.5868 41.6513C23.379 41.4435 21.9243 40.8052 21.3751 40.6865C20.3212 40.4342 18.2876 40.5084 17.4415 40.8052Z" fill="#1C2C57"/>
<path d="M24.6852 44.4275C24.0321 44.8728 23.7797 45.1103 23.854 45.2736C24.5665 46.9657 24.6704 48.2126 24.1805 49.4892C23.7797 50.5728 22.7555 51.6861 21.7016 52.2056C20.9743 52.5618 20.6774 52.6212 19.5938 52.6212C18.5696 52.6212 18.1985 52.547 17.6196 52.265C17.2337 52.072 16.8922 51.9384 16.8626 51.9681C16.5805 52.3243 15.5712 53.9126 15.6157 53.9571C15.779 54.1353 17.2485 54.7736 17.8126 54.922C18.7774 55.1892 20.5735 55.1446 21.5829 54.8626C23.9876 54.165 25.8579 52.3095 26.6446 49.8751C26.986 48.8212 26.986 46.9657 26.6594 45.7931C26.3922 44.9173 25.8579 43.7743 25.6946 43.804C25.6501 43.804 25.1899 44.0861 24.6852 44.4275Z" fill="#1C2C57"/>
<path d="M43.7738 44.2344C43.2394 44.2937 42.3636 44.4719 41.8441 44.6055C40.0628 45.0805 36.9457 46.7578 36.9605 47.2477C36.9605 47.3367 37.3019 47.7969 37.6878 48.2422L38.4152 49.0586L39.0683 48.5984C40.2855 47.7227 41.5472 47.1883 43.1652 46.8469L44.0855 46.6391V47.8117V48.9844H45.3472H46.6089V47.8117V46.6539L47.3214 46.7727C51.4925 47.5594 54.9808 50.7953 56.0199 54.8625C56.4207 56.4359 56.4355 56.4062 55.0699 56.4062H53.8824V57.5938V58.7812H55.0699C56.4503 58.7812 56.4207 58.707 55.9753 60.4437C55.6636 61.6312 55.1589 62.7594 54.4613 63.7836C54.2238 64.125 54.0308 64.4664 54.0308 64.5555C54.0308 64.7039 55.6042 66.0547 55.7824 66.0547C55.9308 66.0547 57.0441 64.3477 57.4597 63.5312C59.1667 60.0727 59.2261 55.5898 57.6082 52.0273C55.9308 48.3461 52.398 45.4367 48.5089 44.5461C47.0097 44.1898 45.0949 44.0711 43.7738 44.2344Z" fill="#1C2C57"/>
<path d="M34.3629 49.8305C33.6207 50.8399 32.6855 52.8141 32.3441 54.1501C31.9582 55.5899 31.8246 58.2024 32.0472 59.6719C32.4629 62.2993 33.68 64.793 35.5355 66.7524C40.1371 71.636 47.3066 72.4821 52.8582 68.786L53.8824 68.1032L53.6004 67.7173C53.4371 67.4946 53.0808 67.0493 52.7988 66.7227C52.309 66.1587 52.2644 66.1438 52.0121 66.3813C51.1066 67.1829 48.7019 68.2071 47.0988 68.4891L46.609 68.5782V67.3907V66.2032H45.3472H44.0855V67.3907V68.593L43.5363 68.4891C39.291 67.7469 35.7582 64.4813 34.6746 60.3102C34.2738 58.7516 34.259 58.7813 35.6246 58.7813H36.8121V57.5938V56.4063H35.6097H34.4074L34.5113 55.768C34.734 54.3282 35.5355 52.4282 36.5152 51.0626L36.8121 50.6469L36.1144 50.068C34.8082 49.0141 34.9566 49.029 34.3629 49.8305Z" fill="#1C2C57"/>
<path d="M44.0859 55.1445V58.7812H46.5352H48.9844V57.5938V56.4062H47.7969H46.6094V53.957V51.5078H45.3477H44.0859V55.1445Z" fill="#1C2C57"/>
</g>
<defs>
<clipPath id="clip0_332_672">
<rect width="76" height="76" fill="white"/>
</clipPath>
</defs>
</svg>
