<svg width="70" height="70" viewBox="0 0 70 70" fill="none" xmlns="http://www.w3.org/2000/svg">
<path d="M5.72852 2.37882C3.70508 3.07609 2.32422 4.52531 1.72266 6.54874C1.54492 7.15031 1.50391 7.97062 1.50391 10.8007C1.50391 14.1913 1.51758 14.328 1.79102 14.5741C2.06445 14.8202 2.37891 14.8339 6.91797 14.8749L11.7578 14.9159V38.8691C11.7578 65.2011 11.7031 63.6288 12.5781 65.1464C13.0566 65.9804 14.2188 67.1151 15.0117 67.5253C16.4336 68.2499 15.3809 68.2226 39.4434 68.2226C63.8066 68.2226 62.5078 68.2636 64.0117 67.4433C64.873 66.9784 65.8848 65.953 66.3633 65.0644C67.0195 63.8612 67.1289 63.205 67.1289 60.1425C67.1289 57.6542 67.1016 57.2851 66.8965 57.0253C66.6641 56.7655 66.5 56.7382 64.5312 56.7108L62.4121 56.6698L62.3438 31.6503L62.2754 6.63078L61.8379 5.71476C61.5918 5.19523 61.2227 4.56632 61.0176 4.27921C60.4297 3.51359 59.1445 2.63859 58.1465 2.32413C57.2715 2.0507 56.9297 2.0507 31.9375 2.06437H6.63086L5.72852 2.37882ZM9.37891 4.37492C10.2129 4.78507 11.0195 5.59171 11.4023 6.41203C11.6621 6.98624 11.6895 7.31437 11.7305 10.0077L11.7715 12.9882H7.60156H3.41797V10.2128C3.41797 7.21867 3.48633 6.80851 4.08789 5.85148C5.16797 4.15617 7.5332 3.48624 9.37891 4.37492ZM57.7773 4.19718C58.6934 4.51163 59.8828 5.70109 60.1973 6.6171C60.416 7.24601 60.4297 9.2421 60.4297 31.9511V56.6015H41.6992C21.7246 56.6015 22.3398 56.5878 22.0938 57.2167C22.0527 57.3398 22.0117 58.6249 22.0117 60.0741C22.0117 63.2733 21.9023 63.7792 20.918 64.8456C20.0293 65.83 19.1406 66.2265 17.8418 66.2265C16.5977 66.2265 15.6816 65.83 14.834 64.9276C13.6309 63.6425 13.7539 66.7597 13.6719 35.0683L13.6035 6.90421L13.3027 6.11124C13.1387 5.67374 12.7832 5.01749 12.5234 4.64835L12.0312 3.96476H34.5625C55.2891 3.96476 57.1484 3.97843 57.7773 4.19718ZM65.2148 60.662C65.2148 61.8515 65.1465 63.0546 65.0781 63.328C64.7363 64.5448 63.4238 65.8437 62.207 66.1718C61.8652 66.2675 55.0566 66.2948 42.0684 66.2812L22.4355 66.2401L22.9004 65.5565C23.748 64.2851 23.9258 63.4648 23.9258 60.9081V58.6523L42.834 58.6112C53.2246 58.5976 62.5078 58.5702 63.4785 58.5429L65.2148 58.5155V60.662Z" fill="#1C2C57"/>
<path d="M35.7246 15.5175C35.4922 15.6132 34.8906 16.0097 34.4121 16.3925L33.5098 17.1034L32.2793 16.9394C31.6094 16.8573 30.8437 16.8163 30.5977 16.871C29.7773 17.0214 29.2168 17.6366 28.6699 18.9628L28.1641 20.1796L27.0293 20.6444C25.0469 21.4511 24.6641 22.1073 24.9102 24.2538L25.0605 25.539L24.2539 26.6054C23.4609 27.6444 23.4473 27.6718 23.4473 28.5741C23.4473 29.4765 23.4609 29.5038 24.2402 30.5292C25.0879 31.664 25.1289 31.8144 24.8828 33.2909C24.6094 34.9316 25.252 35.8612 27.0977 36.5585L28.1504 36.9413L28.5195 37.8163L28.8887 38.6913L26.9473 43.2577C24.8418 48.2069 24.7598 48.5487 25.457 48.9316C25.7988 49.123 25.9355 49.1093 27.3984 48.6444L28.9844 48.1659L29.1758 48.453C29.2715 48.6171 29.6133 49.2597 29.9277 49.8749C30.5293 51.078 30.8848 51.3788 31.5137 51.2148C31.9375 51.1054 31.9102 51.1601 34.1523 45.8827L35.8887 41.7948H36.5723H37.2422L39.1836 46.3612C41.2754 51.2968 41.3984 51.4745 42.2051 51.1874C42.4922 51.0917 42.7383 50.7636 43.2715 49.7655C43.6406 49.0409 43.9961 48.3984 44.0508 48.3026C44.1328 48.2069 44.5977 48.289 45.6094 48.6171C46.416 48.8769 47.1816 49.0819 47.332 49.0819C47.6875 49.0819 48.125 48.5898 48.125 48.1796C48.125 47.9745 47.2637 45.8007 46.2109 43.3261C45.1582 40.8515 44.2969 38.787 44.2969 38.7187C44.2969 38.6503 44.4473 38.2401 44.625 37.8026L44.9531 37.0097L46.1562 36.4901C48.0293 35.6835 48.5215 34.9179 48.2617 33.2909C48.0156 31.8007 48.0566 31.6366 48.918 30.5155C49.6836 29.5038 49.6973 29.4765 49.6973 28.5741C49.6973 27.6581 49.6973 27.6444 48.8906 26.6054L48.084 25.539L48.2344 24.2538C48.4805 22.1073 48.1387 21.5058 46.1562 20.6581L44.9394 20.1386L44.4883 18.9902C43.9687 17.705 43.3535 17.0214 42.5605 16.871C42.3008 16.8163 41.5352 16.8573 40.8652 16.9394L39.6348 17.1034L38.7324 16.3925C37.3652 15.3124 36.6543 15.1073 35.7246 15.5175ZM37.748 18.1152C38.8965 19.0038 39.293 19.0995 40.9473 18.8944C41.6172 18.8124 42.2187 18.7851 42.2598 18.8398C42.3145 18.8944 42.5469 19.414 42.793 20.0019C43.4082 21.4784 43.668 21.7382 45.1172 22.3398C46.5117 22.9276 46.4844 22.8593 46.2109 24.5819C46.0195 25.7441 46.1836 26.2909 47.0996 27.453C47.5098 27.9862 47.8516 28.4921 47.8516 28.5741C47.8516 28.6698 47.5371 29.1484 47.1406 29.6405C46.1426 30.9257 46.0332 31.2812 46.2383 32.8808C46.3477 33.7011 46.3613 34.2206 46.2793 34.289C46.1973 34.3573 45.7187 34.5898 45.1855 34.7948C43.6816 35.4101 43.4355 35.6425 42.8477 37.0507C42.5742 37.7343 42.2871 38.3222 42.2324 38.3495C42.1777 38.3905 41.5078 38.3495 40.7559 38.2538C39.1426 38.0624 38.9785 38.1171 37.5156 39.2382C37.0098 39.621 36.5449 39.8808 36.4629 39.8261C36.3672 39.7851 35.957 39.4706 35.5332 39.1562C34.1797 38.1308 33.9746 38.0624 32.4023 38.2675C31.6504 38.3495 30.9805 38.4042 30.9121 38.3632C30.8574 38.3222 30.5703 37.7343 30.2969 37.0507C29.6953 35.6288 29.4355 35.3691 27.9043 34.7812C27.3574 34.5761 26.8652 34.3163 26.8242 34.2069C26.7832 34.0976 26.8242 33.4687 26.9062 32.8261C27.1113 31.3359 27.0156 31.0077 26.0449 29.7226C25.6348 29.1757 25.293 28.6562 25.293 28.5741C25.293 28.4921 25.6348 27.9862 26.0449 27.453C26.9473 26.3046 27.1113 25.7987 26.9336 24.6093C26.6738 22.8319 26.6328 22.9276 28.0137 22.3534C28.6836 22.0663 29.3672 21.7109 29.5176 21.5468C29.6816 21.3827 30.0371 20.6855 30.3242 20.0155L30.8437 18.7987L31.5957 18.8671C32.0059 18.9081 32.7715 18.9355 33.3047 18.9355C34.2754 18.9355 34.2754 18.9355 35.2871 18.1562C35.8477 17.7323 36.4082 17.3769 36.5449 17.3769C36.6816 17.3632 37.2285 17.705 37.748 18.1152ZM33.9336 40.373L34.3164 40.6737L32.7988 44.2284C31.9648 46.1835 31.2402 47.8378 31.1719 47.9062C31.1035 47.9745 30.8984 47.7011 30.6934 47.2909C30.0234 45.9511 29.791 45.8554 28.3965 46.3339C27.959 46.4843 27.6172 46.5663 27.6309 46.5116C27.6309 46.4569 28.2324 45.0351 28.957 43.3534L30.2832 40.2773L31.0352 40.3046C31.4453 40.3046 32.0605 40.2636 32.4023 40.2089C33.3594 40.0312 33.5371 40.0448 33.9336 40.373ZM41.7676 40.2773L42.8613 40.3183L44.1875 43.4355C44.9258 45.1444 45.5273 46.5663 45.5273 46.58C45.5273 46.5937 45.1855 46.4843 44.748 46.3339C43.3535 45.8554 43.2031 45.9237 42.4375 47.2773C42.1914 47.7011 41.9727 47.9609 41.918 47.8788C41.8633 47.7968 41.1523 46.1425 40.332 44.2011L38.8281 40.6874L39.2109 40.373C39.5117 40.1132 39.6758 40.0722 40.127 40.1405C40.4277 40.1816 41.166 40.2499 41.7676 40.2773Z" fill="#1C2C57"/>
<path d="M35.9297 22.7909C35.8066 22.9276 35.3965 23.6796 35 24.4725C34.6035 25.2655 34.2754 25.9218 34.2617 25.9354C34.248 25.9628 33.4551 26.0858 32.498 26.2225C30.5703 26.5097 30.2148 26.6874 30.2148 27.3983C30.2148 27.7538 30.4199 28.0136 31.5273 29.0663L32.8535 30.2968L32.5391 32.1015C32.252 33.7831 32.2383 33.9198 32.457 34.2343C32.8672 34.8768 33.209 34.8358 34.959 33.9061L36.5586 33.0585L38.1855 33.9061C39.9355 34.8222 40.2773 34.8768 40.6875 34.2479C40.8926 33.9335 40.8789 33.7831 40.6055 32.1015L40.3047 30.2968L41.6172 29.0526C42.7383 27.9999 42.9297 27.7538 42.9297 27.3847C42.9297 26.6874 42.5059 26.4686 40.5781 26.1952C39.6621 26.0585 38.8965 25.9491 38.8828 25.9354C38.8691 25.9218 38.541 25.2655 38.1445 24.4725C37.2832 22.7362 37.1328 22.5585 36.5723 22.5585C36.3262 22.5585 36.0391 22.6679 35.9297 22.7909ZM37.8301 27.6718C37.9668 27.7128 38.3223 27.7811 38.623 27.8222C38.9238 27.8768 39.3477 27.9452 39.5664 27.9862L39.9492 28.0546L39.1973 28.8339C38.7734 29.2577 38.418 29.6952 38.4043 29.8046C38.3633 30.0507 38.541 31.5409 38.6504 31.8143C38.7051 31.9374 38.3633 31.828 37.7617 31.5272C37.2285 31.2538 36.6816 31.035 36.5449 31.035C36.4082 31.035 35.9023 31.2538 35.4238 31.5136C34.9316 31.7733 34.5215 31.9784 34.5078 31.9511C34.4941 31.9374 34.5352 31.6503 34.5898 31.3085C34.8633 29.9276 34.7949 29.6815 33.9609 28.8339L33.1953 28.0546L34.1934 27.8905C34.7539 27.7948 35.3008 27.6718 35.4102 27.6171C35.5195 27.5487 35.834 27.0702 36.0938 26.5233L36.5586 25.5526L37.0781 26.578C37.3652 27.1386 37.6934 27.6308 37.8301 27.6718Z" fill="#1C2C57"/>
</svg>
