<svg width="71" height="71" viewBox="0 0 71 71" fill="none" xmlns="http://www.w3.org/2000/svg">
<g clip-path="url(#clip0_332_682)">
<path d="M26.7914 0.41584C26.5418 0.471313 26.209 0.637718 26.0426 0.77639C25.4602 1.30334 25.377 1.77483 25.377 4.784C25.377 6.351 25.3354 7.62678 25.2799 7.62678C24.9193 7.62678 13.576 9.60979 13.2709 9.73459C13.0629 9.81779 12.7301 10.0674 12.5498 10.2893C12.1199 10.8024 12.1061 11.4264 12.4805 13.5065C12.633 14.3524 12.7162 15.0735 12.6607 15.1151C12.5914 15.1705 10.2479 16.0026 7.41895 16.9594C0.693359 19.2613 0.693359 19.2613 0.318945 19.8299C0.138672 20.0795 0 20.4678 0 20.6897C0 21.1196 7.50215 42.1561 7.84883 42.6692C8.1123 43.0852 8.69473 43.2238 9.13848 42.9742C9.94277 42.5166 10.0398 42.8633 5.99062 31.5754C3.91055 25.8205 2.21875 21.0779 2.21875 21.0364C2.21875 20.9947 2.5793 20.8422 3.02305 20.6897C5.29727 19.8854 13.1045 17.2229 13.1184 17.2367C13.1322 17.2506 14.8656 27.3737 16.9734 39.7293C19.5111 54.5256 20.8979 62.3328 21.0643 62.6102C21.1891 62.832 21.5357 63.151 21.827 63.2897C22.2984 63.5254 22.451 63.5393 23.283 63.3867C29.6758 62.2774 42.0592 60.1834 42.1008 60.2112C42.1424 60.2666 19.4695 68.4205 19.3309 68.4067C19.2615 68.3928 17.4311 63.4145 15.24 57.3268C13.049 51.2391 11.1908 46.1498 11.1076 46.0112C10.4836 44.9988 8.97207 45.7199 9.29102 46.8709C9.45742 47.4672 17.2092 68.9613 17.4727 69.5715C17.6252 69.9182 17.8887 70.2371 18.1521 70.3619C19.0119 70.8195 18.4295 70.9998 31.0625 66.4514C40.4783 63.0678 43.3072 62.0555 48.6738 60.1141C53.985 58.2004 54.4148 58.0617 56.6475 57.6873C58.9771 57.2852 59.0742 57.2713 64.2744 57.2713C70.1818 57.2713 70.2789 57.2574 70.7504 56.3006C70.9861 55.843 71 54.4285 71 32.7819V9.74846L70.6949 9.31858C70.376 8.87482 62.0834 0.956665 61.5287 0.568382C61.2514 0.374237 59.3654 0.346504 44.2363 0.318771C34.8898 0.318771 27.041 0.346504 26.7914 0.41584ZM59.2129 6.03205C59.2961 10.1506 59.3377 10.317 60.4471 10.9133C61.0434 11.2184 61.1404 11.2322 64.9955 11.2322H68.9199V33.2117V55.1912H48.1885H27.457V44.8047V34.4043L27.0965 34.127C26.8885 33.9606 26.6389 33.8358 26.5418 33.8358C26.1812 33.8358 25.682 34.1547 25.5295 34.4875C25.4186 34.7233 25.377 37.8988 25.377 45.2346C25.377 55.4547 25.377 55.6766 25.6543 56.2451C26.1812 57.3268 25.6404 57.2713 36.6371 57.2852L46.3857 57.299L34.6402 59.3237C28.1781 60.433 22.867 61.3205 22.8254 61.2789C22.7561 61.2096 14.4496 12.7299 14.3941 12.0781L14.3525 11.6067L19.4141 10.733C22.2014 10.2477 24.6836 9.81779 24.9332 9.77619L25.377 9.69299V20.0102C25.377 30.2442 25.377 30.3412 25.6682 30.7018C26.0287 31.1594 26.7637 31.201 27.1797 30.785C27.457 30.5076 27.457 30.3274 27.457 16.5295C27.457 8.83323 27.4986 2.49592 27.5541 2.45432C27.5957 2.39885 34.7373 2.37112 43.3904 2.38498L59.1436 2.42658L59.2129 6.03205ZM66.2574 7.86252L67.6025 9.1383L64.4824 9.11057L61.3623 9.08283L61.3207 6.11526L61.293 3.14767L63.0957 4.86721C64.0941 5.81018 65.5225 7.15529 66.2574 7.86252Z" fill="#1C2C57"/>
<path d="M33.2114 15.5174C32.5319 15.7947 32.3239 16.6684 32.7954 17.1953C33.045 17.4727 33.1836 17.4727 48.4098 17.4727H63.7747L64.052 17.1121C64.4264 16.6268 64.4126 16.3217 64.0104 15.8502L63.6776 15.4619L48.5762 15.4342C40.2836 15.4203 33.3639 15.4619 33.2114 15.5174Z" fill="#1C2C57"/>
<path d="M32.8514 23.1305C32.3938 23.5049 32.4354 24.2121 32.9208 24.642L33.2952 24.9609H48.3272C59.0465 24.9609 63.4563 24.9193 63.692 24.8084C64.0249 24.6559 64.3438 24.1566 64.3438 23.7961C64.3438 23.699 64.219 23.4494 64.0526 23.2414L63.7752 22.8809H48.4659C33.8083 22.8809 33.1565 22.8947 32.8514 23.1305Z" fill="#1C2C57"/>
<path d="M32.9622 30.3969C32.4075 30.8268 32.463 31.9916 33.0731 32.2273C33.1979 32.2689 40.1315 32.3105 48.4796 32.3105H63.6641L63.997 31.9639C64.4407 31.534 64.4407 31.007 63.997 30.5771L63.6641 30.2305H48.4241C36.4567 30.2305 33.1425 30.2721 32.9622 30.3969Z" fill="#1C2C57"/>
<path d="M32.9208 37.899C32.4354 38.3289 32.3938 39.0361 32.8514 39.4105C33.1565 39.6463 33.8083 39.6602 48.4659 39.6602H63.7752L64.0526 39.2996C64.219 39.0916 64.3438 38.842 64.3438 38.7449C64.3438 38.3844 64.0249 37.8852 63.692 37.7326C63.4563 37.6217 59.0465 37.5801 48.3272 37.5801H33.2952L32.9208 37.899Z" fill="#1C2C57"/>
<path d="M32.7958 45.3457C32.4491 45.734 32.4769 46.3996 32.8513 46.774L33.1564 47.0791H48.4103H63.6781L64.0109 46.6908C64.413 46.2193 64.4269 45.9143 64.0525 45.4289L63.7751 45.0684H48.4103C33.1841 45.0684 33.0454 45.0684 32.7958 45.3457Z" fill="#1C2C57"/>
</g>
<defs>
<clipPath id="clip0_332_682">
<rect width="71" height="71" fill="white"/>
</clipPath>
</defs>
</svg>
