<svg width="76" height="76" viewBox="0 0 76 76" fill="none" xmlns="http://www.w3.org/2000/svg">
<path d="M3.5624 1.38037C2.83506 1.61787 1.58818 2.89443 1.36553 3.65146C1.11318 4.52724 1.11318 19.2226 1.36553 20.0983C1.60303 20.9147 2.83506 22.1468 3.65146 22.3843C4.09678 22.5179 5.99678 22.5624 10.2866 22.5624H16.3132L19.9944 24.7741L23.6757 26.9858L23.7202 24.7741L23.7647 22.5624H28.7522C32.2257 22.5624 33.9179 22.503 34.3483 22.3843C35.1647 22.1468 36.3968 20.9147 36.6343 20.0983C36.8866 19.2374 36.8866 4.52724 36.6343 3.68115C36.5452 3.35459 36.1741 2.76084 35.8179 2.3749C34.6749 1.11318 35.7882 1.1874 18.9405 1.20225C8.56475 1.21709 3.91865 1.26162 3.5624 1.38037ZM34.0663 3.93349L34.4374 4.28975V11.8749V19.4601L34.0663 19.8163L33.7101 20.1874H27.5351H21.3749V21.5233V22.8444L19.1632 21.5233L16.9515 20.1874H10.628H4.28975L3.9335 19.8163L3.5624 19.4601V11.8749V4.28975L3.9335 3.93349L4.28975 3.5624H18.9999H33.7101L34.0663 3.93349Z" fill="#1C2C57"/>
<path d="M8.31268 8.50529C8.03065 8.59435 7.45174 9.00998 7.05096 9.4256C5.99705 10.4647 5.70018 11.5779 6.1158 12.9733C6.3533 13.7897 7.58534 15.0217 8.40174 15.2592C9.79706 15.6748 10.9103 15.3779 11.9494 14.324C13.4041 12.8842 13.4486 11.0287 12.0681 9.49982C11.1033 8.43107 9.72284 8.05998 8.31268 8.50529ZM10.3166 11.0584C11.0588 11.7858 10.5392 13.0623 9.50018 13.0623C8.89159 13.0623 8.31268 12.4834 8.31268 11.8748C8.31268 11.2662 8.89159 10.6873 9.50018 10.6873C9.78221 10.6873 10.0939 10.8209 10.3166 11.0584Z" fill="#1C2C57"/>
<path d="M17.8127 8.50529C17.5306 8.59435 16.9517 9.00998 16.551 9.4256C15.4971 10.4647 15.2002 11.5779 15.6158 12.9733C15.8533 13.7897 17.0853 15.0217 17.9017 15.2592C19.2971 15.6748 20.4103 15.3779 21.4494 14.324C22.9041 12.8842 22.9486 11.0287 21.5682 9.49982C20.6033 8.43107 19.2228 8.05998 17.8127 8.50529ZM19.8166 11.0584C20.5588 11.7858 20.0392 13.0623 19.0002 13.0623C18.3916 13.0623 17.8127 12.4834 17.8127 11.8748C17.8127 11.2662 18.3916 10.6873 19.0002 10.6873C19.2822 10.6873 19.5939 10.8209 19.8166 11.0584Z" fill="#1C2C57"/>
<path d="M27.3127 8.50547C26.5853 8.74297 25.3385 10.0195 25.1158 10.7766C24.7002 12.1719 24.9971 13.2852 26.051 14.3242C26.808 15.0961 27.565 15.4375 28.5002 15.4375C29.4353 15.4375 30.1924 15.0961 30.9494 14.3242C32.4041 12.8844 32.4486 11.0289 31.0681 9.5C30.1033 8.43125 28.7228 8.06016 27.3127 8.50547ZM29.3166 11.0586C30.0588 11.7859 29.5392 13.0625 28.5002 13.0625C27.8916 13.0625 27.3127 12.4836 27.3127 11.875C27.3127 11.2664 27.8916 10.6875 28.5002 10.6875C28.7822 10.6875 29.0939 10.8211 29.3166 11.0586Z" fill="#1C2C57"/>
<path d="M41.5624 10.8805C40.8351 11.118 39.5882 12.3945 39.3655 13.1516C39.1132 14.0273 39.1132 31.0977 39.3655 31.9734C39.603 32.7898 40.8351 34.0219 41.6515 34.2594C41.9929 34.3633 42.9132 34.4375 43.6999 34.4375H45.1249V37.1836V39.9297L50.6171 37.1836L56.1093 34.4375H63.9171C69.6171 34.4375 71.903 34.393 72.3483 34.2594C73.1648 34.0219 74.3968 32.7898 74.6343 31.9734C74.8866 31.1125 74.8866 14.0273 74.6343 13.1813C74.5452 12.8547 74.1741 12.2609 73.8179 11.875C72.6749 10.6133 73.7882 10.6875 56.9405 10.7023C46.5647 10.7172 41.9187 10.7617 41.5624 10.8805ZM72.0663 13.4336L72.4374 13.7898V22.5625V31.3352L72.0663 31.6914L71.7101 32.0625H63.6054H55.5155L51.5077 34.0664L47.4999 36.0703V34.0664V32.0625H44.9022C42.3343 32.0625 42.2897 32.0625 41.9335 31.6914L41.5624 31.3352V22.5625V13.7898L41.9335 13.4336L42.2897 13.0625H56.9999H71.7101L72.0663 13.4336Z" fill="#1C2C57"/>
<path d="M58.1875 21.375V27.3125H57H55.8125V23.75V20.1875H54.625H53.4375V23.75V27.3125H52.25H51.0625V24.9375V22.5625H49.875H48.6875V24.9375V27.3125H47.5H46.3125V28.5V29.6875H58.1875H70.0625V22.5625V15.4375H68.875H67.6875V21.375V27.3125H66.5H65.3125V22.5625V17.8125H64.125H62.9375V22.5625V27.3125H61.75H60.5625V21.375V15.4375H59.375H58.1875V21.375Z" fill="#1C2C57"/>
<path d="M19.2523 29.7914C19.2227 29.8656 18.9555 30.8305 18.6883 31.9734C18.2875 33.6062 18.1242 34.0516 17.8867 34.1555C17.7234 34.2297 16.9813 34.5414 16.2242 34.8531L14.8586 35.432L13.0328 34.3484C12.0234 33.7398 11.1328 33.25 11.0586 33.25C10.8656 33.25 4.75 39.3656 4.75 39.5586C4.75 39.6477 5.23984 40.5234 5.84844 41.5328L6.94688 43.3586L6.35313 44.7242C6.02656 45.4812 5.71484 46.2234 5.65547 46.3867C5.56641 46.6094 5.09141 46.7875 3.39922 47.2031L1.26172 47.7375V52.25V56.7625L3.39922 57.2969C5.09141 57.7125 5.56641 57.8906 5.65547 58.1133C5.71484 58.2766 6.02656 59.0187 6.35313 59.7758L6.94688 61.1414L5.84844 62.9672C5.23984 63.9766 4.75 64.8523 4.75 64.9414C4.75 65.1344 10.8656 71.25 11.0586 71.25C11.1328 71.25 12.0234 70.7602 13.0328 70.1516L14.8586 69.068L16.2242 69.6469C16.9813 69.9586 17.7234 70.2703 17.8867 70.3445C18.1094 70.4336 18.2875 70.9086 18.7031 72.6008L19.2375 74.7383H23.75H28.2625L28.7969 72.6008L29.3313 70.4484L30.5039 69.9883C31.157 69.7359 31.8992 69.4094 32.1516 69.2758L32.6117 69.0383L34.4523 70.1516C35.4617 70.7453 36.3672 71.25 36.4414 71.25C36.6344 71.25 42.75 65.1344 42.75 64.9414C42.75 64.8523 42.2602 63.9766 41.6516 62.9672L40.568 61.1414L41.1469 59.7758C41.4586 59.0187 41.7703 58.2766 41.8445 58.1133C41.9336 57.8906 42.4086 57.7125 44.1008 57.2969L46.2383 56.7625V52.25V47.7375L44.1008 47.2031C42.4086 46.7875 41.9336 46.6094 41.8445 46.3867C41.7703 46.2234 41.4586 45.4812 41.1469 44.7242L40.568 43.3586L41.6516 41.5328C42.2602 40.5234 42.75 39.6328 42.75 39.5586C42.75 39.3656 36.6344 33.25 36.4414 33.25C36.3523 33.25 35.4617 33.7547 34.4523 34.3484L32.6117 35.4617L32.1516 35.2242C31.8992 35.0906 31.157 34.7641 30.5039 34.5117L29.3313 34.0516L28.7969 31.8992L28.2625 29.7617L23.7945 29.7172C21.3305 29.7023 19.282 29.732 19.2523 29.7914ZM26.882 34.0219L27.3867 35.9961L28.7969 36.4562C29.5836 36.7086 30.7563 37.1984 31.4391 37.5398L32.6563 38.1781L34.4227 37.1391L36.1891 36.1148L38.0445 37.9852L39.9 39.8555L38.8609 41.607L37.8219 43.3437L38.4602 44.5609C38.8016 45.2437 39.2914 46.4164 39.5438 47.1883L40.0039 48.5836L41.9781 49.1031L43.9375 49.6227V52.25V54.8773L41.9781 55.3969L40.0039 55.9164L39.5438 57.3117C39.2914 58.0836 38.8016 59.2562 38.4602 59.9391L37.8219 61.1562L38.8609 62.893L39.9 64.6445L38.0445 66.5148L36.1891 68.3852L34.4227 67.3609L32.6563 66.3219L31.4391 66.9602C30.7563 67.3016 29.5836 67.7914 28.7969 68.0437L27.3867 68.5039L26.882 70.4781L26.3773 72.4375H23.75H21.1227L20.618 70.4781L20.1133 68.5039L18.7031 68.0437C17.9164 67.7914 16.7289 67.3016 16.0609 66.9453L14.8438 66.3219L13.3891 67.1828C12.6023 67.643 11.8156 68.118 11.6523 68.2219C11.3703 68.4148 11.207 68.2812 9.47031 66.5297L7.58516 64.6445L8.63906 62.9078L9.67813 61.1562L9.05469 59.9391C8.69844 59.2711 8.20859 58.0836 7.95625 57.2969L7.49609 55.8867L5.52188 55.382L3.5625 54.8773V52.25V49.6227L5.52188 49.118L7.49609 48.6133L7.95625 47.2031C8.20859 46.4164 8.69844 45.2289 9.05469 44.5609L9.67813 43.3437L8.63906 41.5922L7.58516 39.8555L9.47031 37.9703C11.207 36.2187 11.3703 36.0852 11.6523 36.2781C11.8156 36.382 12.6023 36.857 13.3891 37.3172L14.8438 38.1781L16.0609 37.5547C16.7289 37.1984 17.9164 36.7086 18.6883 36.4562L20.0984 35.9961L20.6031 34.0219L21.1227 32.0625H23.75H26.3773L26.882 34.0219Z" fill="#1C2C57"/>
<path d="M21.2711 38.2227C18.2875 38.7571 15.8531 40.0634 13.6562 42.2899C11.7414 44.2196 10.5094 46.4165 9.84141 49.0735C9.48516 50.4837 9.48516 54.0165 9.84141 55.4267C10.5094 58.0837 11.7414 60.2806 13.6562 62.2102C16.2836 64.8821 19.3711 66.2626 23.082 66.4556C27.1938 66.6634 30.7859 65.2532 33.7695 62.2696C35.8031 60.236 36.9758 58.1727 37.6586 55.4267C38.0148 54.0165 38.0148 50.4837 37.6586 49.0735C37.2875 47.604 36.5898 45.9563 35.8031 44.6798C34.8828 43.1657 32.7453 41.0727 31.1867 40.1079C28.2773 38.3267 24.5813 37.6142 21.2711 38.2227ZM26.5703 40.7165C29.6727 41.5626 32.018 43.2548 33.7102 45.8376C35.0164 47.8267 35.5508 49.6673 35.5508 52.2501C35.5508 55.6048 34.4375 58.3063 32.1219 60.622C27.5203 65.2235 20.0687 65.2532 15.4523 60.6962C13.0625 58.336 11.9492 55.6493 11.9492 52.2501C11.9492 49.6673 12.4836 47.8415 13.8047 45.8079C15.5563 43.136 18.3023 41.2657 21.5234 40.5829C22.7109 40.3306 25.4125 40.4048 26.5703 40.7165Z" fill="#1C2C57"/>
<path d="M21.983 45.3624C18.2276 46.3718 15.8971 50.2757 16.8471 53.957C17.8416 57.757 21.7307 60.1171 25.4565 59.1523C29.2565 58.1577 31.6166 54.2687 30.6518 50.5726C29.6573 46.7281 25.7088 44.3531 21.983 45.3624ZM25.9909 48.1085C26.9854 48.6429 27.4455 49.1179 28.0245 50.2312C28.351 50.8695 28.4104 51.1812 28.4104 52.2499C28.4252 53.4078 28.3807 53.5859 27.9205 54.4468C27.3565 55.4859 26.8815 55.9312 25.7682 56.5249C25.1299 56.8515 24.8182 56.9109 23.7495 56.9109C22.6807 56.9109 22.369 56.8515 21.7307 56.5249C20.6174 55.9312 20.1424 55.4859 19.5784 54.4468C19.1182 53.5859 19.0737 53.4078 19.0885 52.2499C19.0885 50.7656 19.4448 49.8749 20.4096 48.9101C21.894 47.4257 24.1057 47.114 25.9909 48.1085Z" fill="#1C2C57"/>
<path d="M59.4494 48.9101C58.1728 49.1476 57.1931 49.4741 56.0353 50.0382L55.1447 50.4835L51.7009 50.0827C49.8009 49.8601 48.2127 49.7116 48.1533 49.7562C48.1088 49.8007 48.5838 51.0476 49.1923 52.5023C49.8158 53.9569 50.3205 55.2187 50.3205 55.278C50.3205 55.3523 50.1572 55.753 49.9642 56.1687C47.6189 61.1265 48.6134 66.9897 52.4728 70.8937C57.5345 76.0296 65.758 76.089 70.8939 71.0272C76.0298 65.9655 76.0892 57.7273 71.0275 52.6062C67.9994 49.5335 63.6205 48.1382 59.4494 48.9101ZM64.9416 51.5671C66.6189 52.1015 67.8806 52.8882 69.2462 54.2538C71.1908 56.1983 72.2001 58.3655 72.3931 60.9929C72.5416 63.2343 71.9033 65.7726 70.7306 67.5093C70.1962 68.296 69.9142 68.3851 69.9142 67.7765C69.9142 67.1976 69.1869 65.9655 68.4298 65.253C68.0291 64.8819 67.2127 64.3327 66.6189 64.0358L65.5205 63.5015L65.9806 62.596C66.4259 61.6905 66.4259 61.6608 66.4259 59.3007V56.9257L65.8916 55.9608C64.3033 53.0812 60.5627 52.5913 58.3509 54.996C57.2228 56.228 57.0744 56.7179 57.0744 59.4491C57.0744 61.8241 57.0744 61.8241 57.5345 62.6554L57.9947 63.4866L56.8962 64.0358C56.2877 64.3327 55.4713 64.8819 55.0705 65.253C54.3134 65.9655 53.5861 67.1976 53.5861 67.7765C53.5861 68.3851 53.3041 68.296 52.7697 67.5093C51.6119 65.7726 50.9588 63.2343 51.1072 61.0077C51.2259 59.4046 51.508 58.4546 52.3392 56.7624L53.022 55.4116L52.4283 54.0163C51.7158 52.3538 51.6267 52.428 54.0314 52.7546L55.59 52.9624L56.347 52.5319C57.3267 51.9827 58.9002 51.389 59.865 51.2108C61.2009 50.9733 63.6056 51.1366 64.9416 51.5671ZM63.0564 56.2132C63.9173 56.8515 64.0509 57.1929 64.0955 58.9593C64.1697 61.0374 64.0955 61.4233 63.4572 62.1507C62.9673 62.7296 62.9377 62.8335 62.9377 63.8132V64.8671L64.8525 65.8171C65.9806 66.396 66.9009 66.9601 67.0939 67.1976L67.4205 67.6132L64.5853 67.6577C63.0267 67.6726 60.4736 67.6726 58.915 67.6577L56.0798 67.6132L56.4064 67.1976C56.5994 66.9601 57.5197 66.396 58.6478 65.8171L60.5627 64.8671V63.7835C60.5627 62.8187 60.5181 62.6554 60.2064 62.3585C59.5384 61.7202 59.3752 61.171 59.3752 59.4194C59.3752 57.9944 59.4197 57.6976 59.7166 57.1335C60.1916 56.2429 60.9931 55.7827 61.9431 55.8569C62.3439 55.8866 62.8337 56.0499 63.0564 56.2132ZM67.9103 70.4483C67.2869 70.9679 65.5502 71.7843 64.422 72.096C63.1158 72.4522 60.3845 72.4522 59.0783 72.096C57.9502 71.7843 56.2134 70.9679 55.59 70.4483L55.1447 70.0772H61.7502H68.3556L67.9103 70.4483Z" fill="#1C2C57"/>
</svg>
