<svg width="746" height="518" viewBox="0 0 746 518" fill="none" xmlns="http://www.w3.org/2000/svg">
<path d="M346.141 37.7043H336.447C334.394 46.6374 330.972 53.7142 326.296 58.8188C322.647 62.4152 318.313 64.1554 313.295 64.1554C309.987 64.1554 304.513 62.0672 296.757 58.0067C270.526 44.5491 243.838 37.8204 216.809 37.8204C182.137 37.8204 150.089 46.5214 120.779 64.0394C91.4677 81.5574 68.4297 106.152 51.7784 138.056C40.0313 160.447 32.3899 184.461 28.9684 209.984H90.8975C93.1785 182.605 98.4248 158.822 106.75 138.636C118.269 110.561 134.008 90.1424 153.967 77.2649C174.04 64.5034 196.394 58.0067 221.256 58.0067C250.795 58.0067 276.228 66.4757 297.328 83.5297C318.427 100.584 334.736 128.427 346.141 167.175H354.695L346.141 37.7043Z" fill="black" fill-opacity="0.05"/>
<path d="M354.695 332.147C332.455 363.586 312.04 384.585 293.564 395.142C274.974 405.699 253.647 411.036 229.354 411.036C201.412 411.036 176.549 404.307 154.766 390.85C132.982 377.392 116.673 358.018 105.838 332.727C99.7936 318.573 95.4597 302.911 92.7225 285.857H30.6794C36.1538 315.325 47.5588 341.892 64.7803 365.559C98.7671 412.312 146.668 435.747 208.597 435.747C242.926 435.747 272.579 427.858 297.556 412.196C322.533 396.418 344.43 371.707 363.135 337.831L354.695 332.147Z" fill="black" fill-opacity="0.05"/>
<path d="M621.685 416.72C607.201 416.72 596.366 412.775 589.409 404.886C584.391 399.086 581.996 384.468 581.996 361.033V285.973H529.191V361.033C529.191 382.38 527.138 396.069 523.146 401.986C516.531 411.731 505.354 416.604 489.501 416.604H476.272V427.045H634.687V416.604H621.685V416.72Z" fill="black" fill-opacity="0.05"/>
<path d="M709.39 46.4053H404.307L399.859 135.736H410.351C411.606 118.566 415.712 104.876 422.44 94.7829C429.169 84.6897 437.381 77.8449 446.961 74.2485C454.26 71.5802 466.692 70.304 484.141 70.304H529.191V209.868H582.11V70.188H634.687C650.084 70.188 662.515 72.7403 671.982 77.9609C681.448 83.0655 688.975 91.0704 694.677 101.976C698.213 108.704 700.95 119.958 703.003 135.62H713.496L709.39 46.4053Z" fill="black" fill-opacity="0.05"/>
<path d="M56.9111 229.94L57.8235 243.05H56.9111C55.7706 239.105 54.0598 236.321 52.0069 234.581C49.84 232.841 47.3309 232.028 44.2515 232.028C41.7424 232.028 39.4614 232.725 37.4085 234.001C35.3556 235.277 33.7589 237.365 32.6185 240.265C31.478 243.166 30.9077 246.646 30.9077 250.939C30.9077 254.419 31.478 257.435 32.5044 259.988C33.6449 262.54 35.2416 264.512 37.4085 265.904C39.5755 267.297 42.0846 267.993 44.9358 267.993C47.4449 267.993 49.6119 267.413 51.4367 266.368C53.2615 265.324 55.4284 263.12 57.5954 259.988L58.5078 260.568C56.5689 264.048 54.402 266.484 51.8929 268.109C49.3838 269.733 46.3044 270.545 42.8829 270.545C36.6102 270.545 31.7061 268.225 28.2846 263.468C25.6614 259.988 24.4069 255.811 24.4069 251.055C24.4069 247.226 25.2052 243.63 26.916 240.381C28.6267 237.133 30.9077 234.697 33.873 232.841C36.8383 231.1 40.1457 230.172 43.5672 230.172C46.3044 230.172 49.0416 230.868 51.6648 232.26C52.4631 232.725 53.0334 232.841 53.3755 232.841C53.8317 232.841 54.2879 232.608 54.7441 232.26C55.2003 231.796 55.5425 230.984 55.7706 230.172H56.9111V229.94Z" fill="black" fill-opacity="0.05"/>
<path d="M96.4862 256.506H81.7738L79.1506 262.655C78.4663 264.163 78.2382 265.323 78.2382 266.019C78.2382 266.599 78.4663 267.179 79.0366 267.528C79.6068 267.992 80.7473 268.224 82.5721 268.34V269.384H70.7109V268.34C72.3076 268.108 73.3341 267.644 73.7903 267.179C74.7027 266.251 75.8432 264.395 76.9837 261.611L90.3275 229.823H91.2399L104.47 261.959C105.496 264.511 106.523 266.251 107.321 266.947C108.233 267.76 109.374 268.108 110.971 268.224V269.268H96.03V268.224C97.5127 268.108 98.5391 267.876 99.1094 267.411C99.6796 266.947 99.9077 266.483 99.9077 265.787C99.9077 264.975 99.5656 263.583 98.7672 261.843L96.4862 256.506ZM95.6879 254.418L89.3011 238.872L82.6862 254.418H95.6879Z" fill="black" fill-opacity="0.05"/>
<path d="M122.262 269.5V268.456H123.63C125.227 268.456 126.368 267.992 127.052 266.947C127.508 266.367 127.622 264.859 127.622 262.771V237.828C127.622 235.392 127.394 233.884 126.824 233.303C126.139 232.491 124.999 232.027 123.63 232.027H122.262V230.867H137.658C143.361 230.867 147.581 231.563 150.546 232.839C153.511 234.116 155.906 236.32 157.617 239.336C159.442 242.353 160.354 245.949 160.354 249.893C160.354 255.23 158.758 259.755 155.564 263.351C151.915 267.411 146.44 269.384 139.141 269.384H122.262V269.5ZM133.096 266.715C135.492 267.295 137.43 267.527 139.027 267.527C143.361 267.527 146.897 266.019 149.748 262.887C152.599 259.755 153.968 255.578 153.968 250.357C153.968 245.021 152.599 240.844 149.748 237.712C146.897 234.58 143.247 233.071 138.799 233.071C137.088 233.071 135.263 233.303 133.096 233.884V266.715Z" fill="black" fill-opacity="0.05"/>
<path d="M293.792 230.868L294.249 239.917H293.108C292.88 238.293 292.652 237.132 292.31 236.552C291.739 235.508 290.941 234.696 290.029 234.116C289.116 233.536 287.862 233.304 286.265 233.304H280.905V262.771C280.905 265.092 281.133 266.6 281.703 267.18C282.387 267.992 283.528 268.34 285.011 268.34H286.379V269.384H270.298V268.34H271.667C273.263 268.34 274.404 267.876 275.088 266.832C275.544 266.252 275.658 264.86 275.658 262.655V233.188H271.096C269.272 233.188 268.017 233.304 267.333 233.536C266.42 233.884 265.508 234.58 264.824 235.624C264.139 236.668 263.683 238.061 263.569 239.801H262.543L262.999 230.752H293.792V230.868Z" fill="black" fill-opacity="0.05"/>
<path d="M317.173 232.955V248.269H325.498C327.665 248.269 329.148 247.921 329.832 247.225C330.745 246.297 331.315 244.789 331.429 242.585H332.455V256.042H331.429C331.201 254.186 330.859 252.91 330.631 252.446C330.288 251.75 329.718 251.286 329.034 250.822C328.236 250.473 327.095 250.241 325.498 250.241H317.173V263.003C317.173 264.743 317.287 265.787 317.401 266.135C317.515 266.483 317.857 266.831 318.199 267.063C318.541 267.295 319.226 267.411 320.366 267.411H326.753C328.92 267.411 330.403 267.295 331.429 266.947C332.341 266.599 333.368 266.019 334.166 265.207C335.307 264.047 336.447 262.307 337.702 259.871H338.842L335.535 269.5H306.338V268.456H307.707C308.619 268.456 309.417 268.224 310.216 267.76C310.786 267.411 311.242 266.947 311.47 266.367C311.698 265.787 311.812 264.511 311.812 262.655V237.596C311.812 235.16 311.584 233.652 311.128 233.071C310.444 232.259 309.303 231.911 307.821 231.911H306.452V230.867H335.649L336.105 239.336H334.965C334.622 237.248 334.166 235.856 333.71 235.16C333.254 234.348 332.569 233.768 331.543 233.419C330.745 233.187 329.49 232.955 327.551 232.955H317.173Z" fill="black" fill-opacity="0.05"/>
<path d="M384.348 229.939L385.261 243.048H384.348C383.208 239.104 381.497 236.32 379.444 234.579C377.277 232.839 374.768 232.027 371.689 232.027C369.18 232.027 366.899 232.723 364.846 233.999C362.793 235.275 361.196 237.364 360.056 240.264C358.915 243.164 358.345 246.645 358.345 250.937C358.345 254.418 358.915 257.434 359.942 259.986C361.082 262.539 362.679 264.511 364.846 265.903C367.013 267.295 369.522 267.991 372.373 267.991C374.882 267.991 377.049 267.411 378.874 266.367C380.699 265.323 382.866 263.119 385.033 259.986L385.945 260.566C384.006 264.047 381.839 266.483 379.33 268.107C376.821 269.731 373.742 270.544 370.32 270.544C364.048 270.544 359.143 268.223 355.722 263.467C353.099 259.986 351.844 255.81 351.844 251.053C351.844 247.225 352.643 243.628 354.353 240.38C356.064 237.132 358.345 234.695 361.31 232.839C364.276 231.099 367.583 230.171 371.005 230.171C373.742 230.171 376.479 230.867 379.102 232.259C379.9 232.723 380.471 232.839 380.813 232.839C381.269 232.839 381.725 232.607 382.181 232.259C382.638 231.795 382.98 230.983 383.208 230.171H384.348V229.939Z" fill="black" fill-opacity="0.05"/>
<path d="M409.439 248.733H427.003V237.712C427.003 235.74 426.889 234.464 426.661 233.768C426.433 233.303 426.09 232.839 425.52 232.491C424.722 232.027 423.924 231.795 423.011 231.795H421.643V230.867H437.838V231.911H436.469C435.557 231.911 434.758 232.143 433.96 232.607C433.39 232.955 432.933 233.419 432.705 234C432.477 234.58 432.363 235.856 432.363 237.828V262.771C432.363 264.743 432.477 266.019 432.705 266.599C432.933 267.063 433.276 267.527 433.846 267.876C434.644 268.34 435.557 268.572 436.469 268.572H437.838V269.616H421.643V268.572H423.011C424.608 268.572 425.634 268.108 426.433 267.179C426.889 266.599 427.117 265.091 427.117 262.771V251.054H409.439V262.771C409.439 264.743 409.553 266.019 409.781 266.599C410.009 267.063 410.352 267.527 410.922 267.876C411.72 268.34 412.519 268.572 413.431 268.572H414.8V269.616H398.604V268.572H399.973C401.57 268.572 402.71 268.108 403.395 267.179C403.851 266.599 404.079 265.091 404.079 262.771V237.828C404.079 235.856 403.965 234.58 403.737 233.884C403.509 233.419 403.166 232.955 402.596 232.607C401.798 232.143 400.885 231.911 399.973 231.911H398.604V230.867H414.8V231.911H413.431C412.519 231.911 411.72 232.143 410.922 232.607C410.352 232.955 409.895 233.419 409.667 234C409.439 234.58 409.325 235.856 409.325 237.828V248.733H409.439Z" fill="black" fill-opacity="0.05"/>
<path d="M447.988 230.867H458.252L481.404 259.871V237.596C481.404 235.276 481.176 233.768 480.606 233.187C479.922 232.375 478.781 232.027 477.299 232.027H475.93V230.867H489.16V231.911H487.791C486.195 231.911 485.054 232.375 484.37 233.419C483.914 234 483.799 235.392 483.799 237.596V270.08H482.773L457.91 238.988V262.771C457.91 265.091 458.138 266.599 458.709 267.179C459.393 267.992 460.533 268.34 462.016 268.34H463.385V269.384H450.155V268.34H451.523C453.12 268.34 454.261 267.875 454.945 266.831C455.401 266.251 455.515 264.859 455.515 262.655V235.856C454.375 234.58 453.576 233.652 453.006 233.303C452.436 232.839 451.637 232.491 450.497 232.143C449.927 232.027 449.128 231.911 447.988 231.911V230.867Z" fill="black" fill-opacity="0.05"/>
<path d="M517.33 268.456V269.5H501.135V268.456H502.503C504.1 268.456 505.241 267.992 505.925 267.063C506.381 266.483 506.609 264.975 506.609 262.655V237.712C506.609 235.74 506.495 234.464 506.267 233.884C506.039 233.419 505.697 232.955 505.127 232.607C504.328 232.143 503.416 231.911 502.503 231.911H501.135V230.867H517.33V231.911H515.961C514.365 231.911 513.338 232.375 512.54 233.303C512.084 233.884 511.856 235.392 511.856 237.712V262.655C511.856 264.627 511.97 265.903 512.198 266.483C512.426 266.947 512.768 267.411 513.338 267.76C514.137 268.224 514.935 268.456 515.847 268.456H517.33Z" fill="black" fill-opacity="0.05"/>
<path d="M562.836 229.939L563.748 243.048H562.836C561.695 239.104 559.985 236.32 557.932 234.579C555.765 232.839 553.256 232.027 550.176 232.027C547.667 232.027 545.386 232.723 543.333 233.999C541.28 235.275 539.684 237.364 538.543 240.264C537.403 243.164 536.832 246.645 536.832 250.937C536.832 254.418 537.403 257.434 538.429 259.986C539.57 262.539 541.166 264.511 543.333 265.903C545.5 267.295 548.009 267.991 550.861 267.991C553.37 267.991 555.537 267.411 557.361 266.367C559.186 265.323 561.353 263.119 563.52 259.986L564.432 260.566C562.494 264.047 560.327 266.483 557.818 268.107C555.308 269.731 552.229 270.544 548.808 270.544C542.535 270.544 537.631 268.223 534.209 263.467C531.586 259.986 530.331 255.81 530.331 251.053C530.331 247.225 531.13 243.628 532.841 240.38C534.551 237.132 536.832 234.695 539.798 232.839C542.763 231.099 546.07 230.171 549.492 230.171C552.229 230.171 554.966 230.867 557.589 232.259C558.388 232.723 558.958 232.839 559.3 232.839C559.756 232.839 560.213 232.607 560.669 232.259C561.125 231.795 561.467 230.983 561.695 230.171H562.836V229.939Z" fill="black" fill-opacity="0.05"/>
<path d="M593.858 268.456V269.5H577.663V268.456H579.031C580.628 268.456 581.769 267.992 582.453 267.063C582.909 266.483 583.137 264.975 583.137 262.655V237.712C583.137 235.74 583.023 234.464 582.795 233.884C582.567 233.419 582.225 232.955 581.655 232.607C580.856 232.143 579.944 231.911 579.031 231.911H577.663V230.867H593.858V231.911H592.489C590.893 231.911 589.866 232.375 589.068 233.303C588.612 233.884 588.383 235.392 588.383 237.712V262.655C588.383 264.627 588.498 265.903 588.726 266.483C588.954 266.947 589.296 267.411 589.866 267.76C590.664 268.224 591.463 268.456 592.375 268.456H593.858Z" fill="black" fill-opacity="0.05"/>
<path d="M631.152 256.506H616.44L613.817 262.655C613.132 264.163 612.904 265.323 612.904 266.019C612.904 266.599 613.132 267.179 613.703 267.528C614.273 267.992 615.413 268.224 617.238 268.34V269.384H605.263V268.34C606.86 268.108 607.886 267.644 608.342 267.179C609.255 266.251 610.395 264.395 611.536 261.611L624.879 229.823H625.906L639.136 261.959C640.162 264.511 641.189 266.251 641.987 266.947C642.899 267.76 644.04 268.108 645.636 268.224V269.268H630.696V268.224C632.179 268.108 633.205 267.876 633.775 267.411C634.346 266.947 634.574 266.483 634.574 265.787C634.574 264.975 634.232 263.583 633.433 261.843L631.152 256.506ZM630.354 254.418L623.967 238.872L617.352 254.418H630.354Z" fill="black" fill-opacity="0.05"/>
<path d="M655.216 230.867H665.48L688.633 259.871V237.596C688.633 235.276 688.404 233.768 687.834 233.187C687.15 232.375 686.009 232.027 684.527 232.027H683.158V230.867H696.388V231.911H695.019C693.423 231.911 692.282 232.375 691.598 233.419C691.142 234 691.028 235.392 691.028 237.596V270.08H690.001L665.138 238.988V262.771C665.138 265.091 665.366 266.599 665.937 267.179C666.621 267.992 667.761 268.34 669.244 268.34H670.613V269.384H657.383V268.34H658.751C660.348 268.34 661.489 267.875 662.173 266.831C662.629 266.251 662.743 264.859 662.743 262.655V235.856C661.603 234.58 660.804 233.652 660.234 233.303C659.664 232.839 658.865 232.491 657.725 232.143C657.155 232.027 656.356 231.911 655.216 231.911V230.867Z" fill="black" fill-opacity="0.05"/>
<path d="M733.226 229.939V243.28H732.2C731.858 240.728 731.287 238.64 730.375 237.132C729.463 235.624 728.322 234.463 726.725 233.535C725.129 232.607 723.418 232.143 721.707 232.143C719.768 232.143 718.172 232.723 716.917 233.999C715.663 235.159 714.978 236.552 714.978 238.06C714.978 239.22 715.435 240.264 716.233 241.308C717.373 242.7 720.111 244.673 724.444 246.993C727.98 248.965 730.375 250.357 731.744 251.401C732.998 252.445 734.025 253.606 734.709 255.114C735.393 256.506 735.735 258.014 735.735 259.522C735.735 262.423 734.595 264.975 732.428 267.063C730.147 269.151 727.296 270.196 723.874 270.196C722.734 270.196 721.707 270.08 720.795 269.964C720.225 269.848 718.97 269.499 717.259 268.919C715.435 268.339 714.294 267.991 713.838 267.991C713.382 267.991 713.04 268.107 712.697 268.455C712.469 268.687 712.241 269.383 712.127 270.196H711.101V256.97H712.127C712.583 259.754 713.268 261.843 714.066 263.235C714.864 264.627 716.119 265.787 717.83 266.715C719.54 267.643 721.365 268.107 723.418 268.107C725.699 268.107 727.638 267.527 728.892 266.251C730.261 264.975 730.945 263.467 730.945 261.843C730.945 260.914 730.717 259.986 730.147 258.942C729.691 258.014 728.892 257.086 727.752 256.274C727.068 255.694 725.015 254.534 721.821 252.678C718.628 250.821 716.233 249.313 714.864 248.269C713.496 247.225 712.469 245.949 711.785 244.673C711.101 243.396 710.759 241.888 710.759 240.264C710.759 237.48 711.785 235.159 713.838 233.071C715.891 231.099 718.628 230.055 721.821 230.055C723.874 230.055 725.927 230.519 728.208 231.563C729.235 232.027 730.033 232.259 730.375 232.259C730.831 232.259 731.287 232.143 731.516 231.795C731.858 231.447 732.086 230.867 732.2 230.055H733.226V229.939Z" fill="black" fill-opacity="0.05"/>
<path d="M235.171 303.143H204.948V272.399H235.171V303.143ZM208.369 299.662H231.749V275.88H208.369V299.662Z" fill="black" fill-opacity="0.05"/>
<path d="M221.713 7.30884H218.291V259.986H221.713V7.30884Z" fill="black" fill-opacity="0.05"/>
<path d="M221.713 316.948H218.291V504.658H221.713V316.948Z" fill="black" fill-opacity="0.05"/>
<path d="M192.744 284.465H8.21179V287.946H192.744V284.465Z" fill="black" fill-opacity="0.05"/>
<path d="M733.797 284.465H246.462V287.946H733.797V284.465Z" fill="black" fill-opacity="0.05"/>
</svg>
