<svg width="114" height="114" viewBox="0 0 114 114" fill="none" xmlns="http://www.w3.org/2000/svg">
<g clip-path="url(#clip0_332_370)">
<path d="M39.3656 0.645737L38.6309 1.29144V7.0805C38.6309 12.8696 38.6309 12.8696 39.1652 13.4485C39.8332 14.1387 40.7906 14.3836 41.659 14.0274C42.8836 13.5153 42.9727 13.0477 42.9727 7.01371C42.9727 3.67386 42.8836 1.35824 42.75 1.09105C42.4605 0.556674 41.3918 3.33786e-05 40.657 3.33786e-05C40.3453 3.33786e-05 39.7664 0.289487 39.3656 0.645737Z" fill="white"/>
<path d="M49.9641 0.7568L49.207 1.51383V10.7763C49.207 20.6845 49.2516 21.0185 50.298 21.5974C51.1664 22.0427 52.3242 21.8646 53.0145 21.1744L53.6602 20.5287V11.1548C53.6602 1.11305 53.6379 0.890394 52.5246 0.311487C51.5227 -0.200623 50.7879 -0.067028 49.9641 0.7568Z" fill="white"/>
<path d="M69.936 5.34378C63.2118 7.10277 59.0927 13.9383 60.6735 20.6848C61.2079 22.9114 62.4325 25.0489 64.2138 26.8301C66.7298 29.3239 69.602 30.5039 73.1423 30.5039C76.7716 30.5039 79.5993 29.3239 82.1821 26.7188C84.7649 24.1137 85.945 21.3082 85.945 17.7457C85.945 9.35159 78.0407 3.22855 69.936 5.34378ZM75.7251 9.79691C77.5954 10.3981 79.0872 11.5114 80.156 13.159C82.9392 17.4563 81.2915 23.1785 76.638 25.3383C75.5247 25.8727 75.0794 25.9395 73.1423 25.9395C71.1829 25.9395 70.7599 25.8727 69.6466 25.3383C67.9989 24.5813 66.3958 22.9559 65.5497 21.2637C64.9708 20.0614 64.904 19.7051 64.904 17.8125C64.904 15.8977 64.9708 15.5637 65.5942 14.25C67.4645 10.3313 71.6282 8.5055 75.7251 9.79691Z" fill="white"/>
<path d="M38.0737 24.6035C33.3757 25.65 29.4792 29.5242 28.3659 34.2C28.121 35.291 28.0319 36.3375 28.121 37.8515C28.2546 40.3453 28.8112 42.1488 30.0804 44.0859C30.548 44.8207 30.9487 45.4886 30.9487 45.5332C30.9487 45.6 28.2991 45.6445 25.0706 45.6445C19.8382 45.6445 19.0366 45.689 17.7675 46.0898C13.6706 47.3367 10.5757 51.0105 10.0191 55.2187C9.7964 57.0668 9.70734 69.0011 9.93 70.1144C10.264 71.8066 12.2234 72.4968 13.5148 71.3835L14.1382 70.8492L14.2718 63.0785C14.3609 56.4433 14.4499 55.1742 14.7839 54.3058C15.3405 52.7918 16.5206 51.5449 18.1015 50.7656L19.482 50.0976L52.3237 50.1421L85.1655 50.2089L86.2343 50.7656C87.5257 51.4113 88.728 52.6804 89.3737 54.0832C89.8191 55.0406 89.8413 55.5082 89.9081 61.8316L89.9749 68.5558L77.4394 68.6226C65.171 68.7117 64.8816 68.7117 63.4343 69.2015C57.0218 71.339 53.8823 78.5976 56.7991 84.5648C57.6898 86.3906 59.7382 88.5726 61.4081 89.4632C63.9687 90.8437 64.1023 90.8437 77.662 90.8437H89.9749L89.9081 97.5902L89.8413 104.314L89.1066 105.828C88.5722 106.875 88.0601 107.543 87.3476 108.1C85.3214 109.636 87.5034 109.569 51.6335 109.502L19.2593 109.436L18.2351 108.923C16.8101 108.233 15.63 107.031 14.9398 105.561L14.3609 104.314L14.2495 96.4546L14.1382 88.5726L13.6038 88.1496C12.7577 87.4593 12.0452 87.3925 11.1546 87.8601C9.81867 88.5726 9.75187 89.0402 9.8632 97.4121C9.93 104.203 9.97453 104.871 10.4198 106.229C11.355 109.057 13.4034 111.439 16.0753 112.798C18.5245 114.044 16.7878 114 56.9105 114C81.1577 114 94.3167 113.911 95.096 113.777C98.948 113.043 102.288 110.081 103.579 106.229L104.091 104.76L104.158 81.0468C104.203 66.1066 104.136 56.666 104.002 55.5082C103.446 50.9437 100.373 47.3144 95.9866 46.0007C94.8956 45.689 92.3351 45.6445 72.63 45.6445H50.498L51.0546 44.8875C54.862 39.9 54.3499 32.53 49.8968 28.0769C46.8909 25.0711 42.1706 23.6683 38.0737 24.6035ZM44.1968 29.4796C45.9335 30.2589 47.6702 31.9957 48.4495 33.6879C49.0284 34.8902 49.0952 35.3132 49.0952 37.1836C49.0952 39.0093 49.0062 39.4769 48.5163 40.5234C47.7148 42.2156 46.3566 43.6628 44.8202 44.4867C40.5898 46.7355 35.4687 45.0879 33.3534 40.7906C32.6632 39.4101 32.6187 39.1429 32.6187 37.0722C32.6187 35.0906 32.6855 34.7121 33.2421 33.5765C34.3331 31.3722 36.5597 29.5464 38.8976 28.9453C40.3226 28.589 42.8163 28.8339 44.1968 29.4796ZM95.9198 50.7878C97.4562 51.5449 98.6362 52.814 99.2374 54.3503C99.5491 55.1742 99.6382 56.3765 99.705 61.9429L99.7941 68.5781H97.0999H94.4058V62.4996C94.4058 55.3968 94.2499 54.15 93.1144 51.8121L92.2683 50.0976H93.4038C94.2499 50.0976 94.9402 50.2757 95.9198 50.7878ZM99.705 79.7554L99.7495 86.3906H82.6495C63.5011 86.3906 64.3472 86.4574 62.4546 84.7875C61.898 84.2976 61.1632 83.3625 60.8292 82.739C60.0277 81.1804 59.9831 78.5531 60.7402 77.0168C61.6753 75.1019 63.5234 73.6546 65.5273 73.2539C66.0394 73.1648 73.9214 73.098 83.0503 73.1203L99.6382 73.1425L99.705 79.7554ZM99.6382 97.6347V104.314L99.0593 105.561C97.9683 107.855 95.9866 109.257 93.4929 109.48L92.1124 109.614L92.7136 108.612C93.0253 108.077 93.5152 107.031 93.7823 106.296C94.2277 105.071 94.2722 104.515 94.3612 97.9019L94.4503 90.8214L97.0331 90.8882L99.6382 90.955V97.6347Z" fill="white"/>
<path d="M65.2384 77.8853C64.1474 78.4197 63.7243 79.5998 64.2364 80.6685C64.9044 82.0712 66.6188 82.383 67.7099 81.2919C68.8454 80.1564 68.4446 78.2415 66.9751 77.7294C66.1067 77.4177 66.1513 77.4177 65.2384 77.8853Z" fill="white"/>
<path d="M11.1991 77.8182C9.77413 78.4194 9.50694 80.2674 10.6648 81.3139C11.6222 82.1823 12.7132 82.16 13.6038 81.2917C14.7394 80.1561 14.3386 78.2413 12.869 77.7292C12.023 77.4397 12.0675 77.4397 11.1991 77.8182Z" fill="white"/>
</g>
<defs>
<clipPath id="clip0_332_370">
<rect width="114" height="114" fill="white"/>
</clipPath>
</defs>
</svg>
