<svg width="98" height="98" viewBox="0 0 98 98" fill="none" xmlns="http://www.w3.org/2000/svg">
<g clip-path="url(#clip0_332_360)">
<path d="M45.3629 0.134087C38.2617 0.804008 32.8641 2.31612 26.9687 5.28291C19.1977 9.16846 12.0008 15.772 7.27305 23.3517C3.84687 28.8259 1.35859 35.8888 0.344141 42.9708C0.01875 45.2294 0.01875 52.7708 0.344141 55.0294C1.14805 60.6759 2.64102 65.6142 4.97617 70.3419C7.59844 75.7013 10.1824 79.2997 14.4316 83.5681C18.6617 87.779 22.3176 90.4013 27.4664 92.9278C31.0648 94.6888 33.3809 95.5501 37.0367 96.4689C46.607 98.8806 56.2156 98.4212 65.5562 95.1099C68.4273 94.0954 73.3656 91.6071 75.8922 89.9228C86.6109 82.7642 94.1141 71.8923 96.8512 59.5274C97.4828 56.6563 97.8082 53.9575 97.9422 50.6271C98.2293 42.4731 96.5449 34.702 92.9082 27.3903C90.5348 22.6052 87.8742 18.8345 84.1418 14.9872C80.0457 10.738 75.9113 7.73292 70.5328 5.07236C64.8672 2.27784 59.5844 0.765724 53.3062 0.191505C51.3539 0.0192413 46.9324 -0.019043 45.3629 0.134087ZM55.7945 6.68018C67.8148 8.70908 77.9594 15.2552 84.716 25.3806C88.1422 30.4911 90.3816 36.3481 91.4344 42.7794C91.8937 45.7079 91.8937 52.2923 91.4344 55.2208C89.3672 68.0067 82.3617 78.6106 71.4898 85.463C66.8387 88.3915 61.2113 90.4587 55.2203 91.4349C52.2727 91.8942 45.7074 91.8942 42.7789 91.4157C30.2035 89.3677 19.8484 82.6876 12.977 72.1603C9.76133 67.2411 7.59844 61.4989 6.56484 55.2208C6.10547 52.2923 6.10547 45.7079 6.56484 42.7794C8.11523 33.2665 12.1348 25.3232 18.7383 18.7579C26.05 11.4653 35.2375 7.17783 45.5543 6.23994C47.6215 6.04854 53.5551 6.31651 55.7945 6.68018Z" fill="white"/>
<path d="M45.9375 34.3191V50.2441L55.5652 59.8719L65.1738 69.4805L67.3367 67.3176L69.4805 65.1738L60.7715 56.4649L52.0625 47.7559V33.075V18.375H49H45.9375V34.3191Z" fill="white"/>
</g>
<defs>
<clipPath id="clip0_332_360">
<rect width="98" height="98" fill="white"/>
</clipPath>
</defs>
</svg>
