<svg width="115" height="115" viewBox="0 0 115 115" fill="none" xmlns="http://www.w3.org/2000/svg">
<path d="M53.0078 0.247215C46.8086 0.965965 40.6543 3.23452 35.4434 6.71597C32.9727 8.35562 31.8945 9.38882 31.8945 10.0851C31.8945 10.3097 32.0967 10.7589 32.3662 11.0959C33.1299 12.0841 33.9385 11.9044 36.2744 10.2199C45.8428 3.36929 57.9043 1.57241 69.1797 5.30093C81.2412 9.29898 90.6074 19.7882 93.2129 32.1867C94.8975 40.1154 93.9766 48.2013 90.6299 55.4113C89.6865 57.4328 87.7549 60.5998 86.4521 62.2394C85.2617 63.7443 85.7783 65.4289 87.418 65.4289C87.957 65.4289 88.2939 65.2267 88.8555 64.5978C90.1582 63.0929 91.7305 60.5998 93.1455 57.7472C99.9512 44.2482 98.5137 28.0988 89.4394 15.9699C83.7568 8.40054 75.1992 2.89761 66.0352 0.943504C61.8574 0.0450668 57.0508 -0.202003 53.0078 0.247215Z" fill="white"/>
<path d="M53.2998 10.8036C52.1992 11.3427 51.3008 12.5556 51.0762 13.8134C50.874 15.0038 50.7168 15.1835 49.3467 15.6327C48.6953 15.8349 47.4375 16.374 46.5391 16.8007C45.3936 17.3622 44.8096 17.5419 44.6074 17.4072C43.4395 16.5536 43.0352 16.329 42.2266 16.1493C40.4971 15.7451 39.6885 16.1718 36.9033 18.9345C35.2637 20.5292 34.2754 21.6972 34.1182 22.1913C33.7363 23.3593 33.9834 24.8417 34.792 25.9648C35.1738 26.5263 35.4883 27.0654 35.4883 27.2001C35.4883 27.3124 35.2412 27.8964 34.9492 28.4804C34.6572 29.0644 34.1406 30.2997 33.8037 31.2656L33.1973 32.9726L32.1641 33.1298C30.7041 33.332 29.4014 34.1406 28.7949 35.2187C28.3457 36.0273 28.3008 36.4091 28.3008 39.4863C28.3008 41.3505 28.4131 43.1474 28.5479 43.5068C29.0869 44.9218 30.6816 46.0449 32.1865 46.0449C33.1523 46.0449 33.5791 46.4042 33.916 47.5048C34.0732 47.999 34.5449 49.0995 34.9492 49.9531C35.8477 51.7949 35.8701 52.1093 35.2412 52.6933C34.5674 53.2773 33.916 54.7597 33.916 55.7031C33.916 56.1298 34.1182 56.8935 34.3428 57.3876C34.8369 58.4658 38.9248 62.5312 39.8232 62.8681C41.3506 63.4521 43.5068 62.9579 44.5625 61.79C45.1465 61.1611 45.4834 61.1835 47.415 62.082C48.3359 62.5087 49.3916 62.9355 49.751 63.0253C50.7617 63.2499 50.9863 63.5419 50.9863 64.5527C51.0088 66.4394 52.334 68.2363 54.0859 68.7304C55.1641 69.0224 59.8359 69.0224 60.9141 68.7304C62.666 68.2363 63.9912 66.4394 64.0137 64.5527C64.0137 63.5419 64.2383 63.2499 65.249 63.0253C65.6084 62.9355 66.6641 62.5087 67.585 62.082C69.5166 61.1835 69.8535 61.1611 70.4375 61.79C71.4932 62.9579 73.6494 63.4521 75.1768 62.8681C76.0752 62.5312 80.1631 58.4658 80.6572 57.3876C80.8818 56.8935 81.084 56.1298 81.084 55.7031C81.084 54.7597 80.4326 53.2773 79.7588 52.6933C79.1299 52.1093 79.1523 51.7949 80.0508 49.9531C80.4551 49.0995 80.9268 47.999 81.084 47.5048C81.4209 46.4042 81.8477 46.0449 82.8135 46.0449C84.3184 46.0449 85.9131 44.9218 86.4521 43.5068C86.5869 43.1474 86.6992 41.3505 86.6992 39.4863C86.6992 36.4091 86.6543 36.0273 86.2051 35.2187C85.5986 34.1406 84.2959 33.332 82.8359 33.1298L81.8027 32.9726L81.1963 31.2656C80.8594 30.2997 80.3428 29.0644 80.0508 28.4804C79.7588 27.8964 79.5117 27.3124 79.5117 27.2001C79.5117 27.0654 79.8262 26.5263 80.208 25.9872C80.9941 24.8642 81.2412 23.6288 80.8818 22.3261C80.7021 21.6298 80.0957 20.8886 78.1191 18.9345C75.3115 16.1718 74.5254 15.7451 72.7734 16.1493C71.9648 16.329 71.5605 16.5536 70.3926 17.4072C70.1904 17.5419 69.6064 17.3622 68.4609 16.8007C67.5625 16.374 66.3047 15.8349 65.6533 15.6327C64.3057 15.1835 64.126 15.0038 63.9463 13.8359C63.7441 12.623 62.8008 11.3202 61.6777 10.7812C60.8467 10.3993 60.2852 10.332 57.4775 10.332C54.6699 10.332 54.1309 10.3993 53.2998 10.8036ZM60.375 13.9706C60.5322 14.1279 60.6445 14.4872 60.6445 14.8017C60.6445 15.6327 61.498 17.2275 62.2168 17.7441C62.5537 17.9911 63.5645 18.4404 64.4404 18.7548C65.3389 19.0917 66.7764 19.6982 67.6748 20.1249C68.5732 20.5517 69.6289 20.8886 70.0781 20.8886C70.8643 20.8886 72.2119 20.3271 73.1777 19.6308C73.6719 19.2714 73.7168 19.2939 75.6934 21.248C76.8164 22.3261 77.7148 23.3368 77.7148 23.4716C77.7148 23.6064 77.4004 24.1454 76.9961 24.6845C75.9404 26.122 75.8955 27.3349 76.8164 29.4462C77.2207 30.3447 77.7822 31.7822 78.0742 32.6357C78.3662 33.4667 78.8154 34.455 79.0625 34.8144C79.6465 35.623 81.0391 36.3867 81.9375 36.3867C83.2402 36.3867 83.3525 36.6562 83.2852 39.7558L83.2178 42.5409L82.207 42.7206C80.4775 43.0126 80.208 43.1025 79.4219 43.8212C78.9053 44.2704 78.4336 45.0117 78.0293 46.1122C77.6924 47.0107 77.0859 48.4257 76.6592 49.3017C75.5586 51.6376 75.7158 53.457 77.1758 54.8271C77.4678 55.0966 77.7148 55.4784 77.7148 55.6806C77.7148 56.2197 74.0986 59.746 73.5371 59.746C73.29 59.746 72.8408 59.4765 72.5264 59.162C71.3584 57.8818 69.2246 57.5673 67.54 58.4208C67.0234 58.6904 65.7207 59.2519 64.6201 59.6562C63.5195 60.0605 62.3516 60.622 62.0371 60.914C61.2734 61.6327 60.6445 63.0478 60.6445 64.1484C60.6445 64.6425 60.5322 65.1591 60.375 65.3163C60.1953 65.496 59.2295 65.5859 57.5 65.5859C55.7705 65.5859 54.8047 65.496 54.625 65.3163C54.4678 65.1591 54.3555 64.6425 54.3555 64.1484C54.333 62.1493 53.0752 60.5546 50.9414 59.8359C50.29 59.6337 49.0098 59.1171 48.0889 58.6904C45.6406 57.5898 43.7764 57.7245 42.4736 59.162C42.1592 59.4765 41.71 59.746 41.4629 59.746C40.9014 59.746 37.2852 56.2197 37.2852 55.6806C37.2852 55.5009 37.5322 55.0966 37.8242 54.8271C39.2842 53.457 39.4414 51.6376 38.3408 49.3017C37.9141 48.4257 37.3076 47.0107 36.9707 46.1122C36.5664 45.0117 36.0947 44.2704 35.5781 43.8212C34.792 43.1025 34.5225 43.0126 32.793 42.7206L31.7822 42.5409L31.7148 39.7558C31.6475 36.6562 31.7598 36.3867 33.0625 36.3867C33.9609 36.3867 35.3535 35.623 35.9375 34.8144C36.1846 34.455 36.6338 33.4667 36.9258 32.6357C37.2178 31.7822 37.7793 30.3447 38.1836 29.4462C39.1045 27.3349 39.0596 26.122 38.0039 24.6845C37.5996 24.1454 37.2852 23.6064 37.2852 23.4716C37.2852 23.3368 38.1836 22.3261 39.3066 21.248C41.2832 19.2939 41.3281 19.2714 41.8223 19.6308C42.7881 20.3271 44.1357 20.8886 44.9219 20.8886C45.3711 20.8886 46.4268 20.5517 47.3252 20.1249C48.2236 19.6982 49.6611 19.0917 50.5596 18.7548C51.4355 18.4404 52.4463 17.9911 52.7832 17.7441C53.502 17.2275 54.3555 15.6327 54.3555 14.8017C54.3555 13.8359 54.7148 13.7011 57.5 13.7011C59.2295 13.7011 60.1953 13.791 60.375 13.9706Z" fill="white"/>
<path d="M54.9166 21.787C48.358 22.8202 42.9 27.4471 40.7437 33.8036C39.8678 36.3866 39.7105 40.6317 40.4068 43.3495C41.8219 48.9647 45.5728 53.3446 50.8062 55.5008C62.3512 60.2626 75.0416 51.7723 75.0191 39.329C74.9967 34.7469 73.7388 31.243 70.774 27.6717C68.8424 25.3358 64.8892 22.91 61.7447 22.1464C59.8805 21.6971 56.6461 21.5175 54.9166 21.787ZM61.3629 25.5155C64.9342 26.5712 68.6178 29.6258 70.1451 32.7928C71.2457 35.0614 71.65 36.7684 71.65 39.1942C71.65 41.5301 71.2232 43.5516 70.4146 45.1464L69.8531 46.2469L68.3931 44.8319C67.607 44.0233 66.3043 43.0126 65.5406 42.5409C64.7545 42.0917 64.0806 41.6649 64.0357 41.6425C63.9908 41.5975 64.193 41.036 64.4625 40.3846C65.1138 38.8573 65.1812 36.5438 64.5972 34.8592C64.0582 33.287 62.3512 31.4227 60.689 30.6141C59.5885 30.0751 59.1392 29.9852 57.4996 29.9852C55.8599 29.9852 55.4107 30.0751 54.3101 30.6141C52.648 31.4227 50.941 33.287 50.4019 34.8592C49.818 36.5438 49.8853 38.8573 50.5592 40.4071C50.8287 41.0809 50.9859 41.6649 50.8512 41.7098C50.1324 41.9569 47.5269 43.8661 46.4488 44.9667L45.1461 46.2694L44.5846 45.1464C43.3717 42.7655 42.9898 38.6102 43.6861 35.8251C45.0562 30.4794 49.8853 25.9872 55.1861 25.1561C56.8482 24.9091 59.858 25.0887 61.3629 25.5155ZM59.1842 33.6688C61.565 34.7469 62.3961 37.6669 60.9361 39.8905C59.5211 42.0467 55.4781 42.0467 54.0631 39.8905C53.4342 38.9247 53.1646 37.4647 53.4342 36.4315C53.9283 34.6571 55.7252 33.2421 57.4996 33.2421C57.9264 33.2421 58.69 33.4442 59.1842 33.6688ZM55.0289 44.5848C56.2867 45.0341 58.6226 45.0116 60.1051 44.5399L61.2955 44.1805L62.9351 44.9891C64.1256 45.5731 65.024 46.2469 66.1021 47.37C66.9332 48.2235 67.607 49.0321 67.607 49.1444C67.607 49.5038 65.3834 51.1883 63.9234 51.9296C60.0377 53.9061 55.0064 53.9286 51.1656 51.9745C49.7281 51.2557 47.3922 49.4813 47.3922 49.1219C47.3922 48.5604 50.7613 45.5731 52.1539 44.9217C53.7935 44.1356 53.7711 44.1356 55.0289 44.5848Z" fill="white"/>
<path d="M26.5708 14.7568C24.2797 17.2725 20.9106 23.4268 19.5405 27.582C17.9458 32.501 17.2719 38.1387 17.6987 42.9453C18.2153 48.5381 19.3159 52.5811 21.6743 57.3877C23.4038 60.9141 24.7514 62.9805 27.1547 65.8105C31.4672 70.8643 33.601 73.8965 35.5327 77.8271L36.476 79.7363L35.6674 80.4102C34.4546 81.3984 33.6909 83.1055 33.6909 84.7676C33.6909 86.1602 34.2299 87.7324 34.9712 88.541C35.3081 88.9229 35.3081 88.9678 34.9712 89.3496C33.3315 91.1689 33.309 95.0322 34.9712 96.8516C35.2856 97.1885 35.2631 97.3008 34.7465 97.9746C33.4438 99.7266 33.3315 102.467 34.4995 104.354C35.3305 105.746 36.9702 106.847 38.3852 107.049L39.4633 107.184L39.5981 108.374C39.8452 110.867 41.4624 113.136 43.7758 114.259L45.0337 114.888H57.4995H69.9653L71.2231 114.259C73.5366 113.136 75.1538 110.867 75.4008 108.374L75.5356 107.184L76.6137 107.049C78.0288 106.847 79.6684 105.746 80.4995 104.354C81.6674 102.467 81.5551 99.7266 80.2524 97.9746C79.7358 97.3008 79.7133 97.1885 80.0278 96.8516C81.6899 95.0322 81.6674 91.1689 80.0278 89.3496C79.6909 88.9678 79.6909 88.9229 80.0278 88.541C80.769 87.7324 81.3081 86.1602 81.3081 84.7676C81.3081 83.1055 80.5444 81.3984 79.3315 80.4102L78.5005 79.7363L79.6909 77.4004C80.3422 76.1201 81.5776 74.0088 82.4311 72.7285C83.3071 71.4258 84.0034 70.168 84.0034 69.9209C84.0034 69.1123 83.1499 68.2812 82.3188 68.2812C81.645 68.2812 81.3979 68.4609 80.6118 69.4492C79.4213 70.9766 76.771 75.4463 75.8725 77.4678L75.1762 79.0625H57.5219L39.8676 79.04L38.5874 76.4121C36.521 72.1895 34.5669 69.3369 29.7602 63.6768C18.5073 50.4023 17.9907 31.7373 28.435 17.834C29.8501 15.9473 30.0073 15.1387 29.0639 14.3975C28.1655 13.7012 27.4692 13.791 26.5708 14.7568ZM76.6587 82.6787C77.4897 83.1055 77.9389 83.8467 77.9389 84.8125C77.9389 85.9805 77.31 86.834 76.187 87.1484C75.0415 87.4629 39.9575 87.4629 38.812 87.1484C36.7231 86.5645 36.3862 83.7344 38.2954 82.7012C38.9467 82.3418 75.9848 82.3193 76.6587 82.6787ZM77.2876 91.3936C78.1635 92.2695 78.2085 93.7744 77.3999 94.7178L76.8608 95.3467L63.1147 95.459L49.3686 95.5713L48.9419 96.1104C48.3803 96.7842 48.4028 97.8174 48.9643 98.3789C49.4135 98.8281 49.7055 98.8281 62.5532 98.8281C76.6811 98.8281 76.771 98.8281 77.5796 99.9736C78.3208 101.052 77.8491 102.983 76.7036 103.5C75.895 103.882 39.059 103.882 38.3403 103.522C37.5092 103.096 37.06 102.354 37.06 101.411C37.06 99.5693 38.228 98.8281 41.1704 98.8281C43.3042 98.8281 43.8657 98.4912 43.8657 97.2334C43.8657 95.9531 43.2143 95.5938 40.519 95.459C38.2505 95.3467 38.1157 95.3242 37.5991 94.7178C36.7905 93.7744 36.8354 92.2695 37.7114 91.3936L38.3628 90.7422H57.4995H76.6362L77.2876 91.3936ZM72.0991 107.7C72.0991 108.396 71.5376 109.789 71.021 110.373C70.8188 110.598 70.2348 110.979 69.7407 111.204C68.9096 111.586 68.0337 111.631 57.4995 111.631C46.9653 111.631 46.0893 111.586 45.2583 111.204C44.7641 110.979 44.1801 110.598 43.978 110.373C43.4614 109.789 42.8999 108.396 42.8999 107.7V107.139H57.4995H72.0991V107.7Z" fill="white"/>
</svg>
